<?xml version="1.0" encoding="UTF-8" standalone="no"?><svg xmlns="http://www.w3.org/2000/svg" xmlns:xlink="http://www.w3.org/1999/xlink" clip-rule="evenodd" stroke-miterlimit="10" viewBox="0 0 1024 768"><desc>SVG generated by Keynote</desc><defs></defs><g transform="matrix(1.00, 0.00, -0.00, -1.00, 0.0, 768.0)"><path d="M 0.0 768.0 L 1024.0 768.0 L 1024.0 0.0 L 0.0 0.0 Z M 0.0 768.0 " fill="#000000"></path><text xml:space="preserve" font-family="Helvetica-Light,Helvetica" font-size="80.0" fill="#FEFFFF" transform="matrix(1.00, 0.00, -0.00, -1.00, 276.4, 633.4)">E</text><text xml:space="preserve" font-family="Helvetica-Light,Helvetica" font-size="80.0" fill="#FEFFFF" transform="matrix(1.00, 0.00, -0.00, -1.00, 325.3, 633.4)">n</text><text xml:space="preserve" font-family="Helvetica-Light,Helvetica" font-size="80.0" fill="#FEFFFF" transform="matrix(1.00, 0.00, -0.00, -1.00, 369.8, 633.4)">u</text><text xml:space="preserve" font-family="Helvetica-Light,Helvetica" font-size="80.0" fill="#FEFFFF" transform="matrix(1.00, 0.00, -0.00, -1.00, 414.2, 633.4)">m</text><text xml:space="preserve" font-family="Helvetica-Light,Helvetica" font-size="80.0" fill="#FEFFFF" transform="matrix(1.00, 0.00, -0.00, -1.00, 480.9, 633.4)">e</text><text xml:space="preserve" font-family="Helvetica-Light,Helvetica" font-size="80.0" fill="#FEFFFF" transform="matrix(1.00, 0.00, -0.00, -1.00, 525.4, 633.4)">r</text><text xml:space="preserve" font-family="Helvetica-Light,Helvetica" font-size="80.0" fill="#FEFFFF" transform="matrix(1.00, 0.00, -0.00, -1.00, 552.0, 633.4)">a</text><text xml:space="preserve" font-family="Helvetica-Light,Helvetica" font-size="80.0" fill="#FEFFFF" transform="matrix(1.00, 0.00, -0.00, -1.00, 596.5, 633.4)">b</text><text xml:space="preserve" font-family="Helvetica-Light,Helvetica" font-size="80.0" fill="#FEFFFF" transform="matrix(1.00, 0.00, -0.00, -1.00, 645.4, 633.4)">l</text><text xml:space="preserve" font-family="Helvetica-Light,Helvetica" font-size="80.0" fill="#FEFFFF" transform="matrix(1.00, 0.00, -0.00, -1.00, 663.1, 633.4)">e</text><text xml:space="preserve" font-family="Helvetica-Light,Helvetica" font-size="80.0" fill="#FEFFFF" transform="matrix(1.00, 0.00, -0.00, -1.00, 707.6, 633.4)">s</text><text xml:space="preserve" font-family="Monaco,Monaco" font-size="40.0" fill="#7ADA45" transform="matrix(1.00, 0.00, -0.00, -1.00, 53.8, 317.2)">r</text><text xml:space="preserve" font-family="Monaco,Monaco" font-size="40.0" fill="#7ADA45" transform="matrix(1.00, 0.00, -0.00, -1.00, 77.8, 317.2)">e</text><text xml:space="preserve" font-family="Monaco,Monaco" font-size="40.0" fill="#7ADA45" transform="matrix(1.00, 0.00, -0.00, -1.00, 101.8, 317.2)">j</text><text xml:space="preserve" font-family="Monaco,Monaco" font-size="40.0" fill="#7ADA45" transform="matrix(1.00, 0.00, -0.00, -1.00, 125.8, 317.2)">e</text><text xml:space="preserve" font-family="Monaco,Monaco" font-size="40.0" fill="#7ADA45" transform="matrix(1.00, 0.00, -0.00, -1.00, 149.8, 317.2)">c</text><text xml:space="preserve" font-family="Monaco,Monaco" font-size="40.0" fill="#7ADA45" transform="matrix(1.00, 0.00, -0.00, -1.00, 173.8, 317.2)">t</text><text xml:space="preserve" font-family="Monaco,Monaco" font-size="40.0" fill="#7ADA45" transform="matrix(1.00, 0.00, -0.00, -1.00, 344.3, 522.6)">s</text><text xml:space="preserve" font-family="Monaco,Monaco" font-size="40.0" fill="#7ADA45" transform="matrix(1.00, 0.00, -0.00, -1.00, 368.3, 522.6)">e</text><text xml:space="preserve" font-family="Monaco,Monaco" font-size="40.0" fill="#7ADA45" transform="matrix(1.00, 0.00, -0.00, -1.00, 392.3, 522.6)">l</text><text xml:space="preserve" font-family="Monaco,Monaco" font-size="40.0" fill="#7ADA45" transform="matrix(1.00, 0.00, -0.00, -1.00, 416.3, 522.6)">e</text><text xml:space="preserve" font-family="Monaco,Monaco" font-size="40.0" fill="#7ADA45" transform="matrix(1.00, 0.00, -0.00, -1.00, 440.3, 522.6)">c</text><text xml:space="preserve" font-family="Monaco,Monaco" font-size="40.0" fill="#7ADA45" transform="matrix(1.00, 0.00, -0.00, -1.00, 464.3, 522.6)">t</text><text xml:space="preserve" font-family="Monaco,Monaco" font-size="40.0" fill="#7ADA45" transform="matrix(1.00, 0.00, -0.00, -1.00, 285.0, 146.3)">d</text><text xml:space="preserve" font-family="Monaco,Monaco" font-size="40.0" fill="#7ADA45" transform="matrix(1.00, 0.00, -0.00, -1.00, 309.1, 146.3)">e</text><text xml:space="preserve" font-family="Monaco,Monaco" font-size="40.0" fill="#7ADA45" transform="matrix(1.00, 0.00, -0.00, -1.00, 333.1, 146.3)">t</text><text xml:space="preserve" font-family="Monaco,Monaco" font-size="40.0" fill="#7ADA45" transform="matrix(1.00, 0.00, -0.00, -1.00, 357.1, 146.3)">e</text><text xml:space="preserve" font-family="Monaco,Monaco" font-size="40.0" fill="#7ADA45" transform="matrix(1.00, 0.00, -0.00, -1.00, 381.1, 146.3)">c</text><text xml:space="preserve" font-family="Monaco,Monaco" font-size="40.0" fill="#7ADA45" transform="matrix(1.00, 0.00, -0.00, -1.00, 405.1, 146.3)">t</text><text xml:space="preserve" font-family="Monaco,Monaco" font-size="40.0" fill="#7ADA45" transform="matrix(1.00, 0.00, -0.00, -1.00, 423.9, 410.5)">m</text><text xml:space="preserve" font-family="Monaco,Monaco" font-size="40.0" fill="#7ADA45" transform="matrix(1.00, 0.00, -0.00, -1.00, 447.9, 410.5)">a</text><text xml:space="preserve" font-family="Monaco,Monaco" font-size="40.0" fill="#7ADA45" transform="matrix(1.00, 0.00, -0.00, -1.00, 471.9, 410.5)">p</text><text xml:space="preserve" font-family="Monaco,Monaco" font-size="40.0" fill="#7ADA45" transform="matrix(1.00, 0.00, -0.00, -1.00, 558.9, 453.5)">e</text><text xml:space="preserve" font-family="Monaco,Monaco" font-size="40.0" fill="#7ADA45" transform="matrix(1.00, 0.00, -0.00, -1.00, 582.9, 453.5)">a</text><text xml:space="preserve" font-family="Monaco,Monaco" font-size="40.0" fill="#7ADA45" transform="matrix(1.00, 0.00, -0.00, -1.00, 606.9, 453.5)">c</text><text xml:space="preserve" font-family="Monaco,Monaco" font-size="40.0" fill="#7ADA45" transform="matrix(1.00, 0.00, -0.00, -1.00, 630.9, 453.5)">h</text><text xml:space="preserve" font-family="Monaco,Monaco" font-size="40.0" fill="#7ADA45" transform="matrix(1.00, 0.00, -0.00, -1.00, 655.0, 453.5)">_</text><text xml:space="preserve" font-family="Monaco,Monaco" font-size="40.0" fill="#7ADA45" transform="matrix(1.00, 0.00, -0.00, -1.00, 679.0, 453.5)">w</text><text xml:space="preserve" font-family="Monaco,Monaco" font-size="40.0" fill="#7ADA45" transform="matrix(1.00, 0.00, -0.00, -1.00, 703.0, 453.5)">i</text><text xml:space="preserve" font-family="Monaco,Monaco" font-size="40.0" fill="#7ADA45" transform="matrix(1.00, 0.00, -0.00, -1.00, 727.0, 453.5)">t</text><text xml:space="preserve" font-family="Monaco,Monaco" font-size="40.0" fill="#7ADA45" transform="matrix(1.00, 0.00, -0.00, -1.00, 751.0, 453.5)">h</text><text xml:space="preserve" font-family="Monaco,Monaco" font-size="40.0" fill="#7ADA45" transform="matrix(1.00, 0.00, -0.00, -1.00, 775.0, 453.5)">_</text><text xml:space="preserve" font-family="Monaco,Monaco" font-size="40.0" fill="#7ADA45" transform="matrix(1.00, 0.00, -0.00, -1.00, 799.0, 453.5)">o</text><text xml:space="preserve" font-family="Monaco,Monaco" font-size="40.0" fill="#7ADA45" transform="matrix(1.00, 0.00, -0.00, -1.00, 823.0, 453.5)">b</text><text xml:space="preserve" font-family="Monaco,Monaco" font-size="40.0" fill="#7ADA45" transform="matrix(1.00, 0.00, -0.00, -1.00, 847.0, 453.5)">j</text><text xml:space="preserve" font-family="Monaco,Monaco" font-size="40.0" fill="#7ADA45" transform="matrix(1.00, 0.00, -0.00, -1.00, 871.0, 453.5)">e</text><text xml:space="preserve" font-family="Monaco,Monaco" font-size="40.0" fill="#7ADA45" transform="matrix(1.00, 0.00, -0.00, -1.00, 895.0, 453.5)">c</text><text xml:space="preserve" font-family="Monaco,Monaco" font-size="40.0" fill="#7ADA45" transform="matrix(1.00, 0.00, -0.00, -1.00, 919.0, 453.5)">t</text><text xml:space="preserve" font-family="Monaco,Monaco" font-size="40.0" fill="#7ADA45" transform="matrix(1.00, 0.00, -0.00, -1.00, 558.5, 78.4)">e</text><text xml:space="preserve" font-family="Monaco,Monaco" font-size="40.0" fill="#7ADA45" transform="matrix(1.00, 0.00, -0.00, -1.00, 582.5, 78.4)">a</text><text xml:space="preserve" font-family="Monaco,Monaco" font-size="40.0" fill="#7ADA45" transform="matrix(1.00, 0.00, -0.00, -1.00, 606.5, 78.4)">c</text><text xml:space="preserve" font-family="Monaco,Monaco" font-size="40.0" fill="#7ADA45" transform="matrix(1.00, 0.00, -0.00, -1.00, 630.5, 78.4)">h</text><text xml:space="preserve" font-family="Monaco,Monaco" font-size="40.0" fill="#7ADA45" transform="matrix(1.00, 0.00, -0.00, -1.00, 654.5, 78.4)">_</text><text xml:space="preserve" font-family="Monaco,Monaco" font-size="40.0" fill="#7ADA45" transform="matrix(1.00, 0.00, -0.00, -1.00, 678.5, 78.4)">w</text><text xml:space="preserve" font-family="Monaco,Monaco" font-size="40.0" fill="#7ADA45" transform="matrix(1.00, 0.00, -0.00, -1.00, 702.5, 78.4)">i</text><text xml:space="preserve" font-family="Monaco,Monaco" font-size="40.0" fill="#7ADA45" transform="matrix(1.00, 0.00, -0.00, -1.00, 726.5, 78.4)">t</text><text xml:space="preserve" font-family="Monaco,Monaco" font-size="40.0" fill="#7ADA45" transform="matrix(1.00, 0.00, -0.00, -1.00, 750.6, 78.4)">h</text><text xml:space="preserve" font-family="Monaco,Monaco" font-size="40.0" fill="#7ADA45" transform="matrix(1.00, 0.00, -0.00, -1.00, 774.6, 78.4)">_</text><text xml:space="preserve" font-family="Monaco,Monaco" font-size="40.0" fill="#7ADA45" transform="matrix(1.00, 0.00, -0.00, -1.00, 798.6, 78.4)">i</text><text xml:space="preserve" font-family="Monaco,Monaco" font-size="40.0" fill="#7ADA45" transform="matrix(1.00, 0.00, -0.00, -1.00, 822.6, 78.4)">n</text><text xml:space="preserve" font-family="Monaco,Monaco" font-size="40.0" fill="#7ADA45" transform="matrix(1.00, 0.00, -0.00, -1.00, 846.6, 78.4)">d</text><text xml:space="preserve" font-family="Monaco,Monaco" font-size="40.0" fill="#7ADA45" transform="matrix(1.00, 0.00, -0.00, -1.00, 870.6, 78.4)">e</text><text xml:space="preserve" font-family="Monaco,Monaco" font-size="40.0" fill="#7ADA45" transform="matrix(1.00, 0.00, -0.00, -1.00, 894.6, 78.4)">x</text><text xml:space="preserve" font-family="Monaco,Monaco" font-size="40.0" fill="#7ADA45" transform="matrix(1.00, 0.00, -0.00, -1.00, 643.0, 224.8)">f</text><text xml:space="preserve" font-family="Monaco,Monaco" font-size="40.0" fill="#7ADA45" transform="matrix(1.00, 0.00, -0.00, -1.00, 667.0, 224.8)">i</text><text xml:space="preserve" font-family="Monaco,Monaco" font-size="40.0" fill="#7ADA45" transform="matrix(1.00, 0.00, -0.00, -1.00, 691.0, 224.8)">r</text><text xml:space="preserve" font-family="Monaco,Monaco" font-size="40.0" fill="#7ADA45" transform="matrix(1.00, 0.00, -0.00, -1.00, 715.0, 224.8)">s</text><text xml:space="preserve" font-family="Monaco,Monaco" font-size="40.0" fill="#7ADA45" transform="matrix(1.00, 0.00, -0.00, -1.00, 739.0, 224.8)">t</text><text xml:space="preserve" font-family="Monaco,Monaco" font-size="40.0" fill="#7ADA45" transform="matrix(1.00, 0.00, -0.00, -1.00, 702.9, 346.7)">g</text><text xml:space="preserve" font-family="Monaco,Monaco" font-size="40.0" fill="#7ADA45" transform="matrix(1.00, 0.00, -0.00, -1.00, 727.0, 346.7)">r</text><text xml:space="preserve" font-family="Monaco,Monaco" font-size="40.0" fill="#7ADA45" transform="matrix(1.00, 0.00, -0.00, -1.00, 751.0, 346.7)">e</text><text xml:space="preserve" font-family="Monaco,Monaco" font-size="40.0" fill="#7ADA45" transform="matrix(1.00, 0.00, -0.00, -1.00, 775.0, 346.7)">p</text><text xml:space="preserve" font-family="Monaco,Monaco" font-size="40.0" fill="#7ADA45" transform="matrix(1.00, 0.00, -0.00, -1.00, 371.3, 257.7)">i</text><text xml:space="preserve" font-family="Monaco,Monaco" font-size="40.0" fill="#7ADA45" transform="matrix(1.00, 0.00, -0.00, -1.00, 395.3, 257.7)">n</text><text xml:space="preserve" font-family="Monaco,Monaco" font-size="40.0" fill="#7ADA45" transform="matrix(1.00, 0.00, -0.00, -1.00, 419.3, 257.7)">c</text><text xml:space="preserve" font-family="Monaco,Monaco" font-size="40.0" fill="#7ADA45" transform="matrix(1.00, 0.00, -0.00, -1.00, 443.4, 257.7)">l</text><text xml:space="preserve" font-family="Monaco,Monaco" font-size="40.0" fill="#7ADA45" transform="matrix(1.00, 0.00, -0.00, -1.00, 467.4, 257.7)">u</text><text xml:space="preserve" font-family="Monaco,Monaco" font-size="40.0" fill="#7ADA45" transform="matrix(1.00, 0.00, -0.00, -1.00, 491.4, 257.7)">d</text><text xml:space="preserve" font-family="Monaco,Monaco" font-size="40.0" fill="#7ADA45" transform="matrix(1.00, 0.00, -0.00, -1.00, 515.4, 257.7)">e</text><text xml:space="preserve" font-family="Monaco,Monaco" font-size="40.0" fill="#7ADA45" transform="matrix(1.00, 0.00, -0.00, -1.00, 539.4, 257.7)">?</text><text xml:space="preserve" font-family="Monaco,Monaco" font-size="40.0" fill="#7ADA45" transform="matrix(1.00, 0.00, -0.00, -1.00, 77.0, 437.1)">r</text><text xml:space="preserve" font-family="Monaco,Monaco" font-size="40.0" fill="#7ADA45" transform="matrix(1.00, 0.00, -0.00, -1.00, 101.0, 437.1)">e</text><text xml:space="preserve" font-family="Monaco,Monaco" font-size="40.0" fill="#7ADA45" transform="matrix(1.00, 0.00, -0.00, -1.00, 125.0, 437.1)">d</text><text xml:space="preserve" font-family="Monaco,Monaco" font-size="40.0" fill="#7ADA45" transform="matrix(1.00, 0.00, -0.00, -1.00, 149.0, 437.1)">u</text><text xml:space="preserve" font-family="Monaco,Monaco" font-size="40.0" fill="#7ADA45" transform="matrix(1.00, 0.00, -0.00, -1.00, 173.0, 437.1)">c</text><text xml:space="preserve" font-family="Monaco,Monaco" font-size="40.0" fill="#7ADA45" transform="matrix(1.00, 0.00, -0.00, -1.00, 197.0, 437.1)">e</text><text xml:space="preserve" font-family="Monaco,Monaco" font-size="40.0" fill="#7ADA45" transform="matrix(1.00, 0.00, -0.00, -1.00, 59.7, 108.8)">m</text><text xml:space="preserve" font-family="Monaco,Monaco" font-size="40.0" fill="#7ADA45" transform="matrix(1.00, 0.00, -0.00, -1.00, 83.7, 108.8)">i</text><text xml:space="preserve" font-family="Monaco,Monaco" font-size="40.0" fill="#7ADA45" transform="matrix(1.00, 0.00, -0.00, -1.00, 107.7, 108.8)">n</text><text xml:space="preserve" font-family="Monaco,Monaco" font-size="40.0" fill="#7ADA45" transform="matrix(1.00, 0.00, -0.00, -1.00, 131.7, 108.8)">/</text><text xml:space="preserve" font-family="Monaco,Monaco" font-size="40.0" fill="#7ADA45" transform="matrix(1.00, 0.00, -0.00, -1.00, 155.7, 108.8)">m</text><text xml:space="preserve" font-family="Monaco,Monaco" font-size="40.0" fill="#7ADA45" transform="matrix(1.00, 0.00, -0.00, -1.00, 179.7, 108.8)">a</text><text xml:space="preserve" font-family="Monaco,Monaco" font-size="40.0" fill="#7ADA45" transform="matrix(1.00, 0.00, -0.00, -1.00, 203.7, 108.8)">x</text><text xml:space="preserve" font-family="Monaco,Monaco" font-size="40.0" fill="#7ADA45" transform="matrix(1.00, 0.00, -0.00, -1.00, 293.6, 346.7)">a</text><text xml:space="preserve" font-family="Monaco,Monaco" font-size="40.0" fill="#7ADA45" transform="matrix(1.00, 0.00, -0.00, -1.00, 317.6, 346.7)">n</text><text xml:space="preserve" font-family="Monaco,Monaco" font-size="40.0" fill="#7ADA45" transform="matrix(1.00, 0.00, -0.00, -1.00, 341.6, 346.7)">y</text><text xml:space="preserve" font-family="Monaco,Monaco" font-size="40.0" fill="#7ADA45" transform="matrix(1.00, 0.00, -0.00, -1.00, 365.6, 346.7)">?</text></g></svg>