<?xml version="1.0" encoding="UTF-8" standalone="no"?><svg xmlns="http://www.w3.org/2000/svg" xmlns:xlink="http://www.w3.org/1999/xlink" clip-rule="evenodd" stroke-miterlimit="10" viewBox="0 0 322 39"><desc>SVG generated by Keynote</desc><defs></defs><g transform="matrix(1.00, 0.00, -0.00, -1.00, 0.0, 39.0)"><text xml:space="preserve" font-family="Monaco,Monaco" font-size="36.0" fill="#7ADA45" transform="matrix(1.00, 0.00, -0.00, -1.00, -0.2, 8.9)">h</text><text xml:space="preserve" font-family="Monaco,Monaco" font-size="36.0" fill="#7ADA45" transform="matrix(1.00, 0.00, -0.00, -1.00, 21.4, 8.9)">a</text><text xml:space="preserve" font-family="Monaco,Monaco" font-size="36.0" fill="#7ADA45" transform="matrix(1.00, 0.00, -0.00, -1.00, 43.0, 8.9)">s</text><text xml:space="preserve" font-family="Monaco,Monaco" font-size="36.0" fill="#7ADA45" transform="matrix(1.00, 0.00, -0.00, -1.00, 64.6, 8.9)">h</text><text xml:space="preserve" font-family="Monaco,Monaco" font-size="36.0" fill="#7ADA45" transform="matrix(1.00, 0.00, -0.00, -1.00, 86.3, 8.9)">[</text><text xml:space="preserve" font-family="Monaco,Monaco" font-size="36.0" fill="#7ADA45" transform="matrix(1.00, 0.00, -0.00, -1.00, 107.9, 8.9)">“</text><text xml:space="preserve" font-family="Monaco,Monaco" font-size="36.0" fill="#7ADA45" transform="matrix(1.00, 0.00, -0.00, -1.00, 129.5, 8.9)">4</text><text xml:space="preserve" font-family="Monaco,Monaco" font-size="36.0" fill="#7ADA45" transform="matrix(1.00, 0.00, -0.00, -1.00, 151.1, 8.9)">”</text><text xml:space="preserve" font-family="Monaco,Monaco" font-size="36.0" fill="#7ADA45" transform="matrix(1.00, 0.00, -0.00, -1.00, 172.7, 8.9)">]</text><text xml:space="preserve" font-family="Monaco,Monaco" font-size="36.0" fill="#7ADA45" transform="matrix(1.00, 0.00, -0.00, -1.00, 194.3, 8.9)"> </text><text xml:space="preserve" font-family="Monaco,Monaco" font-size="36.0" fill="#7ADA45" transform="matrix(1.00, 0.00, -0.00, -1.00, 215.9, 8.9)">#</text><text xml:space="preserve" font-family="Monaco,Monaco" font-size="36.0" fill="#7ADA45" transform="matrix(1.00, 0.00, -0.00, -1.00, 237.5, 8.9)">=</text><text xml:space="preserve" font-family="Monaco,Monaco" font-size="36.0" fill="#7ADA45" transform="matrix(1.00, 0.00, -0.00, -1.00, 259.1, 8.9)">&gt;</text><text xml:space="preserve" font-family="Monaco,Monaco" font-size="36.0" fill="#7ADA45" transform="matrix(1.00, 0.00, -0.00, -1.00, 280.7, 8.9)"> </text><text xml:space="preserve" font-family="Monaco,Monaco" font-size="36.0" fill="#7ADA45" transform="matrix(1.00, 0.00, -0.00, -1.00, 302.3, 8.9)">?</text></g></svg>