<?xml version="1.0" encoding="UTF-8" standalone="no"?><svg xmlns="http://www.w3.org/2000/svg" xmlns:xlink="http://www.w3.org/1999/xlink" clip-rule="evenodd" stroke-miterlimit="10" viewBox="0 0 836 55"><desc>SVG generated by Keynote</desc><defs></defs><g transform="matrix(1.00, 0.00, -0.00, -1.00, 0.0, 55.0)"><text xml:space="preserve" font-family="Monaco,Monaco" font-size="50.0" fill="#FF2600" transform="matrix(1.00, 0.00, -0.00, -1.00, -1.6, 12.7)">K</text><text xml:space="preserve" font-family="Monaco,Monaco" font-size="50.0" fill="#FF2600" transform="matrix(1.00, 0.00, -0.00, -1.00, 28.4, 12.7)">e</text><text xml:space="preserve" font-family="Monaco,Monaco" font-size="50.0" fill="#FF2600" transform="matrix(1.00, 0.00, -0.00, -1.00, 58.5, 12.7)">y</text><text xml:space="preserve" font-family="Monaco,Monaco" font-size="50.0" fill="#FF2600" transform="matrix(1.00, 0.00, -0.00, -1.00, 88.5, 12.7)">E</text><text xml:space="preserve" font-family="Monaco,Monaco" font-size="50.0" fill="#FF2600" transform="matrix(1.00, 0.00, -0.00, -1.00, 118.5, 12.7)">r</text><text xml:space="preserve" font-family="Monaco,Monaco" font-size="50.0" fill="#FF2600" transform="matrix(1.00, 0.00, -0.00, -1.00, 148.5, 12.7)">r</text><text xml:space="preserve" font-family="Monaco,Monaco" font-size="50.0" fill="#FF2600" transform="matrix(1.00, 0.00, -0.00, -1.00, 178.5, 12.7)">o</text><text xml:space="preserve" font-family="Monaco,Monaco" font-size="50.0" fill="#FF2600" transform="matrix(1.00, 0.00, -0.00, -1.00, 208.5, 12.7)">r</text><text xml:space="preserve" font-family="Monaco,Monaco" font-size="50.0" fill="#FF2600" transform="matrix(1.00, 0.00, -0.00, -1.00, 238.5, 12.7)">:</text><text xml:space="preserve" font-family="Monaco,Monaco" font-size="50.0" fill="#FF2600" transform="matrix(1.00, 0.00, -0.00, -1.00, 268.5, 12.7)"> </text><text xml:space="preserve" font-family="Monaco,Monaco" font-size="50.0" fill="#FF2600" transform="matrix(1.00, 0.00, -0.00, -1.00, 298.5, 12.7)">k</text><text xml:space="preserve" font-family="Monaco,Monaco" font-size="50.0" fill="#FF2600" transform="matrix(1.00, 0.00, -0.00, -1.00, 328.5, 12.7)">e</text><text xml:space="preserve" font-family="Monaco,Monaco" font-size="50.0" fill="#FF2600" transform="matrix(1.00, 0.00, -0.00, -1.00, 358.6, 12.7)">y</text><text xml:space="preserve" font-family="Monaco,Monaco" font-size="50.0" fill="#FF2600" transform="matrix(1.00, 0.00, -0.00, -1.00, 388.6, 12.7)"> </text><text xml:space="preserve" font-family="Monaco,Monaco" font-size="50.0" fill="#FF2600" transform="matrix(1.00, 0.00, -0.00, -1.00, 418.6, 12.7)">n</text><text xml:space="preserve" font-family="Monaco,Monaco" font-size="50.0" fill="#FF2600" transform="matrix(1.00, 0.00, -0.00, -1.00, 448.6, 12.7)">o</text><text xml:space="preserve" font-family="Monaco,Monaco" font-size="50.0" fill="#FF2600" transform="matrix(1.00, 0.00, -0.00, -1.00, 478.6, 12.7)">t</text><text xml:space="preserve" font-family="Monaco,Monaco" font-size="50.0" fill="#FF2600" transform="matrix(1.00, 0.00, -0.00, -1.00, 508.6, 12.7)"> </text><text xml:space="preserve" font-family="Monaco,Monaco" font-size="50.0" fill="#FF2600" transform="matrix(1.00, 0.00, -0.00, -1.00, 538.6, 12.7)">f</text><text xml:space="preserve" font-family="Monaco,Monaco" font-size="50.0" fill="#FF2600" transform="matrix(1.00, 0.00, -0.00, -1.00, 568.6, 12.7)">o</text><text xml:space="preserve" font-family="Monaco,Monaco" font-size="50.0" fill="#FF2600" transform="matrix(1.00, 0.00, -0.00, -1.00, 598.6, 12.7)">u</text><text xml:space="preserve" font-family="Monaco,Monaco" font-size="50.0" fill="#FF2600" transform="matrix(1.00, 0.00, -0.00, -1.00, 628.6, 12.7)">n</text><text xml:space="preserve" font-family="Monaco,Monaco" font-size="50.0" fill="#FF2600" transform="matrix(1.00, 0.00, -0.00, -1.00, 658.7, 12.7)">d</text><text xml:space="preserve" font-family="Monaco,Monaco" font-size="50.0" fill="#FF2600" transform="matrix(1.00, 0.00, -0.00, -1.00, 688.7, 12.7)">:</text><text xml:space="preserve" font-family="Monaco,Monaco" font-size="50.0" fill="#FF2600" transform="matrix(1.00, 0.00, -0.00, -1.00, 718.7, 12.7)"> </text><text xml:space="preserve" font-family="Monaco,Monaco" font-size="50.0" fill="#FF2600" transform="matrix(1.00, 0.00, -0.00, -1.00, 748.6, 12.7)">“</text><text xml:space="preserve" font-family="Monaco,Monaco" font-size="50.0" fill="#FF2600" transform="matrix(1.00, 0.00, -0.00, -1.00, 778.6, 12.7)">4</text><text xml:space="preserve" font-family="Monaco,Monaco" font-size="50.0" fill="#FF2600" transform="matrix(1.00, 0.00, -0.00, -1.00, 808.6, 12.7)">”</text></g></svg>