<?xml version="1.0" encoding="UTF-8" standalone="no"?><svg xmlns="http://www.w3.org/2000/svg" xmlns:xlink="http://www.w3.org/1999/xlink" clip-rule="evenodd" stroke-miterlimit="10" viewBox="0 0 446 53"><desc>SVG generated by Keynote</desc><defs></defs><g transform="matrix(1.00, 0.00, -0.00, -1.00, 0.0, 53.0)"><text xml:space="preserve" font-family="Monaco,Monaco" font-size="50.0" fill="#7ADA45" transform="matrix(1.00, 0.00, -0.00, -1.00, -1.5, 11.1)">h</text><text xml:space="preserve" font-family="Monaco,Monaco" font-size="50.0" fill="#7ADA45" transform="matrix(1.00, 0.00, -0.00, -1.00, 28.5, 11.1)">a</text><text xml:space="preserve" font-family="Monaco,Monaco" font-size="50.0" fill="#7ADA45" transform="matrix(1.00, 0.00, -0.00, -1.00, 58.5, 11.1)">s</text><text xml:space="preserve" font-family="Monaco,Monaco" font-size="50.0" fill="#7ADA45" transform="matrix(1.00, 0.00, -0.00, -1.00, 88.5, 11.1)">h</text><text xml:space="preserve" font-family="Monaco,Monaco" font-size="50.0" fill="#7ADA45" transform="matrix(1.00, 0.00, -0.00, -1.00, 118.5, 11.1)">.</text><text xml:space="preserve" font-family="Monaco,Monaco" font-size="50.0" fill="#7ADA45" transform="matrix(1.00, 0.00, -0.00, -1.00, 148.5, 11.1)">f</text><text xml:space="preserve" font-family="Monaco,Monaco" font-size="50.0" fill="#7ADA45" transform="matrix(1.00, 0.00, -0.00, -1.00, 178.5, 11.1)">e</text><text xml:space="preserve" font-family="Monaco,Monaco" font-size="50.0" fill="#7ADA45" transform="matrix(1.00, 0.00, -0.00, -1.00, 208.5, 11.1)">t</text><text xml:space="preserve" font-family="Monaco,Monaco" font-size="50.0" fill="#7ADA45" transform="matrix(1.00, 0.00, -0.00, -1.00, 238.5, 11.1)">c</text><text xml:space="preserve" font-family="Monaco,Monaco" font-size="50.0" fill="#7ADA45" transform="matrix(1.00, 0.00, -0.00, -1.00, 268.6, 11.1)">h</text><text xml:space="preserve" font-family="Monaco,Monaco" font-size="50.0" fill="#7ADA45" transform="matrix(1.00, 0.00, -0.00, -1.00, 298.6, 11.1)">(</text><text xml:space="preserve" font-family="Monaco,Monaco" font-size="50.0" fill="#7ADA45" transform="matrix(1.00, 0.00, -0.00, -1.00, 328.6, 11.1)">“</text><text xml:space="preserve" font-family="Monaco,Monaco" font-size="50.0" fill="#7ADA45" transform="matrix(1.00, 0.00, -0.00, -1.00, 358.6, 11.1)">4</text><text xml:space="preserve" font-family="Monaco,Monaco" font-size="50.0" fill="#7ADA45" transform="matrix(1.00, 0.00, -0.00, -1.00, 388.6, 11.1)">”</text><text xml:space="preserve" font-family="Monaco,Monaco" font-size="50.0" fill="#7ADA45" transform="matrix(1.00, 0.00, -0.00, -1.00, 418.6, 11.1)">)</text></g></svg>