<?xml version="1.0" encoding="UTF-8" standalone="no"?><svg xmlns="http://www.w3.org/2000/svg" xmlns:xlink="http://www.w3.org/1999/xlink" clip-rule="evenodd" stroke-miterlimit="10" viewBox="0 0 560 41"><desc>SVG generated by Keynote</desc><defs></defs><g transform="matrix(1.00, 0.00, -0.00, -1.00, 0.0, 41.0)"><text xml:space="preserve" font-family="Monaco,Monaco" font-size="36.0" fill="#7ADA45" transform="matrix(1.00, 0.00, -0.00, -1.00, -0.2, 10.5)">h</text><text xml:space="preserve" font-family="Monaco,Monaco" font-size="36.0" fill="#7ADA45" transform="matrix(1.00, 0.00, -0.00, -1.00, 21.4, 10.5)">a</text><text xml:space="preserve" font-family="Monaco,Monaco" font-size="36.0" fill="#7ADA45" transform="matrix(1.00, 0.00, -0.00, -1.00, 43.0, 10.5)">s</text><text xml:space="preserve" font-family="Monaco,Monaco" font-size="36.0" fill="#7ADA45" transform="matrix(1.00, 0.00, -0.00, -1.00, 64.6, 10.5)">h</text><text xml:space="preserve" font-family="Monaco,Monaco" font-size="36.0" fill="#7ADA45" transform="matrix(1.00, 0.00, -0.00, -1.00, 86.3, 10.5)">[</text><text xml:space="preserve" font-family="Monaco,Monaco" font-size="36.0" fill="#7ADA45" transform="matrix(1.00, 0.00, -0.00, -1.00, 107.9, 10.5)"> </text><text xml:space="preserve" font-family="Monaco,Monaco" font-size="36.0" fill="#7ADA45" transform="matrix(1.00, 0.00, -0.00, -1.00, 129.5, 10.5)">1</text><text xml:space="preserve" font-family="Monaco,Monaco" font-size="36.0" fill="#7ADA45" transform="matrix(1.00, 0.00, -0.00, -1.00, 151.1, 10.5)"> </text><text xml:space="preserve" font-family="Monaco,Monaco" font-size="36.0" fill="#7ADA45" transform="matrix(1.00, 0.00, -0.00, -1.00, 172.7, 10.5)">]</text><text xml:space="preserve" font-family="Monaco,Monaco" font-size="36.0" fill="#7ADA45" transform="matrix(1.00, 0.00, -0.00, -1.00, 194.3, 10.5)"> </text><text xml:space="preserve" font-family="Monaco,Monaco" font-size="36.0" fill="#7ADA45" transform="matrix(1.00, 0.00, -0.00, -1.00, 215.9, 10.5)">#</text><text xml:space="preserve" font-family="Monaco,Monaco" font-size="36.0" fill="#7ADA45" transform="matrix(1.00, 0.00, -0.00, -1.00, 237.5, 10.5)">=</text><text xml:space="preserve" font-family="Monaco,Monaco" font-size="36.0" fill="#7ADA45" transform="matrix(1.00, 0.00, -0.00, -1.00, 259.1, 10.5)">&gt;</text><text xml:space="preserve" font-family="Monaco,Monaco" font-size="36.0" fill="#7ADA45" transform="matrix(1.00, 0.00, -0.00, -1.00, 280.7, 10.5)"> </text><text xml:space="preserve" font-family="Monaco,Monaco" font-size="36.0" fill="#7ADA45" transform="matrix(1.00, 0.00, -0.00, -1.00, 302.3, 10.5)">“</text><text xml:space="preserve" font-family="Monaco,Monaco" font-size="36.0" fill="#7ADA45" transform="matrix(1.00, 0.00, -0.00, -1.00, 323.9, 10.5)">H</text><text xml:space="preserve" font-family="Monaco,Monaco" font-size="36.0" fill="#7ADA45" transform="matrix(1.00, 0.00, -0.00, -1.00, 345.5, 10.5)">i</text><text xml:space="preserve" font-family="Monaco,Monaco" font-size="36.0" fill="#7ADA45" transform="matrix(1.00, 0.00, -0.00, -1.00, 367.1, 10.5)">g</text><text xml:space="preserve" font-family="Monaco,Monaco" font-size="36.0" fill="#7ADA45" transform="matrix(1.00, 0.00, -0.00, -1.00, 388.8, 10.5)">h</text><text xml:space="preserve" font-family="Monaco,Monaco" font-size="36.0" fill="#7ADA45" transform="matrix(1.00, 0.00, -0.00, -1.00, 410.4, 10.5)">l</text><text xml:space="preserve" font-family="Monaco,Monaco" font-size="36.0" fill="#7ADA45" transform="matrix(1.00, 0.00, -0.00, -1.00, 432.0, 10.5)">a</text><text xml:space="preserve" font-family="Monaco,Monaco" font-size="36.0" fill="#7ADA45" transform="matrix(1.00, 0.00, -0.00, -1.00, 453.6, 10.5)">n</text><text xml:space="preserve" font-family="Monaco,Monaco" font-size="36.0" fill="#7ADA45" transform="matrix(1.00, 0.00, -0.00, -1.00, 475.2, 10.5)">d</text><text xml:space="preserve" font-family="Monaco,Monaco" font-size="36.0" fill="#7ADA45" transform="matrix(1.00, 0.00, -0.00, -1.00, 496.8, 10.5)">e</text><text xml:space="preserve" font-family="Monaco,Monaco" font-size="36.0" fill="#7ADA45" transform="matrix(1.00, 0.00, -0.00, -1.00, 518.4, 10.5)">r</text><text xml:space="preserve" font-family="Monaco,Monaco" font-size="36.0" fill="#7ADA45" transform="matrix(1.00, 0.00, -0.00, -1.00, 540.0, 10.5)">”</text></g></svg>