<?xml version="1.0" encoding="UTF-8" standalone="no"?><svg xmlns="http://www.w3.org/2000/svg" xmlns:xlink="http://www.w3.org/1999/xlink" clip-rule="evenodd" stroke-miterlimit="10" viewBox="0 0 560 39"><desc>SVG generated by Keynote</desc><defs></defs><g transform="matrix(1.00, 0.00, -0.00, -1.00, 0.0, 39.0)"><text xml:space="preserve" font-family="Monaco,Monaco" font-size="36.0" fill="#7ADA45" transform="matrix(1.00, 0.00, -0.00, -1.00, -0.2, 8.9)">h</text><text xml:space="preserve" font-family="Monaco,Monaco" font-size="36.0" fill="#7ADA45" transform="matrix(1.00, 0.00, -0.00, -1.00, 21.4, 8.9)">a</text><text xml:space="preserve" font-family="Monaco,Monaco" font-size="36.0" fill="#7ADA45" transform="matrix(1.00, 0.00, -0.00, -1.00, 43.0, 8.9)">s</text><text xml:space="preserve" font-family="Monaco,Monaco" font-size="36.0" fill="#7ADA45" transform="matrix(1.00, 0.00, -0.00, -1.00, 64.6, 8.9)">h</text><text xml:space="preserve" font-family="Monaco,Monaco" font-size="36.0" fill="#7ADA45" transform="matrix(1.00, 0.00, -0.00, -1.00, 86.3, 8.9)">[</text><text xml:space="preserve" font-family="Monaco,Monaco" font-size="36.0" fill="#7ADA45" transform="matrix(1.00, 0.00, -0.00, -1.00, 107.9, 8.9)"> </text><text xml:space="preserve" font-family="Monaco,Monaco" font-size="36.0" fill="#7ADA45" transform="matrix(1.00, 0.00, -0.00, -1.00, 129.5, 8.9)">3</text><text xml:space="preserve" font-family="Monaco,Monaco" font-size="36.0" fill="#7ADA45" transform="matrix(1.00, 0.00, -0.00, -1.00, 151.1, 8.9)"> </text><text xml:space="preserve" font-family="Monaco,Monaco" font-size="36.0" fill="#7ADA45" transform="matrix(1.00, 0.00, -0.00, -1.00, 172.7, 8.9)">]</text><text xml:space="preserve" font-family="Monaco,Monaco" font-size="36.0" fill="#7ADA45" transform="matrix(1.00, 0.00, -0.00, -1.00, 194.3, 8.9)"> </text><text xml:space="preserve" font-family="Monaco,Monaco" font-size="36.0" fill="#7ADA45" transform="matrix(1.00, 0.00, -0.00, -1.00, 215.9, 8.9)">#</text><text xml:space="preserve" font-family="Monaco,Monaco" font-size="36.0" fill="#7ADA45" transform="matrix(1.00, 0.00, -0.00, -1.00, 237.5, 8.9)">=</text><text xml:space="preserve" font-family="Monaco,Monaco" font-size="36.0" fill="#7ADA45" transform="matrix(1.00, 0.00, -0.00, -1.00, 259.1, 8.9)">&gt;</text><text xml:space="preserve" font-family="Monaco,Monaco" font-size="36.0" fill="#7ADA45" transform="matrix(1.00, 0.00, -0.00, -1.00, 280.7, 8.9)"> </text><text xml:space="preserve" font-family="Monaco,Monaco" font-size="36.0" fill="#7ADA45" transform="matrix(1.00, 0.00, -0.00, -1.00, 302.3, 8.9)">“</text><text xml:space="preserve" font-family="Monaco,Monaco" font-size="36.0" fill="#7ADA45" transform="matrix(1.00, 0.00, -0.00, -1.00, 323.9, 8.9)">b</text><text xml:space="preserve" font-family="Monaco,Monaco" font-size="36.0" fill="#7ADA45" transform="matrix(1.00, 0.00, -0.00, -1.00, 345.5, 8.9)">l</text><text xml:space="preserve" font-family="Monaco,Monaco" font-size="36.0" fill="#7ADA45" transform="matrix(1.00, 0.00, -0.00, -1.00, 367.1, 8.9)">i</text><text xml:space="preserve" font-family="Monaco,Monaco" font-size="36.0" fill="#7ADA45" transform="matrix(1.00, 0.00, -0.00, -1.00, 388.8, 8.9)">n</text><text xml:space="preserve" font-family="Monaco,Monaco" font-size="36.0" fill="#7ADA45" transform="matrix(1.00, 0.00, -0.00, -1.00, 410.4, 8.9)">d</text><text xml:space="preserve" font-family="Monaco,Monaco" font-size="36.0" fill="#7ADA45" transform="matrix(1.00, 0.00, -0.00, -1.00, 432.0, 8.9)"> </text><text xml:space="preserve" font-family="Monaco,Monaco" font-size="36.0" fill="#7ADA45" transform="matrix(1.00, 0.00, -0.00, -1.00, 453.6, 8.9)">m</text><text xml:space="preserve" font-family="Monaco,Monaco" font-size="36.0" fill="#7ADA45" transform="matrix(1.00, 0.00, -0.00, -1.00, 475.2, 8.9)">i</text><text xml:space="preserve" font-family="Monaco,Monaco" font-size="36.0" fill="#7ADA45" transform="matrix(1.00, 0.00, -0.00, -1.00, 496.8, 8.9)">c</text><text xml:space="preserve" font-family="Monaco,Monaco" font-size="36.0" fill="#7ADA45" transform="matrix(1.00, 0.00, -0.00, -1.00, 518.4, 8.9)">e</text><text xml:space="preserve" font-family="Monaco,Monaco" font-size="36.0" fill="#7ADA45" transform="matrix(1.00, 0.00, -0.00, -1.00, 540.0, 8.9)">”</text></g></svg>