<?xml version="1.0" encoding="UTF-8" standalone="no"?><svg xmlns="http://www.w3.org/2000/svg" xmlns:xlink="http://www.w3.org/1999/xlink" clip-rule="evenodd" stroke-miterlimit="10" viewBox="0 0 1024 768"><desc>SVG generated by Keynote</desc><defs></defs><g transform="matrix(1.00, 0.00, -0.00, -1.00, 0.0, 768.0)"><path d="M 0.0 768.0 L 1024.0 768.0 L 1024.0 0.0 L 0.0 0.0 Z M 0.0 768.0 " fill="#000000"></path><text xml:space="preserve" font-family="Helvetica-Light,Helvetica" font-size="80.0" fill="#FEFFFF" transform="matrix(1.00, 0.00, -0.00, -1.00, 307.4, 633.4)">H</text><text xml:space="preserve" font-family="Helvetica-Light,Helvetica" font-size="80.0" fill="#FEFFFF" transform="matrix(1.00, 0.00, -0.00, -1.00, 365.2, 633.4)">a</text><text xml:space="preserve" font-family="Helvetica-Light,Helvetica" font-size="80.0" fill="#FEFFFF" transform="matrix(1.00, 0.00, -0.00, -1.00, 409.7, 633.4)">s</text><text xml:space="preserve" font-family="Helvetica-Light,Helvetica" font-size="80.0" fill="#FEFFFF" transform="matrix(1.00, 0.00, -0.00, -1.00, 449.7, 633.4)">h</text><text xml:space="preserve" font-family="Helvetica-Light,Helvetica" font-size="80.0" fill="#FEFFFF" transform="matrix(1.00, 0.00, -0.00, -1.00, 494.2, 633.4)">#</text><text xml:space="preserve" font-family="Helvetica-Light,Helvetica" font-size="80.0" fill="#FEFFFF" transform="matrix(1.00, 0.00, -0.00, -1.00, 538.6, 633.4)">f</text><text xml:space="preserve" font-family="Helvetica-Light,Helvetica" font-size="80.0" fill="#FEFFFF" transform="matrix(1.00, 0.00, -0.00, -1.00, 560.9, 633.4)">e</text><text xml:space="preserve" font-family="Helvetica-Light,Helvetica" font-size="80.0" fill="#FEFFFF" transform="matrix(1.00, 0.00, -0.00, -1.00, 605.4, 633.4)">t</text><text xml:space="preserve" font-family="Helvetica-Light,Helvetica" font-size="80.0" fill="#FEFFFF" transform="matrix(1.00, 0.00, -0.00, -1.00, 627.6, 633.4)">c</text><text xml:space="preserve" font-family="Helvetica-Light,Helvetica" font-size="80.0" fill="#FEFFFF" transform="matrix(1.00, 0.00, -0.00, -1.00, 672.1, 633.4)">h</text><text xml:space="preserve" font-family="Monaco,Monaco" font-size="36.0" fill="#7ADA45" transform="matrix(1.00, 0.00, -0.00, -1.00, 184.7, 580.1)">{</text><text xml:space="preserve" font-family="Monaco,Monaco" font-size="36.0" fill="#7ADA45" transform="matrix(1.00, 0.00, -0.00, -1.00, 206.3, 580.1)">	</text><text xml:space="preserve" font-family="Monaco,Monaco" font-size="36.0" fill="#7ADA45" transform="matrix(1.00, 0.00, -0.00, -1.00, 184.7, 532.1)"> </text><text xml:space="preserve" font-family="Monaco,Monaco" font-size="36.0" fill="#7ADA45" transform="matrix(1.00, 0.00, -0.00, -1.00, 206.3, 532.1)"> </text><text xml:space="preserve" font-family="Monaco,Monaco" font-size="36.0" fill="#7ADA45" transform="matrix(1.00, 0.00, -0.00, -1.00, 227.9, 532.1)">1</text><text xml:space="preserve" font-family="Monaco,Monaco" font-size="36.0" fill="#7ADA45" transform="matrix(1.00, 0.00, -0.00, -1.00, 249.5, 532.1)"> </text><text xml:space="preserve" font-family="Monaco,Monaco" font-size="36.0" fill="#7ADA45" transform="matrix(1.00, 0.00, -0.00, -1.00, 271.1, 532.1)">=</text><text xml:space="preserve" font-family="Monaco,Monaco" font-size="36.0" fill="#7ADA45" transform="matrix(1.00, 0.00, -0.00, -1.00, 292.7, 532.1)">&gt;</text><text xml:space="preserve" font-family="Monaco,Monaco" font-size="36.0" fill="#7ADA45" transform="matrix(1.00, 0.00, -0.00, -1.00, 314.3, 532.1)"> </text><text xml:space="preserve" font-family="Monaco,Monaco" font-size="36.0" fill="#7ADA45" transform="matrix(1.00, 0.00, -0.00, -1.00, 335.9, 532.1)">"</text><text xml:space="preserve" font-family="Monaco,Monaco" font-size="36.0" fill="#7ADA45" transform="matrix(1.00, 0.00, -0.00, -1.00, 357.5, 532.1)">H</text><text xml:space="preserve" font-family="Monaco,Monaco" font-size="36.0" fill="#7ADA45" transform="matrix(1.00, 0.00, -0.00, -1.00, 379.1, 532.1)">i</text><text xml:space="preserve" font-family="Monaco,Monaco" font-size="36.0" fill="#7ADA45" transform="matrix(1.00, 0.00, -0.00, -1.00, 400.8, 532.1)">g</text><text xml:space="preserve" font-family="Monaco,Monaco" font-size="36.0" fill="#7ADA45" transform="matrix(1.00, 0.00, -0.00, -1.00, 422.4, 532.1)">h</text><text xml:space="preserve" font-family="Monaco,Monaco" font-size="36.0" fill="#7ADA45" transform="matrix(1.00, 0.00, -0.00, -1.00, 444.0, 532.1)">l</text><text xml:space="preserve" font-family="Monaco,Monaco" font-size="36.0" fill="#7ADA45" transform="matrix(1.00, 0.00, -0.00, -1.00, 465.6, 532.1)">a</text><text xml:space="preserve" font-family="Monaco,Monaco" font-size="36.0" fill="#7ADA45" transform="matrix(1.00, 0.00, -0.00, -1.00, 487.2, 532.1)">n</text><text xml:space="preserve" font-family="Monaco,Monaco" font-size="36.0" fill="#7ADA45" transform="matrix(1.00, 0.00, -0.00, -1.00, 508.8, 532.1)">d</text><text xml:space="preserve" font-family="Monaco,Monaco" font-size="36.0" fill="#7ADA45" transform="matrix(1.00, 0.00, -0.00, -1.00, 530.4, 532.1)">e</text><text xml:space="preserve" font-family="Monaco,Monaco" font-size="36.0" fill="#7ADA45" transform="matrix(1.00, 0.00, -0.00, -1.00, 552.0, 532.1)">r</text><text xml:space="preserve" font-family="Monaco,Monaco" font-size="36.0" fill="#7ADA45" transform="matrix(1.00, 0.00, -0.00, -1.00, 573.6, 532.1)">"</text><text xml:space="preserve" font-family="Monaco,Monaco" font-size="36.0" fill="#7ADA45" transform="matrix(1.00, 0.00, -0.00, -1.00, 595.2, 532.1)">,</text><text xml:space="preserve" font-family="Monaco,Monaco" font-size="36.0" fill="#7ADA45" transform="matrix(1.00, 0.00, -0.00, -1.00, 616.8, 532.1)">	</text><text xml:space="preserve" font-family="Monaco,Monaco" font-size="36.0" fill="#7ADA45" transform="matrix(1.00, 0.00, -0.00, -1.00, 184.7, 484.1)"> </text><text xml:space="preserve" font-family="Monaco,Monaco" font-size="36.0" fill="#7ADA45" transform="matrix(1.00, 0.00, -0.00, -1.00, 206.3, 484.1)"> </text><text xml:space="preserve" font-family="Monaco,Monaco" font-size="36.0" fill="#7ADA45" transform="matrix(1.00, 0.00, -0.00, -1.00, 227.9, 484.1)">2</text><text xml:space="preserve" font-family="Monaco,Monaco" font-size="36.0" fill="#7ADA45" transform="matrix(1.00, 0.00, -0.00, -1.00, 249.5, 484.1)"> </text><text xml:space="preserve" font-family="Monaco,Monaco" font-size="36.0" fill="#7ADA45" transform="matrix(1.00, 0.00, -0.00, -1.00, 271.1, 484.1)">=</text><text xml:space="preserve" font-family="Monaco,Monaco" font-size="36.0" fill="#7ADA45" transform="matrix(1.00, 0.00, -0.00, -1.00, 292.7, 484.1)">&gt;</text><text xml:space="preserve" font-family="Monaco,Monaco" font-size="36.0" fill="#7ADA45" transform="matrix(1.00, 0.00, -0.00, -1.00, 314.3, 484.1)"> </text><text xml:space="preserve" font-family="Monaco,Monaco" font-size="36.0" fill="#7ADA45" transform="matrix(1.00, 0.00, -0.00, -1.00, 335.9, 484.1)">"</text><text xml:space="preserve" font-family="Monaco,Monaco" font-size="36.0" fill="#7ADA45" transform="matrix(1.00, 0.00, -0.00, -1.00, 357.5, 484.1)">R</text><text xml:space="preserve" font-family="Monaco,Monaco" font-size="36.0" fill="#7ADA45" transform="matrix(1.00, 0.00, -0.00, -1.00, 379.1, 484.1)">e</text><text xml:space="preserve" font-family="Monaco,Monaco" font-size="36.0" fill="#7ADA45" transform="matrix(1.00, 0.00, -0.00, -1.00, 400.8, 484.1)">e</text><text xml:space="preserve" font-family="Monaco,Monaco" font-size="36.0" fill="#7ADA45" transform="matrix(1.00, 0.00, -0.00, -1.00, 422.4, 484.1)">c</text><text xml:space="preserve" font-family="Monaco,Monaco" font-size="36.0" fill="#7ADA45" transform="matrix(1.00, 0.00, -0.00, -1.00, 444.0, 484.1)">e</text><text xml:space="preserve" font-family="Monaco,Monaco" font-size="36.0" fill="#7ADA45" transform="matrix(1.00, 0.00, -0.00, -1.00, 465.6, 484.1)">'</text><text xml:space="preserve" font-family="Monaco,Monaco" font-size="36.0" fill="#7ADA45" transform="matrix(1.00, 0.00, -0.00, -1.00, 487.2, 484.1)">s</text><text xml:space="preserve" font-family="Monaco,Monaco" font-size="36.0" fill="#7ADA45" transform="matrix(1.00, 0.00, -0.00, -1.00, 508.8, 484.1)"> </text><text xml:space="preserve" font-family="Monaco,Monaco" font-size="36.0" fill="#7ADA45" transform="matrix(1.00, 0.00, -0.00, -1.00, 530.4, 484.1)">P</text><text xml:space="preserve" font-family="Monaco,Monaco" font-size="36.0" fill="#7ADA45" transform="matrix(1.00, 0.00, -0.00, -1.00, 552.0, 484.1)">e</text><text xml:space="preserve" font-family="Monaco,Monaco" font-size="36.0" fill="#7ADA45" transform="matrix(1.00, 0.00, -0.00, -1.00, 573.6, 484.1)">a</text><text xml:space="preserve" font-family="Monaco,Monaco" font-size="36.0" fill="#7ADA45" transform="matrix(1.00, 0.00, -0.00, -1.00, 595.2, 484.1)">n</text><text xml:space="preserve" font-family="Monaco,Monaco" font-size="36.0" fill="#7ADA45" transform="matrix(1.00, 0.00, -0.00, -1.00, 616.8, 484.1)">u</text><text xml:space="preserve" font-family="Monaco,Monaco" font-size="36.0" fill="#7ADA45" transform="matrix(1.00, 0.00, -0.00, -1.00, 638.4, 484.1)">t</text><text xml:space="preserve" font-family="Monaco,Monaco" font-size="36.0" fill="#7ADA45" transform="matrix(1.00, 0.00, -0.00, -1.00, 660.0, 484.1)"> </text><text xml:space="preserve" font-family="Monaco,Monaco" font-size="36.0" fill="#7ADA45" transform="matrix(1.00, 0.00, -0.00, -1.00, 681.6, 484.1)">B</text><text xml:space="preserve" font-family="Monaco,Monaco" font-size="36.0" fill="#7ADA45" transform="matrix(1.00, 0.00, -0.00, -1.00, 703.3, 484.1)">u</text><text xml:space="preserve" font-family="Monaco,Monaco" font-size="36.0" fill="#7ADA45" transform="matrix(1.00, 0.00, -0.00, -1.00, 724.9, 484.1)">t</text><text xml:space="preserve" font-family="Monaco,Monaco" font-size="36.0" fill="#7ADA45" transform="matrix(1.00, 0.00, -0.00, -1.00, 746.5, 484.1)">t</text><text xml:space="preserve" font-family="Monaco,Monaco" font-size="36.0" fill="#7ADA45" transform="matrix(1.00, 0.00, -0.00, -1.00, 768.1, 484.1)">e</text><text xml:space="preserve" font-family="Monaco,Monaco" font-size="36.0" fill="#7ADA45" transform="matrix(1.00, 0.00, -0.00, -1.00, 789.7, 484.1)">r</text><text xml:space="preserve" font-family="Monaco,Monaco" font-size="36.0" fill="#7ADA45" transform="matrix(1.00, 0.00, -0.00, -1.00, 811.3, 484.1)"> </text><text xml:space="preserve" font-family="Monaco,Monaco" font-size="36.0" fill="#7ADA45" transform="matrix(1.00, 0.00, -0.00, -1.00, 832.9, 484.1)">C</text><text xml:space="preserve" font-family="Monaco,Monaco" font-size="36.0" fill="#7ADA45" transform="matrix(1.00, 0.00, -0.00, -1.00, 854.5, 484.1)">u</text><text xml:space="preserve" font-family="Monaco,Monaco" font-size="36.0" fill="#7ADA45" transform="matrix(1.00, 0.00, -0.00, -1.00, 876.0, 484.1)">p</text><text xml:space="preserve" font-family="Monaco,Monaco" font-size="36.0" fill="#7ADA45" transform="matrix(1.00, 0.00, -0.00, -1.00, 897.6, 484.1)">s</text><text xml:space="preserve" font-family="Monaco,Monaco" font-size="36.0" fill="#7ADA45" transform="matrix(1.00, 0.00, -0.00, -1.00, 919.2, 484.1)">"</text><text xml:space="preserve" font-family="Monaco,Monaco" font-size="36.0" fill="#7ADA45" transform="matrix(1.00, 0.00, -0.00, -1.00, 940.8, 484.1)">,</text><text xml:space="preserve" font-family="Monaco,Monaco" font-size="36.0" fill="#7ADA45" transform="matrix(1.00, 0.00, -0.00, -1.00, 962.4, 484.1)">	</text><text xml:space="preserve" font-family="Monaco,Monaco" font-size="36.0" fill="#7ADA45" transform="matrix(1.00, 0.00, -0.00, -1.00, 184.7, 436.1)"> </text><text xml:space="preserve" font-family="Monaco,Monaco" font-size="36.0" fill="#7ADA45" transform="matrix(1.00, 0.00, -0.00, -1.00, 206.3, 436.1)"> </text><text xml:space="preserve" font-family="Monaco,Monaco" font-size="36.0" fill="#7ADA45" transform="matrix(1.00, 0.00, -0.00, -1.00, 227.9, 436.1)">3</text><text xml:space="preserve" font-family="Monaco,Monaco" font-size="36.0" fill="#7ADA45" transform="matrix(1.00, 0.00, -0.00, -1.00, 249.5, 436.1)"> </text><text xml:space="preserve" font-family="Monaco,Monaco" font-size="36.0" fill="#7ADA45" transform="matrix(1.00, 0.00, -0.00, -1.00, 271.1, 436.1)">=</text><text xml:space="preserve" font-family="Monaco,Monaco" font-size="36.0" fill="#7ADA45" transform="matrix(1.00, 0.00, -0.00, -1.00, 292.7, 436.1)">&gt;</text><text xml:space="preserve" font-family="Monaco,Monaco" font-size="36.0" fill="#7ADA45" transform="matrix(1.00, 0.00, -0.00, -1.00, 314.3, 436.1)"> </text><text xml:space="preserve" font-family="Monaco,Monaco" font-size="36.0" fill="#7ADA45" transform="matrix(1.00, 0.00, -0.00, -1.00, 335.9, 436.1)">"</text><text xml:space="preserve" font-family="Monaco,Monaco" font-size="36.0" fill="#7ADA45" transform="matrix(1.00, 0.00, -0.00, -1.00, 357.5, 436.1)">b</text><text xml:space="preserve" font-family="Monaco,Monaco" font-size="36.0" fill="#7ADA45" transform="matrix(1.00, 0.00, -0.00, -1.00, 379.1, 436.1)">l</text><text xml:space="preserve" font-family="Monaco,Monaco" font-size="36.0" fill="#7ADA45" transform="matrix(1.00, 0.00, -0.00, -1.00, 400.8, 436.1)">i</text><text xml:space="preserve" font-family="Monaco,Monaco" font-size="36.0" fill="#7ADA45" transform="matrix(1.00, 0.00, -0.00, -1.00, 422.4, 436.1)">n</text><text xml:space="preserve" font-family="Monaco,Monaco" font-size="36.0" fill="#7ADA45" transform="matrix(1.00, 0.00, -0.00, -1.00, 444.0, 436.1)">d</text><text xml:space="preserve" font-family="Monaco,Monaco" font-size="36.0" fill="#7ADA45" transform="matrix(1.00, 0.00, -0.00, -1.00, 465.6, 436.1)"> </text><text xml:space="preserve" font-family="Monaco,Monaco" font-size="36.0" fill="#7ADA45" transform="matrix(1.00, 0.00, -0.00, -1.00, 487.2, 436.1)">m</text><text xml:space="preserve" font-family="Monaco,Monaco" font-size="36.0" fill="#7ADA45" transform="matrix(1.00, 0.00, -0.00, -1.00, 508.8, 436.1)">i</text><text xml:space="preserve" font-family="Monaco,Monaco" font-size="36.0" fill="#7ADA45" transform="matrix(1.00, 0.00, -0.00, -1.00, 530.4, 436.1)">c</text><text xml:space="preserve" font-family="Monaco,Monaco" font-size="36.0" fill="#7ADA45" transform="matrix(1.00, 0.00, -0.00, -1.00, 552.0, 436.1)">e</text><text xml:space="preserve" font-family="Monaco,Monaco" font-size="36.0" fill="#7ADA45" transform="matrix(1.00, 0.00, -0.00, -1.00, 573.6, 436.1)">"</text><text xml:space="preserve" font-family="Monaco,Monaco" font-size="36.0" fill="#7ADA45" transform="matrix(1.00, 0.00, -0.00, -1.00, 595.2, 436.1)">,</text><text xml:space="preserve" font-family="Monaco,Monaco" font-size="36.0" fill="#7ADA45" transform="matrix(1.00, 0.00, -0.00, -1.00, 616.8, 436.1)">	</text><text xml:space="preserve" font-family="Monaco,Monaco" font-size="36.0" fill="#7ADA45" transform="matrix(1.00, 0.00, -0.00, -1.00, 184.7, 388.1)"> </text><text xml:space="preserve" font-family="Monaco,Monaco" font-size="36.0" fill="#7ADA45" transform="matrix(1.00, 0.00, -0.00, -1.00, 206.3, 388.1)"> </text><text xml:space="preserve" font-family="Monaco,Monaco" font-size="36.0" fill="#7ADA45" transform="matrix(1.00, 0.00, -0.00, -1.00, 227.9, 388.1)">4</text><text xml:space="preserve" font-family="Monaco,Monaco" font-size="36.0" fill="#7ADA45" transform="matrix(1.00, 0.00, -0.00, -1.00, 249.5, 388.1)"> </text><text xml:space="preserve" font-family="Monaco,Monaco" font-size="36.0" fill="#7ADA45" transform="matrix(1.00, 0.00, -0.00, -1.00, 271.1, 388.1)">=</text><text xml:space="preserve" font-family="Monaco,Monaco" font-size="36.0" fill="#7ADA45" transform="matrix(1.00, 0.00, -0.00, -1.00, 292.7, 388.1)">&gt;</text><text xml:space="preserve" font-family="Monaco,Monaco" font-size="36.0" fill="#7ADA45" transform="matrix(1.00, 0.00, -0.00, -1.00, 314.3, 388.1)"> </text><text xml:space="preserve" font-family="Monaco,Monaco" font-size="36.0" fill="#7ADA45" transform="matrix(1.00, 0.00, -0.00, -1.00, 335.9, 388.1)">"</text><text xml:space="preserve" font-family="Monaco,Monaco" font-size="36.0" fill="#7ADA45" transform="matrix(1.00, 0.00, -0.00, -1.00, 357.5, 388.1)">n</text><text xml:space="preserve" font-family="Monaco,Monaco" font-size="36.0" fill="#7ADA45" transform="matrix(1.00, 0.00, -0.00, -1.00, 379.1, 388.1)">i</text><text xml:space="preserve" font-family="Monaco,Monaco" font-size="36.0" fill="#7ADA45" transform="matrix(1.00, 0.00, -0.00, -1.00, 400.8, 388.1)">n</text><text xml:space="preserve" font-family="Monaco,Monaco" font-size="36.0" fill="#7ADA45" transform="matrix(1.00, 0.00, -0.00, -1.00, 422.4, 388.1)">j</text><text xml:space="preserve" font-family="Monaco,Monaco" font-size="36.0" fill="#7ADA45" transform="matrix(1.00, 0.00, -0.00, -1.00, 444.0, 388.1)">a</text><text xml:space="preserve" font-family="Monaco,Monaco" font-size="36.0" fill="#7ADA45" transform="matrix(1.00, 0.00, -0.00, -1.00, 465.6, 388.1)"> </text><text xml:space="preserve" font-family="Monaco,Monaco" font-size="36.0" fill="#7ADA45" transform="matrix(1.00, 0.00, -0.00, -1.00, 487.2, 388.1)">t</text><text xml:space="preserve" font-family="Monaco,Monaco" font-size="36.0" fill="#7ADA45" transform="matrix(1.00, 0.00, -0.00, -1.00, 508.8, 388.1)">u</text><text xml:space="preserve" font-family="Monaco,Monaco" font-size="36.0" fill="#7ADA45" transform="matrix(1.00, 0.00, -0.00, -1.00, 530.4, 388.1)">r</text><text xml:space="preserve" font-family="Monaco,Monaco" font-size="36.0" fill="#7ADA45" transform="matrix(1.00, 0.00, -0.00, -1.00, 552.0, 388.1)">t</text><text xml:space="preserve" font-family="Monaco,Monaco" font-size="36.0" fill="#7ADA45" transform="matrix(1.00, 0.00, -0.00, -1.00, 573.6, 388.1)">l</text><text xml:space="preserve" font-family="Monaco,Monaco" font-size="36.0" fill="#7ADA45" transform="matrix(1.00, 0.00, -0.00, -1.00, 595.2, 388.1)">e</text><text xml:space="preserve" font-family="Monaco,Monaco" font-size="36.0" fill="#7ADA45" transform="matrix(1.00, 0.00, -0.00, -1.00, 616.8, 388.1)">s</text><text xml:space="preserve" font-family="Monaco,Monaco" font-size="36.0" fill="#7ADA45" transform="matrix(1.00, 0.00, -0.00, -1.00, 638.4, 388.1)">"</text><text xml:space="preserve" font-family="Monaco,Monaco" font-size="36.0" fill="#7ADA45" transform="matrix(1.00, 0.00, -0.00, -1.00, 660.0, 388.1)">,</text><text xml:space="preserve" font-family="Monaco,Monaco" font-size="36.0" fill="#7ADA45" transform="matrix(1.00, 0.00, -0.00, -1.00, 681.6, 388.1)">	</text><text xml:space="preserve" font-family="Monaco,Monaco" font-size="36.0" fill="#7ADA45" transform="matrix(1.00, 0.00, -0.00, -1.00, 184.7, 340.1)">}</text><text xml:space="preserve" font-family="Monaco,Monaco" font-size="36.0" fill="#7ADA45" transform="matrix(1.00, 0.00, -0.00, -1.00, 39.0, 582.3)">h</text><text xml:space="preserve" font-family="Monaco,Monaco" font-size="36.0" fill="#7ADA45" transform="matrix(1.00, 0.00, -0.00, -1.00, 60.6, 582.3)">a</text><text xml:space="preserve" font-family="Monaco,Monaco" font-size="36.0" fill="#7ADA45" transform="matrix(1.00, 0.00, -0.00, -1.00, 82.2, 582.3)">s</text><text xml:space="preserve" font-family="Monaco,Monaco" font-size="36.0" fill="#7ADA45" transform="matrix(1.00, 0.00, -0.00, -1.00, 103.8, 582.3)">h</text><text xml:space="preserve" font-family="Monaco,Monaco" font-size="36.0" fill="#7ADA45" transform="matrix(1.00, 0.00, -0.00, -1.00, 125.4, 582.3)"> </text><text xml:space="preserve" font-family="Monaco,Monaco" font-size="36.0" fill="#7ADA45" transform="matrix(1.00, 0.00, -0.00, -1.00, 147.0, 582.3)">=</text><text xml:space="preserve" font-family="Monaco,Monaco" font-size="36.0" fill="#7ADA45" transform="matrix(1.00, 0.00, -0.00, -1.00, 57.8, 256.5)">h</text><text xml:space="preserve" font-family="Monaco,Monaco" font-size="36.0" fill="#7ADA45" transform="matrix(1.00, 0.00, -0.00, -1.00, 79.4, 256.5)">a</text><text xml:space="preserve" font-family="Monaco,Monaco" font-size="36.0" fill="#7ADA45" transform="matrix(1.00, 0.00, -0.00, -1.00, 101.0, 256.5)">s</text><text xml:space="preserve" font-family="Monaco,Monaco" font-size="36.0" fill="#7ADA45" transform="matrix(1.00, 0.00, -0.00, -1.00, 122.6, 256.5)">h</text><text xml:space="preserve" font-family="Monaco,Monaco" font-size="36.0" fill="#7ADA45" transform="matrix(1.00, 0.00, -0.00, -1.00, 144.3, 256.5)">[</text><text xml:space="preserve" font-family="Monaco,Monaco" font-size="36.0" fill="#7ADA45" transform="matrix(1.00, 0.00, -0.00, -1.00, 165.9, 256.5)"> </text><text xml:space="preserve" font-family="Monaco,Monaco" font-size="36.0" fill="#7ADA45" transform="matrix(1.00, 0.00, -0.00, -1.00, 187.5, 256.5)">1</text><text xml:space="preserve" font-family="Monaco,Monaco" font-size="36.0" fill="#7ADA45" transform="matrix(1.00, 0.00, -0.00, -1.00, 209.1, 256.5)"> </text><text xml:space="preserve" font-family="Monaco,Monaco" font-size="36.0" fill="#7ADA45" transform="matrix(1.00, 0.00, -0.00, -1.00, 230.7, 256.5)">]</text><text xml:space="preserve" font-family="Monaco,Monaco" font-size="36.0" fill="#7ADA45" transform="matrix(1.00, 0.00, -0.00, -1.00, 252.3, 256.5)"> </text><text xml:space="preserve" font-family="Monaco,Monaco" font-size="36.0" fill="#7ADA45" transform="matrix(1.00, 0.00, -0.00, -1.00, 273.9, 256.5)">#</text><text xml:space="preserve" font-family="Monaco,Monaco" font-size="36.0" fill="#7ADA45" transform="matrix(1.00, 0.00, -0.00, -1.00, 295.5, 256.5)">=</text><text xml:space="preserve" font-family="Monaco,Monaco" font-size="36.0" fill="#7ADA45" transform="matrix(1.00, 0.00, -0.00, -1.00, 317.1, 256.5)">&gt;</text><text xml:space="preserve" font-family="Monaco,Monaco" font-size="36.0" fill="#7ADA45" transform="matrix(1.00, 0.00, -0.00, -1.00, 338.7, 256.5)"> </text><text xml:space="preserve" font-family="Monaco,Monaco" font-size="36.0" fill="#7ADA45" transform="matrix(1.00, 0.00, -0.00, -1.00, 360.3, 256.5)">“</text><text xml:space="preserve" font-family="Monaco,Monaco" font-size="36.0" fill="#7ADA45" transform="matrix(1.00, 0.00, -0.00, -1.00, 381.9, 256.5)">H</text><text xml:space="preserve" font-family="Monaco,Monaco" font-size="36.0" fill="#7ADA45" transform="matrix(1.00, 0.00, -0.00, -1.00, 403.5, 256.5)">i</text><text xml:space="preserve" font-family="Monaco,Monaco" font-size="36.0" fill="#7ADA45" transform="matrix(1.00, 0.00, -0.00, -1.00, 425.1, 256.5)">g</text><text xml:space="preserve" font-family="Monaco,Monaco" font-size="36.0" fill="#7ADA45" transform="matrix(1.00, 0.00, -0.00, -1.00, 446.8, 256.5)">h</text><text xml:space="preserve" font-family="Monaco,Monaco" font-size="36.0" fill="#7ADA45" transform="matrix(1.00, 0.00, -0.00, -1.00, 468.4, 256.5)">l</text><text xml:space="preserve" font-family="Monaco,Monaco" font-size="36.0" fill="#7ADA45" transform="matrix(1.00, 0.00, -0.00, -1.00, 490.0, 256.5)">a</text><text xml:space="preserve" font-family="Monaco,Monaco" font-size="36.0" fill="#7ADA45" transform="matrix(1.00, 0.00, -0.00, -1.00, 511.6, 256.5)">n</text><text xml:space="preserve" font-family="Monaco,Monaco" font-size="36.0" fill="#7ADA45" transform="matrix(1.00, 0.00, -0.00, -1.00, 533.2, 256.5)">d</text><text xml:space="preserve" font-family="Monaco,Monaco" font-size="36.0" fill="#7ADA45" transform="matrix(1.00, 0.00, -0.00, -1.00, 554.8, 256.5)">e</text><text xml:space="preserve" font-family="Monaco,Monaco" font-size="36.0" fill="#7ADA45" transform="matrix(1.00, 0.00, -0.00, -1.00, 576.4, 256.5)">r</text><text xml:space="preserve" font-family="Monaco,Monaco" font-size="36.0" fill="#7ADA45" transform="matrix(1.00, 0.00, -0.00, -1.00, 598.0, 256.5)">”</text><text xml:space="preserve" font-family="Monaco,Monaco" font-size="36.0" fill="#7ADA45" transform="matrix(1.00, 0.00, -0.00, -1.00, 57.8, 112.9)">h</text><text xml:space="preserve" font-family="Monaco,Monaco" font-size="36.0" fill="#7ADA45" transform="matrix(1.00, 0.00, -0.00, -1.00, 79.4, 112.9)">a</text><text xml:space="preserve" font-family="Monaco,Monaco" font-size="36.0" fill="#7ADA45" transform="matrix(1.00, 0.00, -0.00, -1.00, 101.0, 112.9)">s</text><text xml:space="preserve" font-family="Monaco,Monaco" font-size="36.0" fill="#7ADA45" transform="matrix(1.00, 0.00, -0.00, -1.00, 122.6, 112.9)">h</text><text xml:space="preserve" font-family="Monaco,Monaco" font-size="36.0" fill="#7ADA45" transform="matrix(1.00, 0.00, -0.00, -1.00, 144.3, 112.9)">[</text><text xml:space="preserve" font-family="Monaco,Monaco" font-size="36.0" fill="#7ADA45" transform="matrix(1.00, 0.00, -0.00, -1.00, 165.9, 112.9)">“</text><text xml:space="preserve" font-family="Monaco,Monaco" font-size="36.0" fill="#7ADA45" transform="matrix(1.00, 0.00, -0.00, -1.00, 187.5, 112.9)">4</text><text xml:space="preserve" font-family="Monaco,Monaco" font-size="36.0" fill="#7ADA45" transform="matrix(1.00, 0.00, -0.00, -1.00, 209.1, 112.9)">”</text><text xml:space="preserve" font-family="Monaco,Monaco" font-size="36.0" fill="#7ADA45" transform="matrix(1.00, 0.00, -0.00, -1.00, 230.7, 112.9)">]</text><text xml:space="preserve" font-family="Monaco,Monaco" font-size="36.0" fill="#7ADA45" transform="matrix(1.00, 0.00, -0.00, -1.00, 252.3, 112.9)"> </text><text xml:space="preserve" font-family="Monaco,Monaco" font-size="36.0" fill="#7ADA45" transform="matrix(1.00, 0.00, -0.00, -1.00, 273.9, 112.9)">#</text><text xml:space="preserve" font-family="Monaco,Monaco" font-size="36.0" fill="#7ADA45" transform="matrix(1.00, 0.00, -0.00, -1.00, 295.5, 112.9)">=</text><text xml:space="preserve" font-family="Monaco,Monaco" font-size="36.0" fill="#7ADA45" transform="matrix(1.00, 0.00, -0.00, -1.00, 317.1, 112.9)">&gt;</text><text xml:space="preserve" font-family="Monaco,Monaco" font-size="36.0" fill="#7ADA45" transform="matrix(1.00, 0.00, -0.00, -1.00, 338.7, 112.9)"> </text><text xml:space="preserve" font-family="Monaco,Monaco" font-size="36.0" fill="#7ADA45" transform="matrix(1.00, 0.00, -0.00, -1.00, 360.3, 112.9)">?</text><text xml:space="preserve" font-family="Monaco,Monaco" font-size="36.0" fill="#7ADA45" transform="matrix(1.00, 0.00, -0.00, -1.00, 57.8, 207.8)">h</text><text xml:space="preserve" font-family="Monaco,Monaco" font-size="36.0" fill="#7ADA45" transform="matrix(1.00, 0.00, -0.00, -1.00, 79.4, 207.8)">a</text><text xml:space="preserve" font-family="Monaco,Monaco" font-size="36.0" fill="#7ADA45" transform="matrix(1.00, 0.00, -0.00, -1.00, 101.0, 207.8)">s</text><text xml:space="preserve" font-family="Monaco,Monaco" font-size="36.0" fill="#7ADA45" transform="matrix(1.00, 0.00, -0.00, -1.00, 122.6, 207.8)">h</text><text xml:space="preserve" font-family="Monaco,Monaco" font-size="36.0" fill="#7ADA45" transform="matrix(1.00, 0.00, -0.00, -1.00, 144.3, 207.8)">[</text><text xml:space="preserve" font-family="Monaco,Monaco" font-size="36.0" fill="#7ADA45" transform="matrix(1.00, 0.00, -0.00, -1.00, 165.9, 207.8)"> </text><text xml:space="preserve" font-family="Monaco,Monaco" font-size="36.0" fill="#7ADA45" transform="matrix(1.00, 0.00, -0.00, -1.00, 187.5, 207.8)">2</text><text xml:space="preserve" font-family="Monaco,Monaco" font-size="36.0" fill="#7ADA45" transform="matrix(1.00, 0.00, -0.00, -1.00, 209.1, 207.8)"> </text><text xml:space="preserve" font-family="Monaco,Monaco" font-size="36.0" fill="#7ADA45" transform="matrix(1.00, 0.00, -0.00, -1.00, 230.7, 207.8)">]</text><text xml:space="preserve" font-family="Monaco,Monaco" font-size="36.0" fill="#7ADA45" transform="matrix(1.00, 0.00, -0.00, -1.00, 252.3, 207.8)"> </text><text xml:space="preserve" font-family="Monaco,Monaco" font-size="36.0" fill="#7ADA45" transform="matrix(1.00, 0.00, -0.00, -1.00, 273.9, 207.8)">#</text><text xml:space="preserve" font-family="Monaco,Monaco" font-size="36.0" fill="#7ADA45" transform="matrix(1.00, 0.00, -0.00, -1.00, 295.5, 207.8)">=</text><text xml:space="preserve" font-family="Monaco,Monaco" font-size="36.0" fill="#7ADA45" transform="matrix(1.00, 0.00, -0.00, -1.00, 317.1, 207.8)">&gt;</text><text xml:space="preserve" font-family="Monaco,Monaco" font-size="36.0" fill="#7ADA45" transform="matrix(1.00, 0.00, -0.00, -1.00, 338.7, 207.8)"> </text><text xml:space="preserve" font-family="Monaco,Monaco" font-size="36.0" fill="#7ADA45" transform="matrix(1.00, 0.00, -0.00, -1.00, 360.3, 207.8)">“</text><text xml:space="preserve" font-family="Monaco,Monaco" font-size="36.0" fill="#7ADA45" transform="matrix(1.00, 0.00, -0.00, -1.00, 381.9, 207.8)">R</text><text xml:space="preserve" font-family="Monaco,Monaco" font-size="36.0" fill="#7ADA45" transform="matrix(1.00, 0.00, -0.00, -1.00, 403.5, 207.8)">e</text><text xml:space="preserve" font-family="Monaco,Monaco" font-size="36.0" fill="#7ADA45" transform="matrix(1.00, 0.00, -0.00, -1.00, 425.1, 207.8)">e</text><text xml:space="preserve" font-family="Monaco,Monaco" font-size="36.0" fill="#7ADA45" transform="matrix(1.00, 0.00, -0.00, -1.00, 446.8, 207.8)">c</text><text xml:space="preserve" font-family="Monaco,Monaco" font-size="36.0" fill="#7ADA45" transform="matrix(1.00, 0.00, -0.00, -1.00, 468.4, 207.8)">e</text><text xml:space="preserve" font-family="Monaco,Monaco" font-size="36.0" fill="#7ADA45" transform="matrix(1.00, 0.00, -0.00, -1.00, 490.0, 207.8)">’</text><text xml:space="preserve" font-family="Monaco,Monaco" font-size="36.0" fill="#7ADA45" transform="matrix(1.00, 0.00, -0.00, -1.00, 511.6, 207.8)">s</text><text xml:space="preserve" font-family="Monaco,Monaco" font-size="36.0" fill="#7ADA45" transform="matrix(1.00, 0.00, -0.00, -1.00, 533.2, 207.8)"> </text><text xml:space="preserve" font-family="Monaco,Monaco" font-size="36.0" fill="#7ADA45" transform="matrix(1.00, 0.00, -0.00, -1.00, 554.8, 207.8)">P</text><text xml:space="preserve" font-family="Monaco,Monaco" font-size="36.0" fill="#7ADA45" transform="matrix(1.00, 0.00, -0.00, -1.00, 576.4, 207.8)">e</text><text xml:space="preserve" font-family="Monaco,Monaco" font-size="36.0" fill="#7ADA45" transform="matrix(1.00, 0.00, -0.00, -1.00, 598.0, 207.8)">a</text><text xml:space="preserve" font-family="Monaco,Monaco" font-size="36.0" fill="#7ADA45" transform="matrix(1.00, 0.00, -0.00, -1.00, 619.6, 207.8)">n</text><text xml:space="preserve" font-family="Monaco,Monaco" font-size="36.0" fill="#7ADA45" transform="matrix(1.00, 0.00, -0.00, -1.00, 641.2, 207.8)">u</text><text xml:space="preserve" font-family="Monaco,Monaco" font-size="36.0" fill="#7ADA45" transform="matrix(1.00, 0.00, -0.00, -1.00, 662.8, 207.8)">t</text><text xml:space="preserve" font-family="Monaco,Monaco" font-size="36.0" fill="#7ADA45" transform="matrix(1.00, 0.00, -0.00, -1.00, 684.4, 207.8)"> </text><text xml:space="preserve" font-family="Monaco,Monaco" font-size="36.0" fill="#7ADA45" transform="matrix(1.00, 0.00, -0.00, -1.00, 706.0, 207.8)">B</text><text xml:space="preserve" font-family="Monaco,Monaco" font-size="36.0" fill="#7ADA45" transform="matrix(1.00, 0.00, -0.00, -1.00, 727.6, 207.8)">u</text><text xml:space="preserve" font-family="Monaco,Monaco" font-size="36.0" fill="#7ADA45" transform="matrix(1.00, 0.00, -0.00, -1.00, 749.3, 207.8)">t</text><text xml:space="preserve" font-family="Monaco,Monaco" font-size="36.0" fill="#7ADA45" transform="matrix(1.00, 0.00, -0.00, -1.00, 770.9, 207.8)">t</text><text xml:space="preserve" font-family="Monaco,Monaco" font-size="36.0" fill="#7ADA45" transform="matrix(1.00, 0.00, -0.00, -1.00, 792.5, 207.8)">e</text><text xml:space="preserve" font-family="Monaco,Monaco" font-size="36.0" fill="#7ADA45" transform="matrix(1.00, 0.00, -0.00, -1.00, 814.1, 207.8)">r</text><text xml:space="preserve" font-family="Monaco,Monaco" font-size="36.0" fill="#7ADA45" transform="matrix(1.00, 0.00, -0.00, -1.00, 835.7, 207.8)"> </text><text xml:space="preserve" font-family="Monaco,Monaco" font-size="36.0" fill="#7ADA45" transform="matrix(1.00, 0.00, -0.00, -1.00, 857.3, 207.8)">C</text><text xml:space="preserve" font-family="Monaco,Monaco" font-size="36.0" fill="#7ADA45" transform="matrix(1.00, 0.00, -0.00, -1.00, 878.9, 207.8)">u</text><text xml:space="preserve" font-family="Monaco,Monaco" font-size="36.0" fill="#7ADA45" transform="matrix(1.00, 0.00, -0.00, -1.00, 900.5, 207.8)">p</text><text xml:space="preserve" font-family="Monaco,Monaco" font-size="36.0" fill="#7ADA45" transform="matrix(1.00, 0.00, -0.00, -1.00, 922.1, 207.8)">s</text><text xml:space="preserve" font-family="Monaco,Monaco" font-size="36.0" fill="#7ADA45" transform="matrix(1.00, 0.00, -0.00, -1.00, 943.7, 207.8)">”</text><text xml:space="preserve" font-family="Monaco,Monaco" font-size="36.0" fill="#7ADA45" transform="matrix(1.00, 0.00, -0.00, -1.00, 57.8, 161.9)">h</text><text xml:space="preserve" font-family="Monaco,Monaco" font-size="36.0" fill="#7ADA45" transform="matrix(1.00, 0.00, -0.00, -1.00, 79.4, 161.9)">a</text><text xml:space="preserve" font-family="Monaco,Monaco" font-size="36.0" fill="#7ADA45" transform="matrix(1.00, 0.00, -0.00, -1.00, 101.0, 161.9)">s</text><text xml:space="preserve" font-family="Monaco,Monaco" font-size="36.0" fill="#7ADA45" transform="matrix(1.00, 0.00, -0.00, -1.00, 122.6, 161.9)">h</text><text xml:space="preserve" font-family="Monaco,Monaco" font-size="36.0" fill="#7ADA45" transform="matrix(1.00, 0.00, -0.00, -1.00, 144.3, 161.9)">[</text><text xml:space="preserve" font-family="Monaco,Monaco" font-size="36.0" fill="#7ADA45" transform="matrix(1.00, 0.00, -0.00, -1.00, 165.9, 161.9)"> </text><text xml:space="preserve" font-family="Monaco,Monaco" font-size="36.0" fill="#7ADA45" transform="matrix(1.00, 0.00, -0.00, -1.00, 187.5, 161.9)">3</text><text xml:space="preserve" font-family="Monaco,Monaco" font-size="36.0" fill="#7ADA45" transform="matrix(1.00, 0.00, -0.00, -1.00, 209.1, 161.9)"> </text><text xml:space="preserve" font-family="Monaco,Monaco" font-size="36.0" fill="#7ADA45" transform="matrix(1.00, 0.00, -0.00, -1.00, 230.7, 161.9)">]</text><text xml:space="preserve" font-family="Monaco,Monaco" font-size="36.0" fill="#7ADA45" transform="matrix(1.00, 0.00, -0.00, -1.00, 252.3, 161.9)"> </text><text xml:space="preserve" font-family="Monaco,Monaco" font-size="36.0" fill="#7ADA45" transform="matrix(1.00, 0.00, -0.00, -1.00, 273.9, 161.9)">#</text><text xml:space="preserve" font-family="Monaco,Monaco" font-size="36.0" fill="#7ADA45" transform="matrix(1.00, 0.00, -0.00, -1.00, 295.5, 161.9)">=</text><text xml:space="preserve" font-family="Monaco,Monaco" font-size="36.0" fill="#7ADA45" transform="matrix(1.00, 0.00, -0.00, -1.00, 317.1, 161.9)">&gt;</text><text xml:space="preserve" font-family="Monaco,Monaco" font-size="36.0" fill="#7ADA45" transform="matrix(1.00, 0.00, -0.00, -1.00, 338.7, 161.9)"> </text><text xml:space="preserve" font-family="Monaco,Monaco" font-size="36.0" fill="#7ADA45" transform="matrix(1.00, 0.00, -0.00, -1.00, 360.3, 161.9)">“</text><text xml:space="preserve" font-family="Monaco,Monaco" font-size="36.0" fill="#7ADA45" transform="matrix(1.00, 0.00, -0.00, -1.00, 381.9, 161.9)">b</text><text xml:space="preserve" font-family="Monaco,Monaco" font-size="36.0" fill="#7ADA45" transform="matrix(1.00, 0.00, -0.00, -1.00, 403.5, 161.9)">l</text><text xml:space="preserve" font-family="Monaco,Monaco" font-size="36.0" fill="#7ADA45" transform="matrix(1.00, 0.00, -0.00, -1.00, 425.1, 161.9)">i</text><text xml:space="preserve" font-family="Monaco,Monaco" font-size="36.0" fill="#7ADA45" transform="matrix(1.00, 0.00, -0.00, -1.00, 446.8, 161.9)">n</text><text xml:space="preserve" font-family="Monaco,Monaco" font-size="36.0" fill="#7ADA45" transform="matrix(1.00, 0.00, -0.00, -1.00, 468.4, 161.9)">d</text><text xml:space="preserve" font-family="Monaco,Monaco" font-size="36.0" fill="#7ADA45" transform="matrix(1.00, 0.00, -0.00, -1.00, 490.0, 161.9)"> </text><text xml:space="preserve" font-family="Monaco,Monaco" font-size="36.0" fill="#7ADA45" transform="matrix(1.00, 0.00, -0.00, -1.00, 511.6, 161.9)">m</text><text xml:space="preserve" font-family="Monaco,Monaco" font-size="36.0" fill="#7ADA45" transform="matrix(1.00, 0.00, -0.00, -1.00, 533.2, 161.9)">i</text><text xml:space="preserve" font-family="Monaco,Monaco" font-size="36.0" fill="#7ADA45" transform="matrix(1.00, 0.00, -0.00, -1.00, 554.8, 161.9)">c</text><text xml:space="preserve" font-family="Monaco,Monaco" font-size="36.0" fill="#7ADA45" transform="matrix(1.00, 0.00, -0.00, -1.00, 576.4, 161.9)">e</text><text xml:space="preserve" font-family="Monaco,Monaco" font-size="36.0" fill="#7ADA45" transform="matrix(1.00, 0.00, -0.00, -1.00, 598.0, 161.9)">”</text></g></svg>