<?xml version="1.0" encoding="UTF-8" standalone="no"?><svg xmlns="http://www.w3.org/2000/svg" xmlns:xlink="http://www.w3.org/1999/xlink" clip-rule="evenodd" stroke-miterlimit="10" viewBox="0 0 1024 768"><desc>SVG generated by Keynote</desc><defs></defs><g transform="matrix(1.00, 0.00, -0.00, -1.00, 0.0, 768.0)"><path d="M 0.0 768.0 L 1024.0 768.0 L 1024.0 0.0 L 0.0 0.0 Z M 0.0 768.0 " fill="#000000"></path><text xml:space="preserve" font-family="Helvetica-Light,Helvetica" font-size="80.0" fill="#FEFFFF" transform="matrix(1.00, 0.00, -0.00, -1.00, 267.4, 633.4)">T</text><text xml:space="preserve" font-family="Helvetica-Light,Helvetica" font-size="80.0" fill="#FEFFFF" transform="matrix(1.00, 0.00, -0.00, -1.00, 303.0, 633.4)">e</text><text xml:space="preserve" font-family="Helvetica-Light,Helvetica" font-size="80.0" fill="#FEFFFF" transform="matrix(1.00, 0.00, -0.00, -1.00, 347.5, 633.4)">s</text><text xml:space="preserve" font-family="Helvetica-Light,Helvetica" font-size="80.0" fill="#FEFFFF" transform="matrix(1.00, 0.00, -0.00, -1.00, 387.5, 633.4)">t</text><text xml:space="preserve" font-family="Helvetica-Light,Helvetica" font-size="80.0" fill="#FEFFFF" transform="matrix(1.00, 0.00, -0.00, -1.00, 409.7, 633.4)">,</text><text xml:space="preserve" font-family="Helvetica-Light,Helvetica" font-size="80.0" fill="#FEFFFF" transform="matrix(1.00, 0.00, -0.00, -1.00, 432.0, 633.4)"> </text><text xml:space="preserve" font-family="Helvetica-Light,Helvetica" font-size="80.0" fill="#FEFFFF" transform="matrix(1.00, 0.00, -0.00, -1.00, 454.2, 633.4)">R</text><text xml:space="preserve" font-family="Helvetica-Light,Helvetica" font-size="80.0" fill="#FEFFFF" transform="matrix(1.00, 0.00, -0.00, -1.00, 507.6, 633.4)">e</text><text xml:space="preserve" font-family="Helvetica-Light,Helvetica" font-size="80.0" fill="#FEFFFF" transform="matrix(1.00, 0.00, -0.00, -1.00, 552.0, 633.4)">f</text><text xml:space="preserve" font-family="Helvetica-Light,Helvetica" font-size="80.0" fill="#FEFFFF" transform="matrix(1.00, 0.00, -0.00, -1.00, 574.3, 633.4)">a</text><text xml:space="preserve" font-family="Helvetica-Light,Helvetica" font-size="80.0" fill="#FEFFFF" transform="matrix(1.00, 0.00, -0.00, -1.00, 618.8, 633.4)">c</text><text xml:space="preserve" font-family="Helvetica-Light,Helvetica" font-size="80.0" fill="#FEFFFF" transform="matrix(1.00, 0.00, -0.00, -1.00, 663.2, 633.4)">t</text><text xml:space="preserve" font-family="Helvetica-Light,Helvetica" font-size="80.0" fill="#FEFFFF" transform="matrix(1.00, 0.00, -0.00, -1.00, 685.5, 633.4)">o</text><text xml:space="preserve" font-family="Helvetica-Light,Helvetica" font-size="80.0" fill="#FEFFFF" transform="matrix(1.00, 0.00, -0.00, -1.00, 730.0, 633.4)">r</text><text xml:space="preserve" font-family="Monaco,Monaco" font-size="40.0" fill="#7ADA45" transform="matrix(1.00, 0.00, -0.00, -1.00, 37.9, 569.7)">d</text><text xml:space="preserve" font-family="Monaco,Monaco" font-size="40.0" fill="#7ADA45" transform="matrix(1.00, 0.00, -0.00, -1.00, 61.9, 569.7)">e</text><text xml:space="preserve" font-family="Monaco,Monaco" font-size="40.0" fill="#7ADA45" transform="matrix(1.00, 0.00, -0.00, -1.00, 85.9, 569.7)">f</text><text xml:space="preserve" font-family="Monaco,Monaco" font-size="40.0" fill="#7ADA45" transform="matrix(1.00, 0.00, -0.00, -1.00, 109.9, 569.7)"> </text><text xml:space="preserve" font-family="Monaco,Monaco" font-size="40.0" fill="#7ADA45" transform="matrix(1.00, 0.00, -0.00, -1.00, 133.9, 569.7)">t</text><text xml:space="preserve" font-family="Monaco,Monaco" font-size="40.0" fill="#7ADA45" transform="matrix(1.00, 0.00, -0.00, -1.00, 157.9, 569.7)">e</text><text xml:space="preserve" font-family="Monaco,Monaco" font-size="40.0" fill="#7ADA45" transform="matrix(1.00, 0.00, -0.00, -1.00, 181.9, 569.7)">s</text><text xml:space="preserve" font-family="Monaco,Monaco" font-size="40.0" fill="#7ADA45" transform="matrix(1.00, 0.00, -0.00, -1.00, 205.9, 569.7)">t</text><text xml:space="preserve" font-family="Monaco,Monaco" font-size="40.0" fill="#7ADA45" transform="matrix(1.00, 0.00, -0.00, -1.00, 229.9, 569.7)">_</text><text xml:space="preserve" font-family="Monaco,Monaco" font-size="40.0" fill="#7ADA45" transform="matrix(1.00, 0.00, -0.00, -1.00, 253.9, 569.7)">c</text><text xml:space="preserve" font-family="Monaco,Monaco" font-size="40.0" fill="#7ADA45" transform="matrix(1.00, 0.00, -0.00, -1.00, 277.9, 569.7)">o</text><text xml:space="preserve" font-family="Monaco,Monaco" font-size="40.0" fill="#7ADA45" transform="matrix(1.00, 0.00, -0.00, -1.00, 301.9, 569.7)">m</text><text xml:space="preserve" font-family="Monaco,Monaco" font-size="40.0" fill="#7ADA45" transform="matrix(1.00, 0.00, -0.00, -1.00, 326.0, 569.7)">p</text><text xml:space="preserve" font-family="Monaco,Monaco" font-size="40.0" fill="#7ADA45" transform="matrix(1.00, 0.00, -0.00, -1.00, 350.0, 569.7)">l</text><text xml:space="preserve" font-family="Monaco,Monaco" font-size="40.0" fill="#7ADA45" transform="matrix(1.00, 0.00, -0.00, -1.00, 374.0, 569.7)">e</text><text xml:space="preserve" font-family="Monaco,Monaco" font-size="40.0" fill="#7ADA45" transform="matrix(1.00, 0.00, -0.00, -1.00, 398.0, 569.7)">x</text><text xml:space="preserve" font-family="Monaco,Monaco" font-size="40.0" fill="#7ADA45" transform="matrix(1.00, 0.00, -0.00, -1.00, 422.0, 569.7)">_</text><text xml:space="preserve" font-family="Monaco,Monaco" font-size="40.0" fill="#7ADA45" transform="matrix(1.00, 0.00, -0.00, -1.00, 446.0, 569.7)">c</text><text xml:space="preserve" font-family="Monaco,Monaco" font-size="40.0" fill="#7ADA45" transform="matrix(1.00, 0.00, -0.00, -1.00, 470.0, 569.7)">a</text><text xml:space="preserve" font-family="Monaco,Monaco" font-size="40.0" fill="#7ADA45" transform="matrix(1.00, 0.00, -0.00, -1.00, 494.0, 569.7)">l</text><text xml:space="preserve" font-family="Monaco,Monaco" font-size="40.0" fill="#7ADA45" transform="matrix(1.00, 0.00, -0.00, -1.00, 518.0, 569.7)">c</text><text xml:space="preserve" font-family="Monaco,Monaco" font-size="40.0" fill="#7ADA45" transform="matrix(1.00, 0.00, -0.00, -1.00, 542.0, 569.7)">u</text><text xml:space="preserve" font-family="Monaco,Monaco" font-size="40.0" fill="#7ADA45" transform="matrix(1.00, 0.00, -0.00, -1.00, 566.0, 569.7)">l</text><text xml:space="preserve" font-family="Monaco,Monaco" font-size="40.0" fill="#7ADA45" transform="matrix(1.00, 0.00, -0.00, -1.00, 590.0, 569.7)">a</text><text xml:space="preserve" font-family="Monaco,Monaco" font-size="40.0" fill="#7ADA45" transform="matrix(1.00, 0.00, -0.00, -1.00, 614.1, 569.7)">t</text><text xml:space="preserve" font-family="Monaco,Monaco" font-size="40.0" fill="#7ADA45" transform="matrix(1.00, 0.00, -0.00, -1.00, 638.1, 569.7)">i</text><text xml:space="preserve" font-family="Monaco,Monaco" font-size="40.0" fill="#7ADA45" transform="matrix(1.00, 0.00, -0.00, -1.00, 662.1, 569.7)">o</text><text xml:space="preserve" font-family="Monaco,Monaco" font-size="40.0" fill="#7ADA45" transform="matrix(1.00, 0.00, -0.00, -1.00, 686.1, 569.7)">n</text><text xml:space="preserve" font-family="Monaco,Monaco" font-size="40.0" fill="#7ADA45" transform="matrix(1.00, 0.00, -0.00, -1.00, 710.1, 569.7)">	</text><text xml:space="preserve" font-family="Monaco,Monaco" font-size="40.0" fill="#7ADA45" transform="matrix(1.00, 0.00, -0.00, -1.00, 37.9, 516.7)"> </text><text xml:space="preserve" font-family="Monaco,Monaco" font-size="40.0" fill="#7ADA45" transform="matrix(1.00, 0.00, -0.00, -1.00, 61.9, 516.7)"> </text><text xml:space="preserve" font-family="Monaco,Monaco" font-size="40.0" fill="#7ADA45" transform="matrix(1.00, 0.00, -0.00, -1.00, 85.9, 516.7)">c</text><text xml:space="preserve" font-family="Monaco,Monaco" font-size="40.0" fill="#7ADA45" transform="matrix(1.00, 0.00, -0.00, -1.00, 109.9, 516.7)">r</text><text xml:space="preserve" font-family="Monaco,Monaco" font-size="40.0" fill="#7ADA45" transform="matrix(1.00, 0.00, -0.00, -1.00, 133.9, 516.7)">a</text><text xml:space="preserve" font-family="Monaco,Monaco" font-size="40.0" fill="#7ADA45" transform="matrix(1.00, 0.00, -0.00, -1.00, 157.9, 516.7)">z</text><text xml:space="preserve" font-family="Monaco,Monaco" font-size="40.0" fill="#7ADA45" transform="matrix(1.00, 0.00, -0.00, -1.00, 181.9, 516.7)">y</text><text xml:space="preserve" font-family="Monaco,Monaco" font-size="40.0" fill="#7ADA45" transform="matrix(1.00, 0.00, -0.00, -1.00, 205.9, 516.7)">_</text><text xml:space="preserve" font-family="Monaco,Monaco" font-size="40.0" fill="#7ADA45" transform="matrix(1.00, 0.00, -0.00, -1.00, 229.9, 516.7)">n</text><text xml:space="preserve" font-family="Monaco,Monaco" font-size="40.0" fill="#7ADA45" transform="matrix(1.00, 0.00, -0.00, -1.00, 253.9, 516.7)">u</text><text xml:space="preserve" font-family="Monaco,Monaco" font-size="40.0" fill="#7ADA45" transform="matrix(1.00, 0.00, -0.00, -1.00, 277.9, 516.7)">m</text><text xml:space="preserve" font-family="Monaco,Monaco" font-size="40.0" fill="#7ADA45" transform="matrix(1.00, 0.00, -0.00, -1.00, 301.9, 516.7)">b</text><text xml:space="preserve" font-family="Monaco,Monaco" font-size="40.0" fill="#7ADA45" transform="matrix(1.00, 0.00, -0.00, -1.00, 326.0, 516.7)">e</text><text xml:space="preserve" font-family="Monaco,Monaco" font-size="40.0" fill="#7ADA45" transform="matrix(1.00, 0.00, -0.00, -1.00, 350.0, 516.7)">r</text><text xml:space="preserve" font-family="Monaco,Monaco" font-size="40.0" fill="#7ADA45" transform="matrix(1.00, 0.00, -0.00, -1.00, 374.0, 516.7)"> </text><text xml:space="preserve" font-family="Monaco,Monaco" font-size="40.0" fill="#7ADA45" transform="matrix(1.00, 0.00, -0.00, -1.00, 398.0, 516.7)">=</text><text xml:space="preserve" font-family="Monaco,Monaco" font-size="40.0" fill="#7ADA45" transform="matrix(1.00, 0.00, -0.00, -1.00, 422.0, 516.7)"> </text><text xml:space="preserve" font-family="Monaco,Monaco" font-size="40.0" fill="#7ADA45" transform="matrix(1.00, 0.00, -0.00, -1.00, 446.0, 516.7)">B</text><text xml:space="preserve" font-family="Monaco,Monaco" font-size="40.0" fill="#7ADA45" transform="matrix(1.00, 0.00, -0.00, -1.00, 470.0, 516.7)">i</text><text xml:space="preserve" font-family="Monaco,Monaco" font-size="40.0" fill="#7ADA45" transform="matrix(1.00, 0.00, -0.00, -1.00, 494.0, 516.7)">g</text><text xml:space="preserve" font-family="Monaco,Monaco" font-size="40.0" fill="#7ADA45" transform="matrix(1.00, 0.00, -0.00, -1.00, 518.0, 516.7)">M</text><text xml:space="preserve" font-family="Monaco,Monaco" font-size="40.0" fill="#7ADA45" transform="matrix(1.00, 0.00, -0.00, -1.00, 542.0, 516.7)">a</text><text xml:space="preserve" font-family="Monaco,Monaco" font-size="40.0" fill="#7ADA45" transform="matrix(1.00, 0.00, -0.00, -1.00, 566.0, 516.7)">t</text><text xml:space="preserve" font-family="Monaco,Monaco" font-size="40.0" fill="#7ADA45" transform="matrix(1.00, 0.00, -0.00, -1.00, 590.0, 516.7)">h</text><text xml:space="preserve" font-family="Monaco,Monaco" font-size="40.0" fill="#7ADA45" transform="matrix(1.00, 0.00, -0.00, -1.00, 614.1, 516.7)">.</text><text xml:space="preserve" font-family="Monaco,Monaco" font-size="40.0" fill="#7ADA45" transform="matrix(1.00, 0.00, -0.00, -1.00, 638.1, 516.7)">p</text><text xml:space="preserve" font-family="Monaco,Monaco" font-size="40.0" fill="#7ADA45" transform="matrix(1.00, 0.00, -0.00, -1.00, 662.1, 516.7)">i</text><text xml:space="preserve" font-family="Monaco,Monaco" font-size="40.0" fill="#7ADA45" transform="matrix(1.00, 0.00, -0.00, -1.00, 686.1, 516.7)">(</text><text xml:space="preserve" font-family="Monaco,Monaco" font-size="40.0" fill="#7ADA45" transform="matrix(1.00, 0.00, -0.00, -1.00, 710.1, 516.7)">7</text><text xml:space="preserve" font-family="Monaco,Monaco" font-size="40.0" fill="#7ADA45" transform="matrix(1.00, 0.00, -0.00, -1.00, 734.1, 516.7)">)</text><text xml:space="preserve" font-family="Monaco,Monaco" font-size="40.0" fill="#7ADA45" transform="matrix(1.00, 0.00, -0.00, -1.00, 758.0, 516.7)">	</text><text xml:space="preserve" font-family="Monaco,Monaco" font-size="40.0" fill="#7ADA45" transform="matrix(1.00, 0.00, -0.00, -1.00, 37.9, 463.7)"> </text><text xml:space="preserve" font-family="Monaco,Monaco" font-size="40.0" fill="#7ADA45" transform="matrix(1.00, 0.00, -0.00, -1.00, 61.9, 463.7)"> </text><text xml:space="preserve" font-family="Monaco,Monaco" font-size="40.0" fill="#7ADA45" transform="matrix(1.00, 0.00, -0.00, -1.00, 85.9, 463.7)">a</text><text xml:space="preserve" font-family="Monaco,Monaco" font-size="40.0" fill="#7ADA45" transform="matrix(1.00, 0.00, -0.00, -1.00, 109.9, 463.7)">n</text><text xml:space="preserve" font-family="Monaco,Monaco" font-size="40.0" fill="#7ADA45" transform="matrix(1.00, 0.00, -0.00, -1.00, 133.9, 463.7)">s</text><text xml:space="preserve" font-family="Monaco,Monaco" font-size="40.0" fill="#7ADA45" transform="matrix(1.00, 0.00, -0.00, -1.00, 157.9, 463.7)">w</text><text xml:space="preserve" font-family="Monaco,Monaco" font-size="40.0" fill="#7ADA45" transform="matrix(1.00, 0.00, -0.00, -1.00, 181.9, 463.7)">e</text><text xml:space="preserve" font-family="Monaco,Monaco" font-size="40.0" fill="#7ADA45" transform="matrix(1.00, 0.00, -0.00, -1.00, 205.9, 463.7)">r</text><text xml:space="preserve" font-family="Monaco,Monaco" font-size="40.0" fill="#7ADA45" transform="matrix(1.00, 0.00, -0.00, -1.00, 229.9, 463.7)"> </text><text xml:space="preserve" font-family="Monaco,Monaco" font-size="40.0" fill="#7ADA45" transform="matrix(1.00, 0.00, -0.00, -1.00, 253.9, 463.7)">=</text><text xml:space="preserve" font-family="Monaco,Monaco" font-size="40.0" fill="#7ADA45" transform="matrix(1.00, 0.00, -0.00, -1.00, 277.9, 463.7)"> </text><text xml:space="preserve" font-family="Monaco,Monaco" font-size="40.0" fill="#7ADA45" transform="matrix(1.00, 0.00, -0.00, -1.00, 301.9, 463.7)">A</text><text xml:space="preserve" font-family="Monaco,Monaco" font-size="40.0" fill="#7ADA45" transform="matrix(1.00, 0.00, -0.00, -1.00, 326.0, 463.7)">l</text><text xml:space="preserve" font-family="Monaco,Monaco" font-size="40.0" fill="#7ADA45" transform="matrix(1.00, 0.00, -0.00, -1.00, 350.0, 463.7)">g</text><text xml:space="preserve" font-family="Monaco,Monaco" font-size="40.0" fill="#7ADA45" transform="matrix(1.00, 0.00, -0.00, -1.00, 374.0, 463.7)">o</text><text xml:space="preserve" font-family="Monaco,Monaco" font-size="40.0" fill="#7ADA45" transform="matrix(1.00, 0.00, -0.00, -1.00, 398.0, 463.7)">r</text><text xml:space="preserve" font-family="Monaco,Monaco" font-size="40.0" fill="#7ADA45" transform="matrix(1.00, 0.00, -0.00, -1.00, 422.0, 463.7)">i</text><text xml:space="preserve" font-family="Monaco,Monaco" font-size="40.0" fill="#7ADA45" transform="matrix(1.00, 0.00, -0.00, -1.00, 446.0, 463.7)">t</text><text xml:space="preserve" font-family="Monaco,Monaco" font-size="40.0" fill="#7ADA45" transform="matrix(1.00, 0.00, -0.00, -1.00, 470.0, 463.7)">h</text><text xml:space="preserve" font-family="Monaco,Monaco" font-size="40.0" fill="#7ADA45" transform="matrix(1.00, 0.00, -0.00, -1.00, 494.0, 463.7)">m</text><text xml:space="preserve" font-family="Monaco,Monaco" font-size="40.0" fill="#7ADA45" transform="matrix(1.00, 0.00, -0.00, -1.00, 518.0, 463.7)">.</text><text xml:space="preserve" font-family="Monaco,Monaco" font-size="40.0" fill="#7ADA45" transform="matrix(1.00, 0.00, -0.00, -1.00, 542.0, 463.7)">c</text><text xml:space="preserve" font-family="Monaco,Monaco" font-size="40.0" fill="#7ADA45" transform="matrix(1.00, 0.00, -0.00, -1.00, 566.0, 463.7)">a</text><text xml:space="preserve" font-family="Monaco,Monaco" font-size="40.0" fill="#7ADA45" transform="matrix(1.00, 0.00, -0.00, -1.00, 590.0, 463.7)">l</text><text xml:space="preserve" font-family="Monaco,Monaco" font-size="40.0" fill="#7ADA45" transform="matrix(1.00, 0.00, -0.00, -1.00, 614.1, 463.7)">c</text><text xml:space="preserve" font-family="Monaco,Monaco" font-size="40.0" fill="#7ADA45" transform="matrix(1.00, 0.00, -0.00, -1.00, 638.1, 463.7)">(</text><text xml:space="preserve" font-family="Monaco,Monaco" font-size="40.0" fill="#7ADA45" transform="matrix(1.00, 0.00, -0.00, -1.00, 662.1, 463.7)">c</text><text xml:space="preserve" font-family="Monaco,Monaco" font-size="40.0" fill="#7ADA45" transform="matrix(1.00, 0.00, -0.00, -1.00, 686.1, 463.7)">r</text><text xml:space="preserve" font-family="Monaco,Monaco" font-size="40.0" fill="#7ADA45" transform="matrix(1.00, 0.00, -0.00, -1.00, 710.1, 463.7)">a</text><text xml:space="preserve" font-family="Monaco,Monaco" font-size="40.0" fill="#7ADA45" transform="matrix(1.00, 0.00, -0.00, -1.00, 734.1, 463.7)">z</text><text xml:space="preserve" font-family="Monaco,Monaco" font-size="40.0" fill="#7ADA45" transform="matrix(1.00, 0.00, -0.00, -1.00, 758.1, 463.7)">y</text><text xml:space="preserve" font-family="Monaco,Monaco" font-size="40.0" fill="#7ADA45" transform="matrix(1.00, 0.00, -0.00, -1.00, 782.1, 463.7)">_</text><text xml:space="preserve" font-family="Monaco,Monaco" font-size="40.0" fill="#7ADA45" transform="matrix(1.00, 0.00, -0.00, -1.00, 806.1, 463.7)">n</text><text xml:space="preserve" font-family="Monaco,Monaco" font-size="40.0" fill="#7ADA45" transform="matrix(1.00, 0.00, -0.00, -1.00, 830.1, 463.7)">u</text><text xml:space="preserve" font-family="Monaco,Monaco" font-size="40.0" fill="#7ADA45" transform="matrix(1.00, 0.00, -0.00, -1.00, 854.1, 463.7)">m</text><text xml:space="preserve" font-family="Monaco,Monaco" font-size="40.0" fill="#7ADA45" transform="matrix(1.00, 0.00, -0.00, -1.00, 878.1, 463.7)">b</text><text xml:space="preserve" font-family="Monaco,Monaco" font-size="40.0" fill="#7ADA45" transform="matrix(1.00, 0.00, -0.00, -1.00, 902.1, 463.7)">e</text><text xml:space="preserve" font-family="Monaco,Monaco" font-size="40.0" fill="#7ADA45" transform="matrix(1.00, 0.00, -0.00, -1.00, 926.2, 463.7)">r</text><text xml:space="preserve" font-family="Monaco,Monaco" font-size="40.0" fill="#7ADA45" transform="matrix(1.00, 0.00, -0.00, -1.00, 950.2, 463.7)">)</text><text xml:space="preserve" font-family="Monaco,Monaco" font-size="40.0" fill="#7ADA45" transform="matrix(1.00, 0.00, -0.00, -1.00, 974.0, 463.7)">	</text><text xml:space="preserve" font-family="Monaco,Monaco" font-size="40.0" fill="#7ADA45" transform="matrix(1.00, 0.00, -0.00, -1.00, 37.9, 410.7)"> </text><text xml:space="preserve" font-family="Monaco,Monaco" font-size="40.0" fill="#7ADA45" transform="matrix(1.00, 0.00, -0.00, -1.00, 61.9, 410.7)"> </text><text xml:space="preserve" font-family="Monaco,Monaco" font-size="40.0" fill="#7ADA45" transform="matrix(1.00, 0.00, -0.00, -1.00, 85.9, 410.7)">a</text><text xml:space="preserve" font-family="Monaco,Monaco" font-size="40.0" fill="#7ADA45" transform="matrix(1.00, 0.00, -0.00, -1.00, 109.9, 410.7)">s</text><text xml:space="preserve" font-family="Monaco,Monaco" font-size="40.0" fill="#7ADA45" transform="matrix(1.00, 0.00, -0.00, -1.00, 133.9, 410.7)">s</text><text xml:space="preserve" font-family="Monaco,Monaco" font-size="40.0" fill="#7ADA45" transform="matrix(1.00, 0.00, -0.00, -1.00, 157.9, 410.7)">e</text><text xml:space="preserve" font-family="Monaco,Monaco" font-size="40.0" fill="#7ADA45" transform="matrix(1.00, 0.00, -0.00, -1.00, 181.9, 410.7)">r</text><text xml:space="preserve" font-family="Monaco,Monaco" font-size="40.0" fill="#7ADA45" transform="matrix(1.00, 0.00, -0.00, -1.00, 205.9, 410.7)">t</text><text xml:space="preserve" font-family="Monaco,Monaco" font-size="40.0" fill="#7ADA45" transform="matrix(1.00, 0.00, -0.00, -1.00, 229.9, 410.7)">_</text><text xml:space="preserve" font-family="Monaco,Monaco" font-size="40.0" fill="#7ADA45" transform="matrix(1.00, 0.00, -0.00, -1.00, 253.9, 410.7)">e</text><text xml:space="preserve" font-family="Monaco,Monaco" font-size="40.0" fill="#7ADA45" transform="matrix(1.00, 0.00, -0.00, -1.00, 277.9, 410.7)">q</text><text xml:space="preserve" font-family="Monaco,Monaco" font-size="40.0" fill="#7ADA45" transform="matrix(1.00, 0.00, -0.00, -1.00, 301.9, 410.7)">u</text><text xml:space="preserve" font-family="Monaco,Monaco" font-size="40.0" fill="#7ADA45" transform="matrix(1.00, 0.00, -0.00, -1.00, 326.0, 410.7)">a</text><text xml:space="preserve" font-family="Monaco,Monaco" font-size="40.0" fill="#7ADA45" transform="matrix(1.00, 0.00, -0.00, -1.00, 350.0, 410.7)">l</text><text xml:space="preserve" font-family="Monaco,Monaco" font-size="40.0" fill="#7ADA45" transform="matrix(1.00, 0.00, -0.00, -1.00, 374.0, 410.7)"> </text><text xml:space="preserve" font-family="Monaco,Monaco" font-size="40.0" fill="#7ADA45" transform="matrix(1.00, 0.00, -0.00, -1.00, 398.0, 410.7)">4</text><text xml:space="preserve" font-family="Monaco,Monaco" font-size="40.0" fill="#7ADA45" transform="matrix(1.00, 0.00, -0.00, -1.00, 422.0, 410.7)">2</text><text xml:space="preserve" font-family="Monaco,Monaco" font-size="40.0" fill="#7ADA45" transform="matrix(1.00, 0.00, -0.00, -1.00, 446.0, 410.7)">,</text><text xml:space="preserve" font-family="Monaco,Monaco" font-size="40.0" fill="#7ADA45" transform="matrix(1.00, 0.00, -0.00, -1.00, 470.0, 410.7)"> </text><text xml:space="preserve" font-family="Monaco,Monaco" font-size="40.0" fill="#7ADA45" transform="matrix(1.00, 0.00, -0.00, -1.00, 494.0, 410.7)">a</text><text xml:space="preserve" font-family="Monaco,Monaco" font-size="40.0" fill="#7ADA45" transform="matrix(1.00, 0.00, -0.00, -1.00, 518.0, 410.7)">n</text><text xml:space="preserve" font-family="Monaco,Monaco" font-size="40.0" fill="#7ADA45" transform="matrix(1.00, 0.00, -0.00, -1.00, 542.0, 410.7)">s</text><text xml:space="preserve" font-family="Monaco,Monaco" font-size="40.0" fill="#7ADA45" transform="matrix(1.00, 0.00, -0.00, -1.00, 566.0, 410.7)">w</text><text xml:space="preserve" font-family="Monaco,Monaco" font-size="40.0" fill="#7ADA45" transform="matrix(1.00, 0.00, -0.00, -1.00, 590.0, 410.7)">e</text><text xml:space="preserve" font-family="Monaco,Monaco" font-size="40.0" fill="#7ADA45" transform="matrix(1.00, 0.00, -0.00, -1.00, 614.1, 410.7)">r</text><text xml:space="preserve" font-family="Monaco,Monaco" font-size="40.0" fill="#7ADA45" transform="matrix(1.00, 0.00, -0.00, -1.00, 638.1, 410.7)">	</text><text xml:space="preserve" font-family="Monaco,Monaco" font-size="40.0" fill="#7ADA45" transform="matrix(1.00, 0.00, -0.00, -1.00, 37.9, 357.7)">e</text><text xml:space="preserve" font-family="Monaco,Monaco" font-size="40.0" fill="#7ADA45" transform="matrix(1.00, 0.00, -0.00, -1.00, 61.9, 357.7)">n</text><text xml:space="preserve" font-family="Monaco,Monaco" font-size="40.0" fill="#7ADA45" transform="matrix(1.00, 0.00, -0.00, -1.00, 85.9, 357.7)">d</text><text xml:space="preserve" font-family="Monaco,Monaco" font-size="40.0" fill="#7ADA45" transform="matrix(1.00, 0.00, -0.00, -1.00, 181.5, 280.7)">c</text><text xml:space="preserve" font-family="Monaco,Monaco" font-size="40.0" fill="#7ADA45" transform="matrix(1.00, 0.00, -0.00, -1.00, 205.5, 280.7)">l</text><text xml:space="preserve" font-family="Monaco,Monaco" font-size="40.0" fill="#7ADA45" transform="matrix(1.00, 0.00, -0.00, -1.00, 229.5, 280.7)">a</text><text xml:space="preserve" font-family="Monaco,Monaco" font-size="40.0" fill="#7ADA45" transform="matrix(1.00, 0.00, -0.00, -1.00, 253.5, 280.7)">s</text><text xml:space="preserve" font-family="Monaco,Monaco" font-size="40.0" fill="#7ADA45" transform="matrix(1.00, 0.00, -0.00, -1.00, 277.5, 280.7)">s</text><text xml:space="preserve" font-family="Monaco,Monaco" font-size="40.0" fill="#7ADA45" transform="matrix(1.00, 0.00, -0.00, -1.00, 301.5, 280.7)"> </text><text xml:space="preserve" font-family="Monaco,Monaco" font-size="40.0" fill="#7ADA45" transform="matrix(1.00, 0.00, -0.00, -1.00, 325.6, 280.7)">A</text><text xml:space="preserve" font-family="Monaco,Monaco" font-size="40.0" fill="#7ADA45" transform="matrix(1.00, 0.00, -0.00, -1.00, 349.6, 280.7)">l</text><text xml:space="preserve" font-family="Monaco,Monaco" font-size="40.0" fill="#7ADA45" transform="matrix(1.00, 0.00, -0.00, -1.00, 373.6, 280.7)">g</text><text xml:space="preserve" font-family="Monaco,Monaco" font-size="40.0" fill="#7ADA45" transform="matrix(1.00, 0.00, -0.00, -1.00, 397.6, 280.7)">o</text><text xml:space="preserve" font-family="Monaco,Monaco" font-size="40.0" fill="#7ADA45" transform="matrix(1.00, 0.00, -0.00, -1.00, 421.6, 280.7)">r</text><text xml:space="preserve" font-family="Monaco,Monaco" font-size="40.0" fill="#7ADA45" transform="matrix(1.00, 0.00, -0.00, -1.00, 445.6, 280.7)">i</text><text xml:space="preserve" font-family="Monaco,Monaco" font-size="40.0" fill="#7ADA45" transform="matrix(1.00, 0.00, -0.00, -1.00, 469.6, 280.7)">t</text><text xml:space="preserve" font-family="Monaco,Monaco" font-size="40.0" fill="#7ADA45" transform="matrix(1.00, 0.00, -0.00, -1.00, 493.6, 280.7)">h</text><text xml:space="preserve" font-family="Monaco,Monaco" font-size="40.0" fill="#7ADA45" transform="matrix(1.00, 0.00, -0.00, -1.00, 517.6, 280.7)">m</text><text xml:space="preserve" font-family="Monaco,Monaco" font-size="40.0" fill="#7ADA45" transform="matrix(1.00, 0.00, -0.00, -1.00, 541.6, 280.7)">	</text><text xml:space="preserve" font-family="Monaco,Monaco" font-size="40.0" fill="#7ADA45" transform="matrix(1.00, 0.00, -0.00, -1.00, 181.5, 227.7)"> </text><text xml:space="preserve" font-family="Monaco,Monaco" font-size="40.0" fill="#7ADA45" transform="matrix(1.00, 0.00, -0.00, -1.00, 205.5, 227.7)"> </text><text xml:space="preserve" font-family="Monaco,Monaco" font-size="40.0" fill="#7ADA45" transform="matrix(1.00, 0.00, -0.00, -1.00, 229.5, 227.7)">i</text><text xml:space="preserve" font-family="Monaco,Monaco" font-size="40.0" fill="#7ADA45" transform="matrix(1.00, 0.00, -0.00, -1.00, 253.5, 227.7)">n</text><text xml:space="preserve" font-family="Monaco,Monaco" font-size="40.0" fill="#7ADA45" transform="matrix(1.00, 0.00, -0.00, -1.00, 277.5, 227.7)">c</text><text xml:space="preserve" font-family="Monaco,Monaco" font-size="40.0" fill="#7ADA45" transform="matrix(1.00, 0.00, -0.00, -1.00, 301.5, 227.7)">l</text><text xml:space="preserve" font-family="Monaco,Monaco" font-size="40.0" fill="#7ADA45" transform="matrix(1.00, 0.00, -0.00, -1.00, 325.6, 227.7)">u</text><text xml:space="preserve" font-family="Monaco,Monaco" font-size="40.0" fill="#7ADA45" transform="matrix(1.00, 0.00, -0.00, -1.00, 349.6, 227.7)">d</text><text xml:space="preserve" font-family="Monaco,Monaco" font-size="40.0" fill="#7ADA45" transform="matrix(1.00, 0.00, -0.00, -1.00, 373.6, 227.7)">e</text><text xml:space="preserve" font-family="Monaco,Monaco" font-size="40.0" fill="#7ADA45" transform="matrix(1.00, 0.00, -0.00, -1.00, 397.6, 227.7)">	</text><text xml:space="preserve" font-family="Monaco,Monaco" font-size="40.0" fill="#7ADA45" transform="matrix(1.00, 0.00, -0.00, -1.00, 181.5, 174.7)">e</text><text xml:space="preserve" font-family="Monaco,Monaco" font-size="40.0" fill="#7ADA45" transform="matrix(1.00, 0.00, -0.00, -1.00, 205.5, 174.7)">n</text><text xml:space="preserve" font-family="Monaco,Monaco" font-size="40.0" fill="#7ADA45" transform="matrix(1.00, 0.00, -0.00, -1.00, 229.5, 174.7)">d</text><text xml:space="preserve" font-family="Monaco,Monaco" font-size="40.0" fill="#7ADA45" transform="matrix(1.00, 0.00, -0.00, -1.00, 420.2, 227.7)">B</text><text xml:space="preserve" font-family="Monaco,Monaco" font-size="40.0" fill="#7ADA45" transform="matrix(1.00, 0.00, -0.00, -1.00, 444.2, 227.7)">e</text><text xml:space="preserve" font-family="Monaco,Monaco" font-size="40.0" fill="#7ADA45" transform="matrix(1.00, 0.00, -0.00, -1.00, 468.2, 227.7)">s</text><text xml:space="preserve" font-family="Monaco,Monaco" font-size="40.0" fill="#7ADA45" transform="matrix(1.00, 0.00, -0.00, -1.00, 492.2, 227.7)">t</text><text xml:space="preserve" font-family="Monaco,Monaco" font-size="40.0" fill="#7ADA45" transform="matrix(1.00, 0.00, -0.00, -1.00, 516.2, 227.7)">S</text><text xml:space="preserve" font-family="Monaco,Monaco" font-size="40.0" fill="#7ADA45" transform="matrix(1.00, 0.00, -0.00, -1.00, 540.2, 227.7)">o</text><text xml:space="preserve" font-family="Monaco,Monaco" font-size="40.0" fill="#7ADA45" transform="matrix(1.00, 0.00, -0.00, -1.00, 564.2, 227.7)">l</text><text xml:space="preserve" font-family="Monaco,Monaco" font-size="40.0" fill="#7ADA45" transform="matrix(1.00, 0.00, -0.00, -1.00, 588.2, 227.7)">u</text><text xml:space="preserve" font-family="Monaco,Monaco" font-size="40.0" fill="#7ADA45" transform="matrix(1.00, 0.00, -0.00, -1.00, 612.2, 227.7)">t</text><text xml:space="preserve" font-family="Monaco,Monaco" font-size="40.0" fill="#7ADA45" transform="matrix(1.00, 0.00, -0.00, -1.00, 636.2, 227.7)">i</text><text xml:space="preserve" font-family="Monaco,Monaco" font-size="40.0" fill="#7ADA45" transform="matrix(1.00, 0.00, -0.00, -1.00, 660.3, 227.7)">o</text><text xml:space="preserve" font-family="Monaco,Monaco" font-size="40.0" fill="#7ADA45" transform="matrix(1.00, 0.00, -0.00, -1.00, 684.3, 227.7)">n</text></g></svg>