<?xml version="1.0" encoding="UTF-8" standalone="no"?><svg xmlns="http://www.w3.org/2000/svg" xmlns:xlink="http://www.w3.org/1999/xlink" clip-rule="evenodd" stroke-miterlimit="10" viewBox="0 0 551 44"><desc>SVG generated by Keynote</desc><defs></defs><g transform="matrix(1.00, 0.00, -0.00, -1.00, 0.0, 44.0)"><text xml:space="preserve" font-family="Monaco,Monaco" font-size="40.0" fill="#7ADA45" transform="matrix(1.00, 0.00, -0.00, -1.00, -0.1, 11.2)">a</text><text xml:space="preserve" font-family="Monaco,Monaco" font-size="40.0" fill="#7ADA45" transform="matrix(1.00, 0.00, -0.00, -1.00, 23.9, 11.2)">s</text><text xml:space="preserve" font-family="Monaco,Monaco" font-size="40.0" fill="#7ADA45" transform="matrix(1.00, 0.00, -0.00, -1.00, 47.9, 11.2)">s</text><text xml:space="preserve" font-family="Monaco,Monaco" font-size="40.0" fill="#7ADA45" transform="matrix(1.00, 0.00, -0.00, -1.00, 71.9, 11.2)">e</text><text xml:space="preserve" font-family="Monaco,Monaco" font-size="40.0" fill="#7ADA45" transform="matrix(1.00, 0.00, -0.00, -1.00, 95.9, 11.2)">r</text><text xml:space="preserve" font-family="Monaco,Monaco" font-size="40.0" fill="#7ADA45" transform="matrix(1.00, 0.00, -0.00, -1.00, 119.9, 11.2)">t</text><text xml:space="preserve" font-family="Monaco,Monaco" font-size="40.0" fill="#7ADA45" transform="matrix(1.00, 0.00, -0.00, -1.00, 143.9, 11.2)">_</text><text xml:space="preserve" font-family="Monaco,Monaco" font-size="40.0" fill="#7ADA45" transform="matrix(1.00, 0.00, -0.00, -1.00, 167.9, 11.2)">e</text><text xml:space="preserve" font-family="Monaco,Monaco" font-size="40.0" fill="#7ADA45" transform="matrix(1.00, 0.00, -0.00, -1.00, 191.9, 11.2)">q</text><text xml:space="preserve" font-family="Monaco,Monaco" font-size="40.0" fill="#7ADA45" transform="matrix(1.00, 0.00, -0.00, -1.00, 215.9, 11.2)">u</text><text xml:space="preserve" font-family="Monaco,Monaco" font-size="40.0" fill="#7ADA45" transform="matrix(1.00, 0.00, -0.00, -1.00, 239.9, 11.2)">a</text><text xml:space="preserve" font-family="Monaco,Monaco" font-size="40.0" fill="#7ADA45" transform="matrix(1.00, 0.00, -0.00, -1.00, 264.0, 11.2)">l</text><text xml:space="preserve" font-family="Monaco,Monaco" font-size="40.0" fill="#7ADA45" transform="matrix(1.00, 0.00, -0.00, -1.00, 288.0, 11.2)"> </text><text xml:space="preserve" font-family="Monaco,Monaco" font-size="40.0" fill="#7ADA45" transform="matrix(1.00, 0.00, -0.00, -1.00, 312.0, 11.2)">4</text><text xml:space="preserve" font-family="Monaco,Monaco" font-size="40.0" fill="#7ADA45" transform="matrix(1.00, 0.00, -0.00, -1.00, 336.0, 11.2)">2</text><text xml:space="preserve" font-family="Monaco,Monaco" font-size="40.0" fill="#7ADA45" transform="matrix(1.00, 0.00, -0.00, -1.00, 360.0, 11.2)">,</text><text xml:space="preserve" font-family="Monaco,Monaco" font-size="40.0" fill="#7ADA45" transform="matrix(1.00, 0.00, -0.00, -1.00, 384.0, 11.2)"> </text><text xml:space="preserve" font-family="Monaco,Monaco" font-size="40.0" fill="#7ADA45" transform="matrix(1.00, 0.00, -0.00, -1.00, 408.0, 11.2)">a</text><text xml:space="preserve" font-family="Monaco,Monaco" font-size="40.0" fill="#7ADA45" transform="matrix(1.00, 0.00, -0.00, -1.00, 432.0, 11.2)">n</text><text xml:space="preserve" font-family="Monaco,Monaco" font-size="40.0" fill="#7ADA45" transform="matrix(1.00, 0.00, -0.00, -1.00, 456.0, 11.2)">s</text><text xml:space="preserve" font-family="Monaco,Monaco" font-size="40.0" fill="#7ADA45" transform="matrix(1.00, 0.00, -0.00, -1.00, 480.0, 11.2)">w</text><text xml:space="preserve" font-family="Monaco,Monaco" font-size="40.0" fill="#7ADA45" transform="matrix(1.00, 0.00, -0.00, -1.00, 504.0, 11.2)">e</text><text xml:space="preserve" font-family="Monaco,Monaco" font-size="40.0" fill="#7ADA45" transform="matrix(1.00, 0.00, -0.00, -1.00, 528.0, 11.2)">r</text></g></svg>