<?xml version="1.0" encoding="UTF-8" standalone="no"?><svg xmlns="http://www.w3.org/2000/svg" xmlns:xlink="http://www.w3.org/1999/xlink" clip-rule="evenodd" stroke-miterlimit="10" viewBox="0 0 1024 768"><desc>SVG generated by Keynote</desc><defs></defs><g transform="matrix(1.00, 0.00, -0.00, -1.00, 0.0, 768.0)"><path d="M 0.0 768.0 L 1024.0 768.0 L 1024.0 0.0 L 0.0 0.0 Z M 0.0 768.0 " fill="#000000"></path><text xml:space="preserve" font-family="Helvetica-Light,Helvetica" font-size="80.0" fill="#FEFFFF" transform="matrix(1.00, 0.00, -0.00, -1.00, 307.4, 633.4)">H</text><text xml:space="preserve" font-family="Helvetica-Light,Helvetica" font-size="80.0" fill="#FEFFFF" transform="matrix(1.00, 0.00, -0.00, -1.00, 365.2, 633.4)">a</text><text xml:space="preserve" font-family="Helvetica-Light,Helvetica" font-size="80.0" fill="#FEFFFF" transform="matrix(1.00, 0.00, -0.00, -1.00, 409.7, 633.4)">s</text><text xml:space="preserve" font-family="Helvetica-Light,Helvetica" font-size="80.0" fill="#FEFFFF" transform="matrix(1.00, 0.00, -0.00, -1.00, 449.7, 633.4)">h</text><text xml:space="preserve" font-family="Helvetica-Light,Helvetica" font-size="80.0" fill="#FEFFFF" transform="matrix(1.00, 0.00, -0.00, -1.00, 494.2, 633.4)">#</text><text xml:space="preserve" font-family="Helvetica-Light,Helvetica" font-size="80.0" fill="#FEFFFF" transform="matrix(1.00, 0.00, -0.00, -1.00, 538.6, 633.4)">f</text><text xml:space="preserve" font-family="Helvetica-Light,Helvetica" font-size="80.0" fill="#FEFFFF" transform="matrix(1.00, 0.00, -0.00, -1.00, 560.9, 633.4)">e</text><text xml:space="preserve" font-family="Helvetica-Light,Helvetica" font-size="80.0" fill="#FEFFFF" transform="matrix(1.00, 0.00, -0.00, -1.00, 605.4, 633.4)">t</text><text xml:space="preserve" font-family="Helvetica-Light,Helvetica" font-size="80.0" fill="#FEFFFF" transform="matrix(1.00, 0.00, -0.00, -1.00, 627.6, 633.4)">c</text><text xml:space="preserve" font-family="Helvetica-Light,Helvetica" font-size="80.0" fill="#FEFFFF" transform="matrix(1.00, 0.00, -0.00, -1.00, 672.1, 633.4)">h</text><text xml:space="preserve" font-family="Monaco,Monaco" font-size="50.0" fill="#7ADA45" transform="matrix(1.00, 0.00, -0.00, -1.00, 391.5, 484.5)">4</text><text xml:space="preserve" font-family="Monaco,Monaco" font-size="50.0" fill="#7ADA45" transform="matrix(1.00, 0.00, -0.00, -1.00, 421.5, 484.5)"> </text><text xml:space="preserve" font-family="Monaco,Monaco" font-size="50.0" fill="#7ADA45" transform="matrix(1.00, 0.00, -0.00, -1.00, 451.5, 484.5)">!</text><text xml:space="preserve" font-family="Monaco,Monaco" font-size="50.0" fill="#7ADA45" transform="matrix(1.00, 0.00, -0.00, -1.00, 481.5, 484.5)">=</text><text xml:space="preserve" font-family="Monaco,Monaco" font-size="50.0" fill="#7ADA45" transform="matrix(1.00, 0.00, -0.00, -1.00, 511.5, 484.5)"> </text><text xml:space="preserve" font-family="Monaco,Monaco" font-size="50.0" fill="#7ADA45" transform="matrix(1.00, 0.00, -0.00, -1.00, 541.5, 484.5)">“</text><text xml:space="preserve" font-family="Monaco,Monaco" font-size="50.0" fill="#7ADA45" transform="matrix(1.00, 0.00, -0.00, -1.00, 571.5, 484.5)">4</text><text xml:space="preserve" font-family="Monaco,Monaco" font-size="50.0" fill="#7ADA45" transform="matrix(1.00, 0.00, -0.00, -1.00, 601.5, 484.5)">”</text><text xml:space="preserve" font-family="Monaco,Monaco" font-size="50.0" fill="#7ADA45" transform="matrix(1.00, 0.00, -0.00, -1.00, 286.5, 365.1)">h</text><text xml:space="preserve" font-family="Monaco,Monaco" font-size="50.0" fill="#7ADA45" transform="matrix(1.00, 0.00, -0.00, -1.00, 316.5, 365.1)">a</text><text xml:space="preserve" font-family="Monaco,Monaco" font-size="50.0" fill="#7ADA45" transform="matrix(1.00, 0.00, -0.00, -1.00, 346.5, 365.1)">s</text><text xml:space="preserve" font-family="Monaco,Monaco" font-size="50.0" fill="#7ADA45" transform="matrix(1.00, 0.00, -0.00, -1.00, 376.5, 365.1)">h</text><text xml:space="preserve" font-family="Monaco,Monaco" font-size="50.0" fill="#7ADA45" transform="matrix(1.00, 0.00, -0.00, -1.00, 406.5, 365.1)">.</text><text xml:space="preserve" font-family="Monaco,Monaco" font-size="50.0" fill="#7ADA45" transform="matrix(1.00, 0.00, -0.00, -1.00, 436.5, 365.1)">f</text><text xml:space="preserve" font-family="Monaco,Monaco" font-size="50.0" fill="#7ADA45" transform="matrix(1.00, 0.00, -0.00, -1.00, 466.5, 365.1)">e</text><text xml:space="preserve" font-family="Monaco,Monaco" font-size="50.0" fill="#7ADA45" transform="matrix(1.00, 0.00, -0.00, -1.00, 496.5, 365.1)">t</text><text xml:space="preserve" font-family="Monaco,Monaco" font-size="50.0" fill="#7ADA45" transform="matrix(1.00, 0.00, -0.00, -1.00, 526.5, 365.1)">c</text><text xml:space="preserve" font-family="Monaco,Monaco" font-size="50.0" fill="#7ADA45" transform="matrix(1.00, 0.00, -0.00, -1.00, 556.6, 365.1)">h</text><text xml:space="preserve" font-family="Monaco,Monaco" font-size="50.0" fill="#7ADA45" transform="matrix(1.00, 0.00, -0.00, -1.00, 586.6, 365.1)">(</text><text xml:space="preserve" font-family="Monaco,Monaco" font-size="50.0" fill="#7ADA45" transform="matrix(1.00, 0.00, -0.00, -1.00, 616.6, 365.1)">“</text><text xml:space="preserve" font-family="Monaco,Monaco" font-size="50.0" fill="#7ADA45" transform="matrix(1.00, 0.00, -0.00, -1.00, 646.6, 365.1)">4</text><text xml:space="preserve" font-family="Monaco,Monaco" font-size="50.0" fill="#7ADA45" transform="matrix(1.00, 0.00, -0.00, -1.00, 676.6, 365.1)">”</text><text xml:space="preserve" font-family="Monaco,Monaco" font-size="50.0" fill="#7ADA45" transform="matrix(1.00, 0.00, -0.00, -1.00, 706.6, 365.1)">)</text><text xml:space="preserve" font-family="Monaco,Monaco" font-size="50.0" fill="#FF2600" transform="matrix(1.00, 0.00, -0.00, -1.00, 121.4, 245.7)">K</text><text xml:space="preserve" font-family="Monaco,Monaco" font-size="50.0" fill="#FF2600" transform="matrix(1.00, 0.00, -0.00, -1.00, 151.4, 245.7)">e</text><text xml:space="preserve" font-family="Monaco,Monaco" font-size="50.0" fill="#FF2600" transform="matrix(1.00, 0.00, -0.00, -1.00, 181.5, 245.7)">y</text><text xml:space="preserve" font-family="Monaco,Monaco" font-size="50.0" fill="#FF2600" transform="matrix(1.00, 0.00, -0.00, -1.00, 211.5, 245.7)">E</text><text xml:space="preserve" font-family="Monaco,Monaco" font-size="50.0" fill="#FF2600" transform="matrix(1.00, 0.00, -0.00, -1.00, 241.5, 245.7)">r</text><text xml:space="preserve" font-family="Monaco,Monaco" font-size="50.0" fill="#FF2600" transform="matrix(1.00, 0.00, -0.00, -1.00, 271.5, 245.7)">r</text><text xml:space="preserve" font-family="Monaco,Monaco" font-size="50.0" fill="#FF2600" transform="matrix(1.00, 0.00, -0.00, -1.00, 301.5, 245.7)">o</text><text xml:space="preserve" font-family="Monaco,Monaco" font-size="50.0" fill="#FF2600" transform="matrix(1.00, 0.00, -0.00, -1.00, 331.5, 245.7)">r</text><text xml:space="preserve" font-family="Monaco,Monaco" font-size="50.0" fill="#FF2600" transform="matrix(1.00, 0.00, -0.00, -1.00, 361.5, 245.7)">:</text><text xml:space="preserve" font-family="Monaco,Monaco" font-size="50.0" fill="#FF2600" transform="matrix(1.00, 0.00, -0.00, -1.00, 391.5, 245.7)"> </text><text xml:space="preserve" font-family="Monaco,Monaco" font-size="50.0" fill="#FF2600" transform="matrix(1.00, 0.00, -0.00, -1.00, 421.5, 245.7)">k</text><text xml:space="preserve" font-family="Monaco,Monaco" font-size="50.0" fill="#FF2600" transform="matrix(1.00, 0.00, -0.00, -1.00, 451.5, 245.7)">e</text><text xml:space="preserve" font-family="Monaco,Monaco" font-size="50.0" fill="#FF2600" transform="matrix(1.00, 0.00, -0.00, -1.00, 481.6, 245.7)">y</text><text xml:space="preserve" font-family="Monaco,Monaco" font-size="50.0" fill="#FF2600" transform="matrix(1.00, 0.00, -0.00, -1.00, 511.6, 245.7)"> </text><text xml:space="preserve" font-family="Monaco,Monaco" font-size="50.0" fill="#FF2600" transform="matrix(1.00, 0.00, -0.00, -1.00, 541.6, 245.7)">n</text><text xml:space="preserve" font-family="Monaco,Monaco" font-size="50.0" fill="#FF2600" transform="matrix(1.00, 0.00, -0.00, -1.00, 571.6, 245.7)">o</text><text xml:space="preserve" font-family="Monaco,Monaco" font-size="50.0" fill="#FF2600" transform="matrix(1.00, 0.00, -0.00, -1.00, 601.6, 245.7)">t</text><text xml:space="preserve" font-family="Monaco,Monaco" font-size="50.0" fill="#FF2600" transform="matrix(1.00, 0.00, -0.00, -1.00, 631.6, 245.7)"> </text><text xml:space="preserve" font-family="Monaco,Monaco" font-size="50.0" fill="#FF2600" transform="matrix(1.00, 0.00, -0.00, -1.00, 661.6, 245.7)">f</text><text xml:space="preserve" font-family="Monaco,Monaco" font-size="50.0" fill="#FF2600" transform="matrix(1.00, 0.00, -0.00, -1.00, 691.6, 245.7)">o</text><text xml:space="preserve" font-family="Monaco,Monaco" font-size="50.0" fill="#FF2600" transform="matrix(1.00, 0.00, -0.00, -1.00, 721.6, 245.7)">u</text><text xml:space="preserve" font-family="Monaco,Monaco" font-size="50.0" fill="#FF2600" transform="matrix(1.00, 0.00, -0.00, -1.00, 751.6, 245.7)">n</text><text xml:space="preserve" font-family="Monaco,Monaco" font-size="50.0" fill="#FF2600" transform="matrix(1.00, 0.00, -0.00, -1.00, 781.7, 245.7)">d</text><text xml:space="preserve" font-family="Monaco,Monaco" font-size="50.0" fill="#FF2600" transform="matrix(1.00, 0.00, -0.00, -1.00, 811.7, 245.7)">:</text><text xml:space="preserve" font-family="Monaco,Monaco" font-size="50.0" fill="#FF2600" transform="matrix(1.00, 0.00, -0.00, -1.00, 841.7, 245.7)"> </text><text xml:space="preserve" font-family="Monaco,Monaco" font-size="50.0" fill="#FF2600" transform="matrix(1.00, 0.00, -0.00, -1.00, 871.6, 245.7)">“</text><text xml:space="preserve" font-family="Monaco,Monaco" font-size="50.0" fill="#FF2600" transform="matrix(1.00, 0.00, -0.00, -1.00, 901.6, 245.7)">4</text><text xml:space="preserve" font-family="Monaco,Monaco" font-size="50.0" fill="#FF2600" transform="matrix(1.00, 0.00, -0.00, -1.00, 931.6, 245.7)">”</text></g></svg>