<?xml version="1.0" encoding="UTF-8" standalone="no"?><svg xmlns="http://www.w3.org/2000/svg" xmlns:xlink="http://www.w3.org/1999/xlink" clip-rule="evenodd" stroke-miterlimit="10" viewBox="0 0 400 193"><desc>SVG generated by Keynote</desc><defs></defs><g transform="matrix(1.00, 0.00, -0.00, -1.00, 0.0, 193.0)"><text xml:space="preserve" font-family="Monaco,Monaco" font-size="30.0" fill="#7ADA45" transform="matrix(1.00, 0.00, -0.00, -1.00, 1.1, 167.0)"> </text><text xml:space="preserve" font-family="Monaco,Monaco" font-size="30.0" fill="#7ADA45" transform="matrix(1.00, 0.00, -0.00, -1.00, 19.1, 167.0)"> </text><text xml:space="preserve" font-family="Monaco,Monaco" font-size="30.0" fill="#7ADA45" transform="matrix(1.00, 0.00, -0.00, -1.00, 37.2, 167.0)"> </text><text xml:space="preserve" font-family="Monaco,Monaco" font-size="30.0" fill="#7ADA45" transform="matrix(1.00, 0.00, -0.00, -1.00, 55.2, 167.0)"> </text><text xml:space="preserve" font-family="Monaco,Monaco" font-size="30.0" fill="#7ADA45" transform="matrix(1.00, 0.00, -0.00, -1.00, 73.2, 167.0)">i</text><text xml:space="preserve" font-family="Monaco,Monaco" font-size="30.0" fill="#7ADA45" transform="matrix(1.00, 0.00, -0.00, -1.00, 91.2, 167.0)">f</text><text xml:space="preserve" font-family="Monaco,Monaco" font-size="30.0" fill="#7ADA45" transform="matrix(1.00, 0.00, -0.00, -1.00, 109.2, 167.0)"> </text><text xml:space="preserve" font-family="Monaco,Monaco" font-size="30.0" fill="#7ADA45" transform="matrix(1.00, 0.00, -0.00, -1.00, 127.2, 167.0)">r</text><text xml:space="preserve" font-family="Monaco,Monaco" font-size="30.0" fill="#7ADA45" transform="matrix(1.00, 0.00, -0.00, -1.00, 145.2, 167.0)">e</text><text xml:space="preserve" font-family="Monaco,Monaco" font-size="30.0" fill="#7ADA45" transform="matrix(1.00, 0.00, -0.00, -1.00, 163.2, 167.0)">a</text><text xml:space="preserve" font-family="Monaco,Monaco" font-size="30.0" fill="#7ADA45" transform="matrix(1.00, 0.00, -0.00, -1.00, 181.2, 167.0)">c</text><text xml:space="preserve" font-family="Monaco,Monaco" font-size="30.0" fill="#7ADA45" transform="matrix(1.00, 0.00, -0.00, -1.00, 199.2, 167.0)">h</text><text xml:space="preserve" font-family="Monaco,Monaco" font-size="30.0" fill="#7ADA45" transform="matrix(1.00, 0.00, -0.00, -1.00, 217.2, 167.0)">e</text><text xml:space="preserve" font-family="Monaco,Monaco" font-size="30.0" fill="#7ADA45" transform="matrix(1.00, 0.00, -0.00, -1.00, 235.2, 167.0)">d</text><text xml:space="preserve" font-family="Monaco,Monaco" font-size="30.0" fill="#7ADA45" transform="matrix(1.00, 0.00, -0.00, -1.00, 253.2, 167.0)">_</text><text xml:space="preserve" font-family="Monaco,Monaco" font-size="30.0" fill="#7ADA45" transform="matrix(1.00, 0.00, -0.00, -1.00, 271.2, 167.0)">m</text><text xml:space="preserve" font-family="Monaco,Monaco" font-size="30.0" fill="#7ADA45" transform="matrix(1.00, 0.00, -0.00, -1.00, 289.2, 167.0)">o</text><text xml:space="preserve" font-family="Monaco,Monaco" font-size="30.0" fill="#7ADA45" transform="matrix(1.00, 0.00, -0.00, -1.00, 307.2, 167.0)">r</text><text xml:space="preserve" font-family="Monaco,Monaco" font-size="30.0" fill="#7ADA45" transform="matrix(1.00, 0.00, -0.00, -1.00, 325.2, 167.0)">d</text><text xml:space="preserve" font-family="Monaco,Monaco" font-size="30.0" fill="#7ADA45" transform="matrix(1.00, 0.00, -0.00, -1.00, 343.3, 167.0)">o</text><text xml:space="preserve" font-family="Monaco,Monaco" font-size="30.0" fill="#7ADA45" transform="matrix(1.00, 0.00, -0.00, -1.00, 361.3, 167.0)">r</text><text xml:space="preserve" font-family="Monaco,Monaco" font-size="30.0" fill="#7ADA45" transform="matrix(1.00, 0.00, -0.00, -1.00, 379.3, 167.0)">?</text><text xml:space="preserve" font-family="Monaco,Monaco" font-size="30.0" fill="#7ADA45" transform="matrix(1.00, 0.00, -0.00, -1.00, 397.3, 167.0)">	</text><text xml:space="preserve" font-family="Monaco,Monaco" font-size="30.0" fill="#7ADA45" transform="matrix(1.00, 0.00, -0.00, -1.00, 1.1, 126.0)"> </text><text xml:space="preserve" font-family="Monaco,Monaco" font-size="30.0" fill="#7ADA45" transform="matrix(1.00, 0.00, -0.00, -1.00, 19.1, 126.0)"> </text><text xml:space="preserve" font-family="Monaco,Monaco" font-size="30.0" fill="#7ADA45" transform="matrix(1.00, 0.00, -0.00, -1.00, 37.2, 126.0)"> </text><text xml:space="preserve" font-family="Monaco,Monaco" font-size="30.0" fill="#7ADA45" transform="matrix(1.00, 0.00, -0.00, -1.00, 55.2, 126.0)"> </text><text xml:space="preserve" font-family="Monaco,Monaco" font-size="30.0" fill="#7ADA45" transform="matrix(1.00, 0.00, -0.00, -1.00, 73.2, 126.0)"> </text><text xml:space="preserve" font-family="Monaco,Monaco" font-size="30.0" fill="#7ADA45" transform="matrix(1.00, 0.00, -0.00, -1.00, 91.2, 126.0)"> </text><text xml:space="preserve" font-family="Monaco,Monaco" font-size="30.0" fill="#7ADA45" transform="matrix(1.00, 0.00, -0.00, -1.00, 109.2, 126.0)">r</text><text xml:space="preserve" font-family="Monaco,Monaco" font-size="30.0" fill="#7ADA45" transform="matrix(1.00, 0.00, -0.00, -1.00, 127.2, 126.0)">i</text><text xml:space="preserve" font-family="Monaco,Monaco" font-size="30.0" fill="#7ADA45" transform="matrix(1.00, 0.00, -0.00, -1.00, 145.2, 126.0)">n</text><text xml:space="preserve" font-family="Monaco,Monaco" font-size="30.0" fill="#7ADA45" transform="matrix(1.00, 0.00, -0.00, -1.00, 163.2, 126.0)">g</text><text xml:space="preserve" font-family="Monaco,Monaco" font-size="30.0" fill="#7ADA45" transform="matrix(1.00, 0.00, -0.00, -1.00, 181.2, 126.0)">.</text><text xml:space="preserve" font-family="Monaco,Monaco" font-size="30.0" fill="#7ADA45" transform="matrix(1.00, 0.00, -0.00, -1.00, 199.2, 126.0)">d</text><text xml:space="preserve" font-family="Monaco,Monaco" font-size="30.0" fill="#7ADA45" transform="matrix(1.00, 0.00, -0.00, -1.00, 217.2, 126.0)">e</text><text xml:space="preserve" font-family="Monaco,Monaco" font-size="30.0" fill="#7ADA45" transform="matrix(1.00, 0.00, -0.00, -1.00, 235.2, 126.0)">s</text><text xml:space="preserve" font-family="Monaco,Monaco" font-size="30.0" fill="#7ADA45" transform="matrix(1.00, 0.00, -0.00, -1.00, 253.2, 126.0)">t</text><text xml:space="preserve" font-family="Monaco,Monaco" font-size="30.0" fill="#7ADA45" transform="matrix(1.00, 0.00, -0.00, -1.00, 271.2, 126.0)">r</text><text xml:space="preserve" font-family="Monaco,Monaco" font-size="30.0" fill="#7ADA45" transform="matrix(1.00, 0.00, -0.00, -1.00, 289.2, 126.0)">o</text><text xml:space="preserve" font-family="Monaco,Monaco" font-size="30.0" fill="#7ADA45" transform="matrix(1.00, 0.00, -0.00, -1.00, 307.2, 126.0)">y</text><text xml:space="preserve" font-family="Monaco,Monaco" font-size="30.0" fill="#7ADA45" transform="matrix(1.00, 0.00, -0.00, -1.00, 325.2, 126.0)">!</text><text xml:space="preserve" font-family="Monaco,Monaco" font-size="30.0" fill="#7ADA45" transform="matrix(1.00, 0.00, -0.00, -1.00, 343.3, 126.0)">	</text><text xml:space="preserve" font-family="Monaco,Monaco" font-size="30.0" fill="#7ADA45" transform="matrix(1.00, 0.00, -0.00, -1.00, 1.1, 85.0)"> </text><text xml:space="preserve" font-family="Monaco,Monaco" font-size="30.0" fill="#7ADA45" transform="matrix(1.00, 0.00, -0.00, -1.00, 19.1, 85.0)"> </text><text xml:space="preserve" font-family="Monaco,Monaco" font-size="30.0" fill="#7ADA45" transform="matrix(1.00, 0.00, -0.00, -1.00, 37.2, 85.0)"> </text><text xml:space="preserve" font-family="Monaco,Monaco" font-size="30.0" fill="#7ADA45" transform="matrix(1.00, 0.00, -0.00, -1.00, 55.2, 85.0)"> </text><text xml:space="preserve" font-family="Monaco,Monaco" font-size="30.0" fill="#7ADA45" transform="matrix(1.00, 0.00, -0.00, -1.00, 73.2, 85.0)">e</text><text xml:space="preserve" font-family="Monaco,Monaco" font-size="30.0" fill="#7ADA45" transform="matrix(1.00, 0.00, -0.00, -1.00, 91.2, 85.0)">l</text><text xml:space="preserve" font-family="Monaco,Monaco" font-size="30.0" fill="#7ADA45" transform="matrix(1.00, 0.00, -0.00, -1.00, 109.2, 85.0)">s</text><text xml:space="preserve" font-family="Monaco,Monaco" font-size="30.0" fill="#7ADA45" transform="matrix(1.00, 0.00, -0.00, -1.00, 127.2, 85.0)">e</text><text xml:space="preserve" font-family="Monaco,Monaco" font-size="30.0" fill="#7ADA45" transform="matrix(1.00, 0.00, -0.00, -1.00, 145.2, 85.0)">	</text><text xml:space="preserve" font-family="Monaco,Monaco" font-size="30.0" fill="#7ADA45" transform="matrix(1.00, 0.00, -0.00, -1.00, 1.1, 44.0)"> </text><text xml:space="preserve" font-family="Monaco,Monaco" font-size="30.0" fill="#7ADA45" transform="matrix(1.00, 0.00, -0.00, -1.00, 19.1, 44.0)"> </text><text xml:space="preserve" font-family="Monaco,Monaco" font-size="30.0" fill="#7ADA45" transform="matrix(1.00, 0.00, -0.00, -1.00, 37.2, 44.0)"> </text><text xml:space="preserve" font-family="Monaco,Monaco" font-size="30.0" fill="#7ADA45" transform="matrix(1.00, 0.00, -0.00, -1.00, 55.2, 44.0)"> </text><text xml:space="preserve" font-family="Monaco,Monaco" font-size="30.0" fill="#7ADA45" transform="matrix(1.00, 0.00, -0.00, -1.00, 73.2, 44.0)"> </text><text xml:space="preserve" font-family="Monaco,Monaco" font-size="30.0" fill="#7ADA45" transform="matrix(1.00, 0.00, -0.00, -1.00, 91.2, 44.0)"> </text><text xml:space="preserve" font-family="Monaco,Monaco" font-size="30.0" fill="#7ADA45" transform="matrix(1.00, 0.00, -0.00, -1.00, 109.2, 44.0)">k</text><text xml:space="preserve" font-family="Monaco,Monaco" font-size="30.0" fill="#7ADA45" transform="matrix(1.00, 0.00, -0.00, -1.00, 127.2, 44.0)">e</text><text xml:space="preserve" font-family="Monaco,Monaco" font-size="30.0" fill="#7ADA45" transform="matrix(1.00, 0.00, -0.00, -1.00, 145.2, 44.0)">e</text><text xml:space="preserve" font-family="Monaco,Monaco" font-size="30.0" fill="#7ADA45" transform="matrix(1.00, 0.00, -0.00, -1.00, 163.2, 44.0)">p</text><text xml:space="preserve" font-family="Monaco,Monaco" font-size="30.0" fill="#7ADA45" transform="matrix(1.00, 0.00, -0.00, -1.00, 181.2, 44.0)">_</text><text xml:space="preserve" font-family="Monaco,Monaco" font-size="30.0" fill="#7ADA45" transform="matrix(1.00, 0.00, -0.00, -1.00, 199.2, 44.0)">o</text><text xml:space="preserve" font-family="Monaco,Monaco" font-size="30.0" fill="#7ADA45" transform="matrix(1.00, 0.00, -0.00, -1.00, 217.2, 44.0)">n</text><text xml:space="preserve" font-family="Monaco,Monaco" font-size="30.0" fill="#7ADA45" transform="matrix(1.00, 0.00, -0.00, -1.00, 235.2, 44.0)">_</text><text xml:space="preserve" font-family="Monaco,Monaco" font-size="30.0" fill="#7ADA45" transform="matrix(1.00, 0.00, -0.00, -1.00, 253.2, 44.0)">w</text><text xml:space="preserve" font-family="Monaco,Monaco" font-size="30.0" fill="#7ADA45" transform="matrix(1.00, 0.00, -0.00, -1.00, 271.2, 44.0)">a</text><text xml:space="preserve" font-family="Monaco,Monaco" font-size="30.0" fill="#7ADA45" transform="matrix(1.00, 0.00, -0.00, -1.00, 289.2, 44.0)">l</text><text xml:space="preserve" font-family="Monaco,Monaco" font-size="30.0" fill="#7ADA45" transform="matrix(1.00, 0.00, -0.00, -1.00, 307.2, 44.0)">k</text><text xml:space="preserve" font-family="Monaco,Monaco" font-size="30.0" fill="#7ADA45" transform="matrix(1.00, 0.00, -0.00, -1.00, 325.2, 44.0)">i</text><text xml:space="preserve" font-family="Monaco,Monaco" font-size="30.0" fill="#7ADA45" transform="matrix(1.00, 0.00, -0.00, -1.00, 343.3, 44.0)">n</text><text xml:space="preserve" font-family="Monaco,Monaco" font-size="30.0" fill="#7ADA45" transform="matrix(1.00, 0.00, -0.00, -1.00, 361.3, 44.0)">g</text><text xml:space="preserve" font-family="Monaco,Monaco" font-size="30.0" fill="#7ADA45" transform="matrix(1.00, 0.00, -0.00, -1.00, 379.3, 44.0)">!</text><text xml:space="preserve" font-family="Monaco,Monaco" font-size="30.0" fill="#7ADA45" transform="matrix(1.00, 0.00, -0.00, -1.00, 397.3, 44.0)">	</text><text xml:space="preserve" font-family="Monaco,Monaco" font-size="30.0" fill="#7ADA45" transform="matrix(1.00, 0.00, -0.00, -1.00, 1.1, 3.0)"> </text><text xml:space="preserve" font-family="Monaco,Monaco" font-size="30.0" fill="#7ADA45" transform="matrix(1.00, 0.00, -0.00, -1.00, 19.1, 3.0)"> </text><text xml:space="preserve" font-family="Monaco,Monaco" font-size="30.0" fill="#7ADA45" transform="matrix(1.00, 0.00, -0.00, -1.00, 37.2, 3.0)"> </text><text xml:space="preserve" font-family="Monaco,Monaco" font-size="30.0" fill="#7ADA45" transform="matrix(1.00, 0.00, -0.00, -1.00, 55.2, 3.0)"> </text><text xml:space="preserve" font-family="Monaco,Monaco" font-size="30.0" fill="#7ADA45" transform="matrix(1.00, 0.00, -0.00, -1.00, 73.2, 3.0)">e</text><text xml:space="preserve" font-family="Monaco,Monaco" font-size="30.0" fill="#7ADA45" transform="matrix(1.00, 0.00, -0.00, -1.00, 91.2, 3.0)">n</text><text xml:space="preserve" font-family="Monaco,Monaco" font-size="30.0" fill="#7ADA45" transform="matrix(1.00, 0.00, -0.00, -1.00, 109.2, 3.0)">d</text></g></svg>