<?xml version="1.0" encoding="UTF-8" standalone="no"?><svg xmlns="http://www.w3.org/2000/svg" xmlns:xlink="http://www.w3.org/1999/xlink" clip-rule="evenodd" stroke-miterlimit="10" viewBox="0 0 215 29"><desc>SVG generated by Keynote</desc><defs></defs><g transform="matrix(1.00, 0.00, -0.00, -1.00, 0.0, 29.0)"><text xml:space="preserve" font-family="Monaco,Monaco" font-size="30.0" fill="#7ADA45" transform="matrix(1.00, 0.00, -0.00, -1.00, -0.9, 3.0)">c</text><text xml:space="preserve" font-family="Monaco,Monaco" font-size="30.0" fill="#7ADA45" transform="matrix(1.00, 0.00, -0.00, -1.00, 17.1, 3.0)">l</text><text xml:space="preserve" font-family="Monaco,Monaco" font-size="30.0" fill="#7ADA45" transform="matrix(1.00, 0.00, -0.00, -1.00, 35.2, 3.0)">a</text><text xml:space="preserve" font-family="Monaco,Monaco" font-size="30.0" fill="#7ADA45" transform="matrix(1.00, 0.00, -0.00, -1.00, 53.2, 3.0)">s</text><text xml:space="preserve" font-family="Monaco,Monaco" font-size="30.0" fill="#7ADA45" transform="matrix(1.00, 0.00, -0.00, -1.00, 71.2, 3.0)">s</text><text xml:space="preserve" font-family="Monaco,Monaco" font-size="30.0" fill="#7ADA45" transform="matrix(1.00, 0.00, -0.00, -1.00, 89.2, 3.0)"> </text><text xml:space="preserve" font-family="Monaco,Monaco" font-size="30.0" fill="#7ADA45" transform="matrix(1.00, 0.00, -0.00, -1.00, 107.2, 3.0)">H</text><text xml:space="preserve" font-family="Monaco,Monaco" font-size="30.0" fill="#7ADA45" transform="matrix(1.00, 0.00, -0.00, -1.00, 125.2, 3.0)">o</text><text xml:space="preserve" font-family="Monaco,Monaco" font-size="30.0" fill="#7ADA45" transform="matrix(1.00, 0.00, -0.00, -1.00, 143.2, 3.0)">b</text><text xml:space="preserve" font-family="Monaco,Monaco" font-size="30.0" fill="#7ADA45" transform="matrix(1.00, 0.00, -0.00, -1.00, 161.2, 3.0)">b</text><text xml:space="preserve" font-family="Monaco,Monaco" font-size="30.0" fill="#7ADA45" transform="matrix(1.00, 0.00, -0.00, -1.00, 179.2, 3.0)">i</text><text xml:space="preserve" font-family="Monaco,Monaco" font-size="30.0" fill="#7ADA45" transform="matrix(1.00, 0.00, -0.00, -1.00, 197.2, 3.0)">t</text></g></svg>