<?xml version="1.0" encoding="UTF-8" standalone="no"?><svg xmlns="http://www.w3.org/2000/svg" xmlns:xlink="http://www.w3.org/1999/xlink" clip-rule="evenodd" stroke-miterlimit="10" viewBox="0 0 343 35"><desc>SVG generated by Keynote</desc><defs></defs><g transform="matrix(1.00, 0.00, -0.00, -1.00, 0.0, 35.0)"><text xml:space="preserve" font-family="Monaco,Monaco" font-size="30.0" fill="#7ADA45" transform="matrix(1.00, 0.00, -0.00, -1.00, 1.4, 8.6)"> </text><text xml:space="preserve" font-family="Monaco,Monaco" font-size="30.0" fill="#7ADA45" transform="matrix(1.00, 0.00, -0.00, -1.00, 19.4, 8.6)"> </text><text xml:space="preserve" font-family="Monaco,Monaco" font-size="30.0" fill="#7ADA45" transform="matrix(1.00, 0.00, -0.00, -1.00, 37.4, 8.6)">d</text><text xml:space="preserve" font-family="Monaco,Monaco" font-size="30.0" fill="#7ADA45" transform="matrix(1.00, 0.00, -0.00, -1.00, 55.4, 8.6)">e</text><text xml:space="preserve" font-family="Monaco,Monaco" font-size="30.0" fill="#7ADA45" transform="matrix(1.00, 0.00, -0.00, -1.00, 73.5, 8.6)">f</text><text xml:space="preserve" font-family="Monaco,Monaco" font-size="30.0" fill="#7ADA45" transform="matrix(1.00, 0.00, -0.00, -1.00, 91.5, 8.6)"> </text><text xml:space="preserve" font-family="Monaco,Monaco" font-size="30.0" fill="#7ADA45" transform="matrix(1.00, 0.00, -0.00, -1.00, 109.5, 8.6)">d</text><text xml:space="preserve" font-family="Monaco,Monaco" font-size="30.0" fill="#7ADA45" transform="matrix(1.00, 0.00, -0.00, -1.00, 127.5, 8.6)">e</text><text xml:space="preserve" font-family="Monaco,Monaco" font-size="30.0" fill="#7ADA45" transform="matrix(1.00, 0.00, -0.00, -1.00, 145.5, 8.6)">s</text><text xml:space="preserve" font-family="Monaco,Monaco" font-size="30.0" fill="#7ADA45" transform="matrix(1.00, 0.00, -0.00, -1.00, 163.5, 8.6)">t</text><text xml:space="preserve" font-family="Monaco,Monaco" font-size="30.0" fill="#7ADA45" transform="matrix(1.00, 0.00, -0.00, -1.00, 181.5, 8.6)">r</text><text xml:space="preserve" font-family="Monaco,Monaco" font-size="30.0" fill="#7ADA45" transform="matrix(1.00, 0.00, -0.00, -1.00, 199.5, 8.6)">o</text><text xml:space="preserve" font-family="Monaco,Monaco" font-size="30.0" fill="#7ADA45" transform="matrix(1.00, 0.00, -0.00, -1.00, 217.5, 8.6)">y</text><text xml:space="preserve" font-family="Monaco,Monaco" font-size="30.0" fill="#7ADA45" transform="matrix(1.00, 0.00, -0.00, -1.00, 235.5, 8.6)">(</text><text xml:space="preserve" font-family="Monaco,Monaco" font-size="30.0" fill="#7ADA45" transform="matrix(1.00, 0.00, -0.00, -1.00, 253.5, 8.6)">r</text><text xml:space="preserve" font-family="Monaco,Monaco" font-size="30.0" fill="#7ADA45" transform="matrix(1.00, 0.00, -0.00, -1.00, 271.5, 8.6)">i</text><text xml:space="preserve" font-family="Monaco,Monaco" font-size="30.0" fill="#7ADA45" transform="matrix(1.00, 0.00, -0.00, -1.00, 289.5, 8.6)">n</text><text xml:space="preserve" font-family="Monaco,Monaco" font-size="30.0" fill="#7ADA45" transform="matrix(1.00, 0.00, -0.00, -1.00, 307.5, 8.6)">g</text><text xml:space="preserve" font-family="Monaco,Monaco" font-size="30.0" fill="#7ADA45" transform="matrix(1.00, 0.00, -0.00, -1.00, 325.5, 8.6)">)</text></g></svg>