<?xml version="1.0" encoding="UTF-8" standalone="no"?><svg xmlns="http://www.w3.org/2000/svg" xmlns:xlink="http://www.w3.org/1999/xlink" clip-rule="evenodd" stroke-miterlimit="10" viewBox="0 0 1024 768"><desc>SVG generated by Keynote</desc><defs></defs><g transform="matrix(1.00, 0.00, -0.00, -1.00, 0.0, 768.0)"><path d="M 0.0 768.0 L 1024.0 768.0 L 1024.0 0.0 L 0.0 0.0 Z M 0.0 768.0 " fill="#000000"></path><text xml:space="preserve" font-family="Helvetica-Light,Helvetica" font-size="80.0" fill="#FEFFFF" transform="matrix(1.00, 0.00, -0.00, -1.00, 276.4, 633.4)">E</text><text xml:space="preserve" font-family="Helvetica-Light,Helvetica" font-size="80.0" fill="#FEFFFF" transform="matrix(1.00, 0.00, -0.00, -1.00, 325.3, 633.4)">n</text><text xml:space="preserve" font-family="Helvetica-Light,Helvetica" font-size="80.0" fill="#FEFFFF" transform="matrix(1.00, 0.00, -0.00, -1.00, 369.8, 633.4)">u</text><text xml:space="preserve" font-family="Helvetica-Light,Helvetica" font-size="80.0" fill="#FEFFFF" transform="matrix(1.00, 0.00, -0.00, -1.00, 414.2, 633.4)">m</text><text xml:space="preserve" font-family="Helvetica-Light,Helvetica" font-size="80.0" fill="#FEFFFF" transform="matrix(1.00, 0.00, -0.00, -1.00, 480.9, 633.4)">e</text><text xml:space="preserve" font-family="Helvetica-Light,Helvetica" font-size="80.0" fill="#FEFFFF" transform="matrix(1.00, 0.00, -0.00, -1.00, 525.4, 633.4)">r</text><text xml:space="preserve" font-family="Helvetica-Light,Helvetica" font-size="80.0" fill="#FEFFFF" transform="matrix(1.00, 0.00, -0.00, -1.00, 552.0, 633.4)">a</text><text xml:space="preserve" font-family="Helvetica-Light,Helvetica" font-size="80.0" fill="#FEFFFF" transform="matrix(1.00, 0.00, -0.00, -1.00, 596.5, 633.4)">b</text><text xml:space="preserve" font-family="Helvetica-Light,Helvetica" font-size="80.0" fill="#FEFFFF" transform="matrix(1.00, 0.00, -0.00, -1.00, 645.4, 633.4)">l</text><text xml:space="preserve" font-family="Helvetica-Light,Helvetica" font-size="80.0" fill="#FEFFFF" transform="matrix(1.00, 0.00, -0.00, -1.00, 663.1, 633.4)">e</text><text xml:space="preserve" font-family="Helvetica-Light,Helvetica" font-size="80.0" fill="#FEFFFF" transform="matrix(1.00, 0.00, -0.00, -1.00, 707.6, 633.4)">s</text><text xml:space="preserve" font-family="Monaco,Monaco" font-size="40.0" fill="#7ADA45" transform="matrix(1.00, 0.00, -0.00, -1.00, 59.7, 399.7)">f</text><text xml:space="preserve" font-family="Monaco,Monaco" font-size="40.0" fill="#7ADA45" transform="matrix(1.00, 0.00, -0.00, -1.00, 83.7, 399.7)">o</text><text xml:space="preserve" font-family="Monaco,Monaco" font-size="40.0" fill="#7ADA45" transform="matrix(1.00, 0.00, -0.00, -1.00, 107.7, 399.7)">r</text><text xml:space="preserve" font-family="Monaco,Monaco" font-size="40.0" fill="#7ADA45" transform="matrix(1.00, 0.00, -0.00, -1.00, 131.7, 399.7)"> </text><text xml:space="preserve" font-family="Monaco,Monaco" font-size="40.0" fill="#7ADA45" transform="matrix(1.00, 0.00, -0.00, -1.00, 155.7, 399.7)">(</text><text xml:space="preserve" font-family="Monaco,Monaco" font-size="40.0" fill="#7ADA45" transform="matrix(1.00, 0.00, -0.00, -1.00, 179.7, 399.7)">i</text><text xml:space="preserve" font-family="Monaco,Monaco" font-size="40.0" fill="#7ADA45" transform="matrix(1.00, 0.00, -0.00, -1.00, 203.7, 399.7)"> </text><text xml:space="preserve" font-family="Monaco,Monaco" font-size="40.0" fill="#7ADA45" transform="matrix(1.00, 0.00, -0.00, -1.00, 227.7, 399.7)">=</text><text xml:space="preserve" font-family="Monaco,Monaco" font-size="40.0" fill="#7ADA45" transform="matrix(1.00, 0.00, -0.00, -1.00, 251.7, 399.7)"> </text><text xml:space="preserve" font-family="Monaco,Monaco" font-size="40.0" fill="#7ADA45" transform="matrix(1.00, 0.00, -0.00, -1.00, 275.7, 399.7)">0</text><text xml:space="preserve" font-family="Monaco,Monaco" font-size="40.0" fill="#7ADA45" transform="matrix(1.00, 0.00, -0.00, -1.00, 299.7, 399.7)">;</text><text xml:space="preserve" font-family="Monaco,Monaco" font-size="40.0" fill="#7ADA45" transform="matrix(1.00, 0.00, -0.00, -1.00, 323.7, 399.7)"> </text><text xml:space="preserve" font-family="Monaco,Monaco" font-size="40.0" fill="#7ADA45" transform="matrix(1.00, 0.00, -0.00, -1.00, 347.8, 399.7)">i</text><text xml:space="preserve" font-family="Monaco,Monaco" font-size="40.0" fill="#7ADA45" transform="matrix(1.00, 0.00, -0.00, -1.00, 371.8, 399.7)"> </text><text xml:space="preserve" font-family="Monaco,Monaco" font-size="40.0" fill="#7ADA45" transform="matrix(1.00, 0.00, -0.00, -1.00, 395.8, 399.7)">&lt;</text><text xml:space="preserve" font-family="Monaco,Monaco" font-size="40.0" fill="#7ADA45" transform="matrix(1.00, 0.00, -0.00, -1.00, 419.8, 399.7)">=</text><text xml:space="preserve" font-family="Monaco,Monaco" font-size="40.0" fill="#7ADA45" transform="matrix(1.00, 0.00, -0.00, -1.00, 443.8, 399.7)"> </text><text xml:space="preserve" font-family="Monaco,Monaco" font-size="40.0" fill="#7ADA45" transform="matrix(1.00, 0.00, -0.00, -1.00, 467.8, 399.7)">a</text><text xml:space="preserve" font-family="Monaco,Monaco" font-size="40.0" fill="#7ADA45" transform="matrix(1.00, 0.00, -0.00, -1.00, 491.8, 399.7)">r</text><text xml:space="preserve" font-family="Monaco,Monaco" font-size="40.0" fill="#7ADA45" transform="matrix(1.00, 0.00, -0.00, -1.00, 515.8, 399.7)">r</text><text xml:space="preserve" font-family="Monaco,Monaco" font-size="40.0" fill="#7ADA45" transform="matrix(1.00, 0.00, -0.00, -1.00, 539.8, 399.7)">a</text><text xml:space="preserve" font-family="Monaco,Monaco" font-size="40.0" fill="#7ADA45" transform="matrix(1.00, 0.00, -0.00, -1.00, 563.8, 399.7)">y</text><text xml:space="preserve" font-family="Monaco,Monaco" font-size="40.0" fill="#7ADA45" transform="matrix(1.00, 0.00, -0.00, -1.00, 587.8, 399.7)">.</text><text xml:space="preserve" font-family="Monaco,Monaco" font-size="40.0" fill="#7ADA45" transform="matrix(1.00, 0.00, -0.00, -1.00, 611.8, 399.7)">l</text><text xml:space="preserve" font-family="Monaco,Monaco" font-size="40.0" fill="#7ADA45" transform="matrix(1.00, 0.00, -0.00, -1.00, 635.9, 399.7)">e</text><text xml:space="preserve" font-family="Monaco,Monaco" font-size="40.0" fill="#7ADA45" transform="matrix(1.00, 0.00, -0.00, -1.00, 659.9, 399.7)">n</text><text xml:space="preserve" font-family="Monaco,Monaco" font-size="40.0" fill="#7ADA45" transform="matrix(1.00, 0.00, -0.00, -1.00, 683.9, 399.7)">g</text><text xml:space="preserve" font-family="Monaco,Monaco" font-size="40.0" fill="#7ADA45" transform="matrix(1.00, 0.00, -0.00, -1.00, 707.9, 399.7)">t</text><text xml:space="preserve" font-family="Monaco,Monaco" font-size="40.0" fill="#7ADA45" transform="matrix(1.00, 0.00, -0.00, -1.00, 731.9, 399.7)">h</text><text xml:space="preserve" font-family="Monaco,Monaco" font-size="40.0" fill="#7ADA45" transform="matrix(1.00, 0.00, -0.00, -1.00, 755.9, 399.7)">;</text><text xml:space="preserve" font-family="Monaco,Monaco" font-size="40.0" fill="#7ADA45" transform="matrix(1.00, 0.00, -0.00, -1.00, 779.9, 399.7)"> </text><text xml:space="preserve" font-family="Monaco,Monaco" font-size="40.0" fill="#7ADA45" transform="matrix(1.00, 0.00, -0.00, -1.00, 803.9, 399.7)">i</text><text xml:space="preserve" font-family="Monaco,Monaco" font-size="40.0" fill="#7ADA45" transform="matrix(1.00, 0.00, -0.00, -1.00, 827.9, 399.7)">+</text><text xml:space="preserve" font-family="Monaco,Monaco" font-size="40.0" fill="#7ADA45" transform="matrix(1.00, 0.00, -0.00, -1.00, 851.9, 399.7)">+</text><text xml:space="preserve" font-family="Monaco,Monaco" font-size="40.0" fill="#7ADA45" transform="matrix(1.00, 0.00, -0.00, -1.00, 875.9, 399.7)">)</text><text xml:space="preserve" font-family="Monaco,Monaco" font-size="40.0" fill="#7ADA45" transform="matrix(1.00, 0.00, -0.00, -1.00, 899.9, 399.7)"> </text><text xml:space="preserve" font-family="Monaco,Monaco" font-size="40.0" fill="#7ADA45" transform="matrix(1.00, 0.00, -0.00, -1.00, 923.9, 399.7)">{</text><text xml:space="preserve" font-family="Monaco,Monaco" font-size="40.0" fill="#7ADA45" transform="matrix(1.00, 0.00, -0.00, -1.00, 947.8, 399.7)">	</text><text xml:space="preserve" font-family="Monaco,Monaco" font-size="40.0" fill="#7ADA45" transform="matrix(1.00, 0.00, -0.00, -1.00, 59.7, 346.7)"> </text><text xml:space="preserve" font-family="Monaco,Monaco" font-size="40.0" fill="#7ADA45" transform="matrix(1.00, 0.00, -0.00, -1.00, 83.7, 346.7)"> </text><text xml:space="preserve" font-family="Monaco,Monaco" font-size="40.0" fill="#7ADA45" transform="matrix(1.00, 0.00, -0.00, -1.00, 107.7, 346.7)">d</text><text xml:space="preserve" font-family="Monaco,Monaco" font-size="40.0" fill="#7ADA45" transform="matrix(1.00, 0.00, -0.00, -1.00, 131.7, 346.7)">o</text><text xml:space="preserve" font-family="Monaco,Monaco" font-size="40.0" fill="#7ADA45" transform="matrix(1.00, 0.00, -0.00, -1.00, 155.7, 346.7)">S</text><text xml:space="preserve" font-family="Monaco,Monaco" font-size="40.0" fill="#7ADA45" transform="matrix(1.00, 0.00, -0.00, -1.00, 179.7, 346.7)">t</text><text xml:space="preserve" font-family="Monaco,Monaco" font-size="40.0" fill="#7ADA45" transform="matrix(1.00, 0.00, -0.00, -1.00, 203.7, 346.7)">u</text><text xml:space="preserve" font-family="Monaco,Monaco" font-size="40.0" fill="#7ADA45" transform="matrix(1.00, 0.00, -0.00, -1.00, 227.7, 346.7)">f</text><text xml:space="preserve" font-family="Monaco,Monaco" font-size="40.0" fill="#7ADA45" transform="matrix(1.00, 0.00, -0.00, -1.00, 251.7, 346.7)">f</text><text xml:space="preserve" font-family="Monaco,Monaco" font-size="40.0" fill="#7ADA45" transform="matrix(1.00, 0.00, -0.00, -1.00, 275.7, 346.7)">(</text><text xml:space="preserve" font-family="Monaco,Monaco" font-size="40.0" fill="#7ADA45" transform="matrix(1.00, 0.00, -0.00, -1.00, 299.7, 346.7)">a</text><text xml:space="preserve" font-family="Monaco,Monaco" font-size="40.0" fill="#7ADA45" transform="matrix(1.00, 0.00, -0.00, -1.00, 323.7, 346.7)">r</text><text xml:space="preserve" font-family="Monaco,Monaco" font-size="40.0" fill="#7ADA45" transform="matrix(1.00, 0.00, -0.00, -1.00, 347.8, 346.7)">r</text><text xml:space="preserve" font-family="Monaco,Monaco" font-size="40.0" fill="#7ADA45" transform="matrix(1.00, 0.00, -0.00, -1.00, 371.8, 346.7)">a</text><text xml:space="preserve" font-family="Monaco,Monaco" font-size="40.0" fill="#7ADA45" transform="matrix(1.00, 0.00, -0.00, -1.00, 395.8, 346.7)">y</text><text xml:space="preserve" font-family="Monaco,Monaco" font-size="40.0" fill="#7ADA45" transform="matrix(1.00, 0.00, -0.00, -1.00, 419.8, 346.7)">[</text><text xml:space="preserve" font-family="Monaco,Monaco" font-size="40.0" fill="#7ADA45" transform="matrix(1.00, 0.00, -0.00, -1.00, 443.8, 346.7)">i</text><text xml:space="preserve" font-family="Monaco,Monaco" font-size="40.0" fill="#7ADA45" transform="matrix(1.00, 0.00, -0.00, -1.00, 467.8, 346.7)">]</text><text xml:space="preserve" font-family="Monaco,Monaco" font-size="40.0" fill="#7ADA45" transform="matrix(1.00, 0.00, -0.00, -1.00, 491.8, 346.7)">)</text><text xml:space="preserve" font-family="Monaco,Monaco" font-size="40.0" fill="#7ADA45" transform="matrix(1.00, 0.00, -0.00, -1.00, 515.8, 346.7)">	</text><text xml:space="preserve" font-family="Monaco,Monaco" font-size="40.0" fill="#7ADA45" transform="matrix(1.00, 0.00, -0.00, -1.00, 59.7, 293.7)">}</text><text xml:space="preserve" font-family="Monaco,Monaco" font-size="40.0" fill="#7ADA45" transform="matrix(1.00, 0.00, -0.00, -1.00, 344.3, 522.6)">a</text><text xml:space="preserve" font-family="Monaco,Monaco" font-size="40.0" fill="#7ADA45" transform="matrix(1.00, 0.00, -0.00, -1.00, 368.3, 522.6)">r</text><text xml:space="preserve" font-family="Monaco,Monaco" font-size="40.0" fill="#7ADA45" transform="matrix(1.00, 0.00, -0.00, -1.00, 392.3, 522.6)">r</text><text xml:space="preserve" font-family="Monaco,Monaco" font-size="40.0" fill="#7ADA45" transform="matrix(1.00, 0.00, -0.00, -1.00, 416.3, 522.6)">a</text><text xml:space="preserve" font-family="Monaco,Monaco" font-size="40.0" fill="#7ADA45" transform="matrix(1.00, 0.00, -0.00, -1.00, 440.3, 522.6)">y</text><text xml:space="preserve" font-family="Monaco,Monaco" font-size="40.0" fill="#7ADA45" transform="matrix(1.00, 0.00, -0.00, -1.00, 464.3, 522.6)"> </text><text xml:space="preserve" font-family="Monaco,Monaco" font-size="40.0" fill="#7ADA45" transform="matrix(1.00, 0.00, -0.00, -1.00, 488.3, 522.6)">=</text><text xml:space="preserve" font-family="Monaco,Monaco" font-size="40.0" fill="#7ADA45" transform="matrix(1.00, 0.00, -0.00, -1.00, 512.3, 522.6)"> </text><text xml:space="preserve" font-family="Monaco,Monaco" font-size="40.0" fill="#7ADA45" transform="matrix(1.00, 0.00, -0.00, -1.00, 536.3, 522.6)">[</text><text xml:space="preserve" font-family="Monaco,Monaco" font-size="40.0" fill="#7ADA45" transform="matrix(1.00, 0.00, -0.00, -1.00, 560.3, 522.6)">1</text><text xml:space="preserve" font-family="Monaco,Monaco" font-size="40.0" fill="#7ADA45" transform="matrix(1.00, 0.00, -0.00, -1.00, 584.3, 522.6)">,</text><text xml:space="preserve" font-family="Monaco,Monaco" font-size="40.0" fill="#7ADA45" transform="matrix(1.00, 0.00, -0.00, -1.00, 608.3, 522.6)"> </text><text xml:space="preserve" font-family="Monaco,Monaco" font-size="40.0" fill="#7ADA45" transform="matrix(1.00, 0.00, -0.00, -1.00, 632.3, 522.6)">2</text><text xml:space="preserve" font-family="Monaco,Monaco" font-size="40.0" fill="#7ADA45" transform="matrix(1.00, 0.00, -0.00, -1.00, 656.4, 522.6)">,</text><text xml:space="preserve" font-family="Monaco,Monaco" font-size="40.0" fill="#7ADA45" transform="matrix(1.00, 0.00, -0.00, -1.00, 680.4, 522.6)"> </text><text xml:space="preserve" font-family="Monaco,Monaco" font-size="40.0" fill="#7ADA45" transform="matrix(1.00, 0.00, -0.00, -1.00, 704.4, 522.6)">3</text><text xml:space="preserve" font-family="Monaco,Monaco" font-size="40.0" fill="#7ADA45" transform="matrix(1.00, 0.00, -0.00, -1.00, 728.4, 522.6)">]</text><text xml:space="preserve" font-family="Monaco,Monaco" font-size="40.0" fill="#7ADA45" transform="matrix(1.00, 0.00, -0.00, -1.00, 183.8, 170.9)">a</text><text xml:space="preserve" font-family="Monaco,Monaco" font-size="40.0" fill="#7ADA45" transform="matrix(1.00, 0.00, -0.00, -1.00, 207.8, 170.9)">r</text><text xml:space="preserve" font-family="Monaco,Monaco" font-size="40.0" fill="#7ADA45" transform="matrix(1.00, 0.00, -0.00, -1.00, 231.8, 170.9)">r</text><text xml:space="preserve" font-family="Monaco,Monaco" font-size="40.0" fill="#7ADA45" transform="matrix(1.00, 0.00, -0.00, -1.00, 255.9, 170.9)">a</text><text xml:space="preserve" font-family="Monaco,Monaco" font-size="40.0" fill="#7ADA45" transform="matrix(1.00, 0.00, -0.00, -1.00, 279.9, 170.9)">y</text><text xml:space="preserve" font-family="Monaco,Monaco" font-size="40.0" fill="#7ADA45" transform="matrix(1.00, 0.00, -0.00, -1.00, 303.9, 170.9)">.</text><text xml:space="preserve" font-family="Monaco,Monaco" font-size="40.0" fill="#7ADA45" transform="matrix(1.00, 0.00, -0.00, -1.00, 327.9, 170.9)">e</text><text xml:space="preserve" font-family="Monaco,Monaco" font-size="40.0" fill="#7ADA45" transform="matrix(1.00, 0.00, -0.00, -1.00, 351.9, 170.9)">a</text><text xml:space="preserve" font-family="Monaco,Monaco" font-size="40.0" fill="#7ADA45" transform="matrix(1.00, 0.00, -0.00, -1.00, 375.9, 170.9)">c</text><text xml:space="preserve" font-family="Monaco,Monaco" font-size="40.0" fill="#7ADA45" transform="matrix(1.00, 0.00, -0.00, -1.00, 399.9, 170.9)">h</text><text xml:space="preserve" font-family="Monaco,Monaco" font-size="40.0" fill="#7ADA45" transform="matrix(1.00, 0.00, -0.00, -1.00, 423.9, 170.9)"> </text><text xml:space="preserve" font-family="Monaco,Monaco" font-size="40.0" fill="#7ADA45" transform="matrix(1.00, 0.00, -0.00, -1.00, 447.9, 170.9)">{</text><text xml:space="preserve" font-family="Monaco,Monaco" font-size="40.0" fill="#7ADA45" transform="matrix(1.00, 0.00, -0.00, -1.00, 471.9, 170.9)"> </text><text xml:space="preserve" font-family="Monaco,Monaco" font-size="40.0" fill="#7ADA45" transform="matrix(1.00, 0.00, -0.00, -1.00, 495.9, 170.9)">|</text><text xml:space="preserve" font-family="Monaco,Monaco" font-size="40.0" fill="#7ADA45" transform="matrix(1.00, 0.00, -0.00, -1.00, 519.9, 170.9)">n</text><text xml:space="preserve" font-family="Monaco,Monaco" font-size="40.0" fill="#7ADA45" transform="matrix(1.00, 0.00, -0.00, -1.00, 543.9, 170.9)">|</text><text xml:space="preserve" font-family="Monaco,Monaco" font-size="40.0" fill="#7ADA45" transform="matrix(1.00, 0.00, -0.00, -1.00, 568.0, 170.9)"> </text><text xml:space="preserve" font-family="Monaco,Monaco" font-size="40.0" fill="#7ADA45" transform="matrix(1.00, 0.00, -0.00, -1.00, 592.0, 170.9)">d</text><text xml:space="preserve" font-family="Monaco,Monaco" font-size="40.0" fill="#7ADA45" transform="matrix(1.00, 0.00, -0.00, -1.00, 616.0, 170.9)">o</text><text xml:space="preserve" font-family="Monaco,Monaco" font-size="40.0" fill="#7ADA45" transform="matrix(1.00, 0.00, -0.00, -1.00, 640.0, 170.9)">_</text><text xml:space="preserve" font-family="Monaco,Monaco" font-size="40.0" fill="#7ADA45" transform="matrix(1.00, 0.00, -0.00, -1.00, 664.0, 170.9)">s</text><text xml:space="preserve" font-family="Monaco,Monaco" font-size="40.0" fill="#7ADA45" transform="matrix(1.00, 0.00, -0.00, -1.00, 688.0, 170.9)">t</text><text xml:space="preserve" font-family="Monaco,Monaco" font-size="40.0" fill="#7ADA45" transform="matrix(1.00, 0.00, -0.00, -1.00, 712.0, 170.9)">u</text><text xml:space="preserve" font-family="Monaco,Monaco" font-size="40.0" fill="#7ADA45" transform="matrix(1.00, 0.00, -0.00, -1.00, 736.0, 170.9)">f</text><text xml:space="preserve" font-family="Monaco,Monaco" font-size="40.0" fill="#7ADA45" transform="matrix(1.00, 0.00, -0.00, -1.00, 760.0, 170.9)">f</text><text xml:space="preserve" font-family="Monaco,Monaco" font-size="40.0" fill="#7ADA45" transform="matrix(1.00, 0.00, -0.00, -1.00, 784.0, 170.9)">(</text><text xml:space="preserve" font-family="Monaco,Monaco" font-size="40.0" fill="#7ADA45" transform="matrix(1.00, 0.00, -0.00, -1.00, 808.0, 170.9)">n</text><text xml:space="preserve" font-family="Monaco,Monaco" font-size="40.0" fill="#7ADA45" transform="matrix(1.00, 0.00, -0.00, -1.00, 832.0, 170.9)">)</text><text xml:space="preserve" font-family="Monaco,Monaco" font-size="40.0" fill="#7ADA45" transform="matrix(1.00, 0.00, -0.00, -1.00, 856.1, 170.9)"> </text><text xml:space="preserve" font-family="Monaco,Monaco" font-size="40.0" fill="#7ADA45" transform="matrix(1.00, 0.00, -0.00, -1.00, 880.1, 170.9)">}</text></g></svg>