<?xml version="1.0" encoding="UTF-8" standalone="no"?><svg xmlns="http://www.w3.org/2000/svg" xmlns:xlink="http://www.w3.org/1999/xlink" clip-rule="evenodd" stroke-miterlimit="10" viewBox="0 0 1024 768"><desc>SVG generated by Keynote</desc><defs></defs><g transform="matrix(1.00, 0.00, -0.00, -1.00, 0.0, 768.0)"><path d="M 0.0 768.0 L 1024.0 768.0 L 1024.0 0.0 L 0.0 0.0 Z M 0.0 768.0 " fill="#000000"></path><text xml:space="preserve" font-family="Helvetica-Light,Helvetica" font-size="76.0" fill="#FEFFFF" transform="matrix(1.00, 0.00, -0.00, -1.00, 79.0, 634.5)">T</text><text xml:space="preserve" font-family="Helvetica-Light,Helvetica" font-size="76.0" fill="#FEFFFF" transform="matrix(1.00, 0.00, -0.00, -1.00, 112.8, 634.5)">e</text><text xml:space="preserve" font-family="Helvetica-Light,Helvetica" font-size="76.0" fill="#FEFFFF" transform="matrix(1.00, 0.00, -0.00, -1.00, 155.1, 634.5)">s</text><text xml:space="preserve" font-family="Helvetica-Light,Helvetica" font-size="76.0" fill="#FEFFFF" transform="matrix(1.00, 0.00, -0.00, -1.00, 193.1, 634.5)">t</text><text xml:space="preserve" font-family="Helvetica-Light,Helvetica" font-size="76.0" fill="#FEFFFF" transform="matrix(1.00, 0.00, -0.00, -1.00, 214.2, 634.5)">s</text><text xml:space="preserve" font-family="Helvetica-Light,Helvetica" font-size="76.0" fill="#FEFFFF" transform="matrix(1.00, 0.00, -0.00, -1.00, 252.2, 634.5)">:</text><text xml:space="preserve" font-family="Helvetica-Light,Helvetica" font-size="76.0" fill="#FEFFFF" transform="matrix(1.00, 0.00, -0.00, -1.00, 273.4, 634.5)"> </text><text xml:space="preserve" font-family="Helvetica-Light,Helvetica" font-size="76.0" fill="#FEFFFF" transform="matrix(1.00, 0.00, -0.00, -1.00, 294.5, 634.5)">N</text><text xml:space="preserve" font-family="Helvetica-Light,Helvetica" font-size="76.0" fill="#FEFFFF" transform="matrix(1.00, 0.00, -0.00, -1.00, 349.4, 634.5)">o</text><text xml:space="preserve" font-family="Helvetica-Light,Helvetica" font-size="76.0" fill="#FEFFFF" transform="matrix(1.00, 0.00, -0.00, -1.00, 391.6, 634.5)">t</text><text xml:space="preserve" font-family="Helvetica-Light,Helvetica" font-size="76.0" fill="#FEFFFF" transform="matrix(1.00, 0.00, -0.00, -1.00, 412.7, 634.5)"> </text><text xml:space="preserve" font-family="Helvetica-Light,Helvetica" font-size="76.0" fill="#FEFFFF" transform="matrix(1.00, 0.00, -0.00, -1.00, 433.9, 634.5)">J</text><text xml:space="preserve" font-family="Helvetica-Light,Helvetica" font-size="76.0" fill="#FEFFFF" transform="matrix(1.00, 0.00, -0.00, -1.00, 471.9, 634.5)">u</text><text xml:space="preserve" font-family="Helvetica-Light,Helvetica" font-size="76.0" fill="#FEFFFF" transform="matrix(1.00, 0.00, -0.00, -1.00, 514.1, 634.5)">s</text><text xml:space="preserve" font-family="Helvetica-Light,Helvetica" font-size="76.0" fill="#FEFFFF" transform="matrix(1.00, 0.00, -0.00, -1.00, 552.1, 634.5)">t</text><text xml:space="preserve" font-family="Helvetica-Light,Helvetica" font-size="76.0" fill="#FEFFFF" transform="matrix(1.00, 0.00, -0.00, -1.00, 573.3, 634.5)"> </text><text xml:space="preserve" font-family="Helvetica-Light,Helvetica" font-size="76.0" fill="#FEFFFF" transform="matrix(1.00, 0.00, -0.00, -1.00, 594.4, 634.5)">f</text><text xml:space="preserve" font-family="Helvetica-Light,Helvetica" font-size="76.0" fill="#FEFFFF" transform="matrix(1.00, 0.00, -0.00, -1.00, 615.5, 634.5)">o</text><text xml:space="preserve" font-family="Helvetica-Light,Helvetica" font-size="76.0" fill="#FEFFFF" transform="matrix(1.00, 0.00, -0.00, -1.00, 657.8, 634.5)">r</text><text xml:space="preserve" font-family="Helvetica-Light,Helvetica" font-size="76.0" fill="#FEFFFF" transform="matrix(1.00, 0.00, -0.00, -1.00, 683.1, 634.5)"> </text><text xml:space="preserve" font-family="Helvetica-Light,Helvetica" font-size="76.0" fill="#FEFFFF" transform="matrix(1.00, 0.00, -0.00, -1.00, 704.2, 634.5)">T</text><text xml:space="preserve" font-family="Helvetica-Light,Helvetica" font-size="76.0" fill="#FEFFFF" transform="matrix(1.00, 0.00, -0.00, -1.00, 738.0, 634.5)">e</text><text xml:space="preserve" font-family="Helvetica-Light,Helvetica" font-size="76.0" fill="#FEFFFF" transform="matrix(1.00, 0.00, -0.00, -1.00, 780.3, 634.5)">s</text><text xml:space="preserve" font-family="Helvetica-Light,Helvetica" font-size="76.0" fill="#FEFFFF" transform="matrix(1.00, 0.00, -0.00, -1.00, 818.3, 634.5)">t</text><text xml:space="preserve" font-family="Helvetica-Light,Helvetica" font-size="76.0" fill="#FEFFFF" transform="matrix(1.00, 0.00, -0.00, -1.00, 839.4, 634.5)">i</text><text xml:space="preserve" font-family="Helvetica-Light,Helvetica" font-size="76.0" fill="#FEFFFF" transform="matrix(1.00, 0.00, -0.00, -1.00, 856.3, 634.5)">n</text><text xml:space="preserve" font-family="Helvetica-Light,Helvetica" font-size="76.0" fill="#FEFFFF" transform="matrix(1.00, 0.00, -0.00, -1.00, 898.5, 634.5)">g</text><text xml:space="preserve" font-family="Monaco,Monaco" font-size="30.0" fill="#7ADA45" transform="matrix(1.00, 0.00, -0.00, -1.00, 43.3, 496.5)">d</text><text xml:space="preserve" font-family="Monaco,Monaco" font-size="30.0" fill="#7ADA45" transform="matrix(1.00, 0.00, -0.00, -1.00, 61.3, 496.5)">e</text><text xml:space="preserve" font-family="Monaco,Monaco" font-size="30.0" fill="#7ADA45" transform="matrix(1.00, 0.00, -0.00, -1.00, 79.3, 496.5)">f</text><text xml:space="preserve" font-family="Monaco,Monaco" font-size="30.0" fill="#7ADA45" transform="matrix(1.00, 0.00, -0.00, -1.00, 97.4, 496.5)"> </text><text xml:space="preserve" font-family="Monaco,Monaco" font-size="30.0" fill="#7ADA45" transform="matrix(1.00, 0.00, -0.00, -1.00, 115.4, 496.5)">t</text><text xml:space="preserve" font-family="Monaco,Monaco" font-size="30.0" fill="#7ADA45" transform="matrix(1.00, 0.00, -0.00, -1.00, 133.4, 496.5)">e</text><text xml:space="preserve" font-family="Monaco,Monaco" font-size="30.0" fill="#7ADA45" transform="matrix(1.00, 0.00, -0.00, -1.00, 151.4, 496.5)">s</text><text xml:space="preserve" font-family="Monaco,Monaco" font-size="30.0" fill="#7ADA45" transform="matrix(1.00, 0.00, -0.00, -1.00, 169.4, 496.5)">t</text><text xml:space="preserve" font-family="Monaco,Monaco" font-size="30.0" fill="#7ADA45" transform="matrix(1.00, 0.00, -0.00, -1.00, 187.4, 496.5)">_</text><text xml:space="preserve" font-family="Monaco,Monaco" font-size="30.0" fill="#7ADA45" transform="matrix(1.00, 0.00, -0.00, -1.00, 205.4, 496.5)">l</text><text xml:space="preserve" font-family="Monaco,Monaco" font-size="30.0" fill="#7ADA45" transform="matrix(1.00, 0.00, -0.00, -1.00, 223.4, 496.5)">o</text><text xml:space="preserve" font-family="Monaco,Monaco" font-size="30.0" fill="#7ADA45" transform="matrix(1.00, 0.00, -0.00, -1.00, 241.4, 496.5)">r</text><text xml:space="preserve" font-family="Monaco,Monaco" font-size="30.0" fill="#7ADA45" transform="matrix(1.00, 0.00, -0.00, -1.00, 259.4, 496.5)">d</text><text xml:space="preserve" font-family="Monaco,Monaco" font-size="30.0" fill="#7ADA45" transform="matrix(1.00, 0.00, -0.00, -1.00, 277.4, 496.5)">_</text><text xml:space="preserve" font-family="Monaco,Monaco" font-size="30.0" fill="#7ADA45" transform="matrix(1.00, 0.00, -0.00, -1.00, 295.4, 496.5)">o</text><text xml:space="preserve" font-family="Monaco,Monaco" font-size="30.0" fill="#7ADA45" transform="matrix(1.00, 0.00, -0.00, -1.00, 313.4, 496.5)">f</text><text xml:space="preserve" font-family="Monaco,Monaco" font-size="30.0" fill="#7ADA45" transform="matrix(1.00, 0.00, -0.00, -1.00, 331.4, 496.5)">_</text><text xml:space="preserve" font-family="Monaco,Monaco" font-size="30.0" fill="#7ADA45" transform="matrix(1.00, 0.00, -0.00, -1.00, 349.4, 496.5)">t</text><text xml:space="preserve" font-family="Monaco,Monaco" font-size="30.0" fill="#7ADA45" transform="matrix(1.00, 0.00, -0.00, -1.00, 367.4, 496.5)">h</text><text xml:space="preserve" font-family="Monaco,Monaco" font-size="30.0" fill="#7ADA45" transform="matrix(1.00, 0.00, -0.00, -1.00, 385.5, 496.5)">e</text><text xml:space="preserve" font-family="Monaco,Monaco" font-size="30.0" fill="#7ADA45" transform="matrix(1.00, 0.00, -0.00, -1.00, 403.5, 496.5)">_</text><text xml:space="preserve" font-family="Monaco,Monaco" font-size="30.0" fill="#7ADA45" transform="matrix(1.00, 0.00, -0.00, -1.00, 421.5, 496.5)">r</text><text xml:space="preserve" font-family="Monaco,Monaco" font-size="30.0" fill="#7ADA45" transform="matrix(1.00, 0.00, -0.00, -1.00, 439.5, 496.5)">i</text><text xml:space="preserve" font-family="Monaco,Monaco" font-size="30.0" fill="#7ADA45" transform="matrix(1.00, 0.00, -0.00, -1.00, 457.5, 496.5)">n</text><text xml:space="preserve" font-family="Monaco,Monaco" font-size="30.0" fill="#7ADA45" transform="matrix(1.00, 0.00, -0.00, -1.00, 475.5, 496.5)">g</text><text xml:space="preserve" font-family="Monaco,Monaco" font-size="30.0" fill="#7ADA45" transform="matrix(1.00, 0.00, -0.00, -1.00, 493.5, 496.5)">s</text><text xml:space="preserve" font-family="Monaco,Monaco" font-size="30.0" fill="#7ADA45" transform="matrix(1.00, 0.00, -0.00, -1.00, 511.5, 496.5)">	</text><text xml:space="preserve" font-family="Monaco,Monaco" font-size="30.0" fill="#7ADA45" transform="matrix(1.00, 0.00, -0.00, -1.00, 43.3, 455.5)"> </text><text xml:space="preserve" font-family="Monaco,Monaco" font-size="30.0" fill="#7ADA45" transform="matrix(1.00, 0.00, -0.00, -1.00, 61.3, 455.5)"> </text><text xml:space="preserve" font-family="Monaco,Monaco" font-size="30.0" fill="#7ADA45" transform="matrix(1.00, 0.00, -0.00, -1.00, 79.3, 455.5)">f</text><text xml:space="preserve" font-family="Monaco,Monaco" font-size="30.0" fill="#7ADA45" transform="matrix(1.00, 0.00, -0.00, -1.00, 97.4, 455.5)">r</text><text xml:space="preserve" font-family="Monaco,Monaco" font-size="30.0" fill="#7ADA45" transform="matrix(1.00, 0.00, -0.00, -1.00, 115.4, 455.5)">o</text><text xml:space="preserve" font-family="Monaco,Monaco" font-size="30.0" fill="#7ADA45" transform="matrix(1.00, 0.00, -0.00, -1.00, 133.4, 455.5)">d</text><text xml:space="preserve" font-family="Monaco,Monaco" font-size="30.0" fill="#7ADA45" transform="matrix(1.00, 0.00, -0.00, -1.00, 151.4, 455.5)">o</text><text xml:space="preserve" font-family="Monaco,Monaco" font-size="30.0" fill="#7ADA45" transform="matrix(1.00, 0.00, -0.00, -1.00, 169.4, 455.5)"> </text><text xml:space="preserve" font-family="Monaco,Monaco" font-size="30.0" fill="#7ADA45" transform="matrix(1.00, 0.00, -0.00, -1.00, 187.4, 455.5)">=</text><text xml:space="preserve" font-family="Monaco,Monaco" font-size="30.0" fill="#7ADA45" transform="matrix(1.00, 0.00, -0.00, -1.00, 205.4, 455.5)"> </text><text xml:space="preserve" font-family="Monaco,Monaco" font-size="30.0" fill="#7ADA45" transform="matrix(1.00, 0.00, -0.00, -1.00, 223.4, 455.5)">H</text><text xml:space="preserve" font-family="Monaco,Monaco" font-size="30.0" fill="#7ADA45" transform="matrix(1.00, 0.00, -0.00, -1.00, 241.4, 455.5)">o</text><text xml:space="preserve" font-family="Monaco,Monaco" font-size="30.0" fill="#7ADA45" transform="matrix(1.00, 0.00, -0.00, -1.00, 259.4, 455.5)">b</text><text xml:space="preserve" font-family="Monaco,Monaco" font-size="30.0" fill="#7ADA45" transform="matrix(1.00, 0.00, -0.00, -1.00, 277.4, 455.5)">b</text><text xml:space="preserve" font-family="Monaco,Monaco" font-size="30.0" fill="#7ADA45" transform="matrix(1.00, 0.00, -0.00, -1.00, 295.4, 455.5)">i</text><text xml:space="preserve" font-family="Monaco,Monaco" font-size="30.0" fill="#7ADA45" transform="matrix(1.00, 0.00, -0.00, -1.00, 313.4, 455.5)">t</text><text xml:space="preserve" font-family="Monaco,Monaco" font-size="30.0" fill="#7ADA45" transform="matrix(1.00, 0.00, -0.00, -1.00, 331.4, 455.5)">.</text><text xml:space="preserve" font-family="Monaco,Monaco" font-size="30.0" fill="#7ADA45" transform="matrix(1.00, 0.00, -0.00, -1.00, 349.4, 455.5)">n</text><text xml:space="preserve" font-family="Monaco,Monaco" font-size="30.0" fill="#7ADA45" transform="matrix(1.00, 0.00, -0.00, -1.00, 367.4, 455.5)">e</text><text xml:space="preserve" font-family="Monaco,Monaco" font-size="30.0" fill="#7ADA45" transform="matrix(1.00, 0.00, -0.00, -1.00, 385.5, 455.5)">w</text><text xml:space="preserve" font-family="Monaco,Monaco" font-size="30.0" fill="#7ADA45" transform="matrix(1.00, 0.00, -0.00, -1.00, 403.5, 455.5)">	</text><text xml:space="preserve" font-family="Monaco,Monaco" font-size="30.0" fill="#7ADA45" transform="matrix(1.00, 0.00, -0.00, -1.00, 43.3, 414.5)"> </text><text xml:space="preserve" font-family="Monaco,Monaco" font-size="30.0" fill="#7ADA45" transform="matrix(1.00, 0.00, -0.00, -1.00, 61.3, 414.5)"> </text><text xml:space="preserve" font-family="Monaco,Monaco" font-size="30.0" fill="#7ADA45" transform="matrix(1.00, 0.00, -0.00, -1.00, 79.3, 414.5)">r</text><text xml:space="preserve" font-family="Monaco,Monaco" font-size="30.0" fill="#7ADA45" transform="matrix(1.00, 0.00, -0.00, -1.00, 97.4, 414.5)">i</text><text xml:space="preserve" font-family="Monaco,Monaco" font-size="30.0" fill="#7ADA45" transform="matrix(1.00, 0.00, -0.00, -1.00, 115.4, 414.5)">n</text><text xml:space="preserve" font-family="Monaco,Monaco" font-size="30.0" fill="#7ADA45" transform="matrix(1.00, 0.00, -0.00, -1.00, 133.4, 414.5)">g</text><text xml:space="preserve" font-family="Monaco,Monaco" font-size="30.0" fill="#7ADA45" transform="matrix(1.00, 0.00, -0.00, -1.00, 151.4, 414.5)"> </text><text xml:space="preserve" font-family="Monaco,Monaco" font-size="30.0" fill="#7ADA45" transform="matrix(1.00, 0.00, -0.00, -1.00, 169.4, 414.5)"> </text><text xml:space="preserve" font-family="Monaco,Monaco" font-size="30.0" fill="#7ADA45" transform="matrix(1.00, 0.00, -0.00, -1.00, 187.4, 414.5)">=</text><text xml:space="preserve" font-family="Monaco,Monaco" font-size="30.0" fill="#7ADA45" transform="matrix(1.00, 0.00, -0.00, -1.00, 205.4, 414.5)"> </text><text xml:space="preserve" font-family="Monaco,Monaco" font-size="30.0" fill="#7ADA45" transform="matrix(1.00, 0.00, -0.00, -1.00, 223.4, 414.5)">E</text><text xml:space="preserve" font-family="Monaco,Monaco" font-size="30.0" fill="#7ADA45" transform="matrix(1.00, 0.00, -0.00, -1.00, 241.4, 414.5)">v</text><text xml:space="preserve" font-family="Monaco,Monaco" font-size="30.0" fill="#7ADA45" transform="matrix(1.00, 0.00, -0.00, -1.00, 259.4, 414.5)">i</text><text xml:space="preserve" font-family="Monaco,Monaco" font-size="30.0" fill="#7ADA45" transform="matrix(1.00, 0.00, -0.00, -1.00, 277.4, 414.5)">l</text><text xml:space="preserve" font-family="Monaco,Monaco" font-size="30.0" fill="#7ADA45" transform="matrix(1.00, 0.00, -0.00, -1.00, 295.4, 414.5)">.</text><text xml:space="preserve" font-family="Monaco,Monaco" font-size="30.0" fill="#7ADA45" transform="matrix(1.00, 0.00, -0.00, -1.00, 313.4, 414.5)">n</text><text xml:space="preserve" font-family="Monaco,Monaco" font-size="30.0" fill="#7ADA45" transform="matrix(1.00, 0.00, -0.00, -1.00, 331.4, 414.5)">e</text><text xml:space="preserve" font-family="Monaco,Monaco" font-size="30.0" fill="#7ADA45" transform="matrix(1.00, 0.00, -0.00, -1.00, 349.4, 414.5)">w</text><text xml:space="preserve" font-family="Monaco,Monaco" font-size="30.0" fill="#7ADA45" transform="matrix(1.00, 0.00, -0.00, -1.00, 367.4, 414.5)">	</text><text xml:space="preserve" font-family="Monaco,Monaco" font-size="30.0" fill="#7ADA45" transform="matrix(1.00, 0.00, -0.00, -1.00, 43.3, 373.5)"> </text><text xml:space="preserve" font-family="Monaco,Monaco" font-size="30.0" fill="#7ADA45" transform="matrix(1.00, 0.00, -0.00, -1.00, 61.3, 373.5)"> </text><text xml:space="preserve" font-family="Monaco,Monaco" font-size="30.0" fill="#7ADA45" transform="matrix(1.00, 0.00, -0.00, -1.00, 79.3, 373.5)">f</text><text xml:space="preserve" font-family="Monaco,Monaco" font-size="30.0" fill="#7ADA45" transform="matrix(1.00, 0.00, -0.00, -1.00, 97.4, 373.5)">r</text><text xml:space="preserve" font-family="Monaco,Monaco" font-size="30.0" fill="#7ADA45" transform="matrix(1.00, 0.00, -0.00, -1.00, 115.4, 373.5)">o</text><text xml:space="preserve" font-family="Monaco,Monaco" font-size="30.0" fill="#7ADA45" transform="matrix(1.00, 0.00, -0.00, -1.00, 133.4, 373.5)">d</text><text xml:space="preserve" font-family="Monaco,Monaco" font-size="30.0" fill="#7ADA45" transform="matrix(1.00, 0.00, -0.00, -1.00, 151.4, 373.5)">o</text><text xml:space="preserve" font-family="Monaco,Monaco" font-size="30.0" fill="#7ADA45" transform="matrix(1.00, 0.00, -0.00, -1.00, 169.4, 373.5)">.</text><text xml:space="preserve" font-family="Monaco,Monaco" font-size="30.0" fill="#7ADA45" transform="matrix(1.00, 0.00, -0.00, -1.00, 187.4, 373.5)">d</text><text xml:space="preserve" font-family="Monaco,Monaco" font-size="30.0" fill="#7ADA45" transform="matrix(1.00, 0.00, -0.00, -1.00, 205.4, 373.5)">e</text><text xml:space="preserve" font-family="Monaco,Monaco" font-size="30.0" fill="#7ADA45" transform="matrix(1.00, 0.00, -0.00, -1.00, 223.4, 373.5)">s</text><text xml:space="preserve" font-family="Monaco,Monaco" font-size="30.0" fill="#7ADA45" transform="matrix(1.00, 0.00, -0.00, -1.00, 241.4, 373.5)">t</text><text xml:space="preserve" font-family="Monaco,Monaco" font-size="30.0" fill="#7ADA45" transform="matrix(1.00, 0.00, -0.00, -1.00, 259.4, 373.5)">r</text><text xml:space="preserve" font-family="Monaco,Monaco" font-size="30.0" fill="#7ADA45" transform="matrix(1.00, 0.00, -0.00, -1.00, 277.4, 373.5)">o</text><text xml:space="preserve" font-family="Monaco,Monaco" font-size="30.0" fill="#7ADA45" transform="matrix(1.00, 0.00, -0.00, -1.00, 295.4, 373.5)">y</text><text xml:space="preserve" font-family="Monaco,Monaco" font-size="30.0" fill="#7ADA45" transform="matrix(1.00, 0.00, -0.00, -1.00, 313.4, 373.5)">(</text><text xml:space="preserve" font-family="Monaco,Monaco" font-size="30.0" fill="#7ADA45" transform="matrix(1.00, 0.00, -0.00, -1.00, 331.4, 373.5)">r</text><text xml:space="preserve" font-family="Monaco,Monaco" font-size="30.0" fill="#7ADA45" transform="matrix(1.00, 0.00, -0.00, -1.00, 349.4, 373.5)">i</text><text xml:space="preserve" font-family="Monaco,Monaco" font-size="30.0" fill="#7ADA45" transform="matrix(1.00, 0.00, -0.00, -1.00, 367.4, 373.5)">n</text><text xml:space="preserve" font-family="Monaco,Monaco" font-size="30.0" fill="#7ADA45" transform="matrix(1.00, 0.00, -0.00, -1.00, 385.5, 373.5)">g</text><text xml:space="preserve" font-family="Monaco,Monaco" font-size="30.0" fill="#7ADA45" transform="matrix(1.00, 0.00, -0.00, -1.00, 403.5, 373.5)">)</text><text xml:space="preserve" font-family="Monaco,Monaco" font-size="30.0" fill="#7ADA45" transform="matrix(1.00, 0.00, -0.00, -1.00, 421.5, 373.5)">	</text><text xml:space="preserve" font-family="Monaco,Monaco" font-size="30.0" fill="#7ADA45" transform="matrix(1.00, 0.00, -0.00, -1.00, 43.3, 332.5)"> </text><text xml:space="preserve" font-family="Monaco,Monaco" font-size="30.0" fill="#7ADA45" transform="matrix(1.00, 0.00, -0.00, -1.00, 61.3, 332.5)"> </text><text xml:space="preserve" font-family="Monaco,Monaco" font-size="30.0" fill="#7ADA45" transform="matrix(1.00, 0.00, -0.00, -1.00, 79.3, 332.5)">a</text><text xml:space="preserve" font-family="Monaco,Monaco" font-size="30.0" fill="#7ADA45" transform="matrix(1.00, 0.00, -0.00, -1.00, 97.4, 332.5)">s</text><text xml:space="preserve" font-family="Monaco,Monaco" font-size="30.0" fill="#7ADA45" transform="matrix(1.00, 0.00, -0.00, -1.00, 115.4, 332.5)">s</text><text xml:space="preserve" font-family="Monaco,Monaco" font-size="30.0" fill="#7ADA45" transform="matrix(1.00, 0.00, -0.00, -1.00, 133.4, 332.5)">e</text><text xml:space="preserve" font-family="Monaco,Monaco" font-size="30.0" fill="#7ADA45" transform="matrix(1.00, 0.00, -0.00, -1.00, 151.4, 332.5)">r</text><text xml:space="preserve" font-family="Monaco,Monaco" font-size="30.0" fill="#7ADA45" transform="matrix(1.00, 0.00, -0.00, -1.00, 169.4, 332.5)">t</text><text xml:space="preserve" font-family="Monaco,Monaco" font-size="30.0" fill="#7ADA45" transform="matrix(1.00, 0.00, -0.00, -1.00, 187.4, 332.5)"> </text><text xml:space="preserve" font-family="Monaco,Monaco" font-size="30.0" fill="#7ADA45" transform="matrix(1.00, 0.00, -0.00, -1.00, 205.4, 332.5)">r</text><text xml:space="preserve" font-family="Monaco,Monaco" font-size="30.0" fill="#7ADA45" transform="matrix(1.00, 0.00, -0.00, -1.00, 223.4, 332.5)">i</text><text xml:space="preserve" font-family="Monaco,Monaco" font-size="30.0" fill="#7ADA45" transform="matrix(1.00, 0.00, -0.00, -1.00, 241.4, 332.5)">n</text><text xml:space="preserve" font-family="Monaco,Monaco" font-size="30.0" fill="#7ADA45" transform="matrix(1.00, 0.00, -0.00, -1.00, 259.4, 332.5)">g</text><text xml:space="preserve" font-family="Monaco,Monaco" font-size="30.0" fill="#7ADA45" transform="matrix(1.00, 0.00, -0.00, -1.00, 277.4, 332.5)">.</text><text xml:space="preserve" font-family="Monaco,Monaco" font-size="30.0" fill="#7ADA45" transform="matrix(1.00, 0.00, -0.00, -1.00, 295.4, 332.5)">d</text><text xml:space="preserve" font-family="Monaco,Monaco" font-size="30.0" fill="#7ADA45" transform="matrix(1.00, 0.00, -0.00, -1.00, 313.4, 332.5)">e</text><text xml:space="preserve" font-family="Monaco,Monaco" font-size="30.0" fill="#7ADA45" transform="matrix(1.00, 0.00, -0.00, -1.00, 331.4, 332.5)">s</text><text xml:space="preserve" font-family="Monaco,Monaco" font-size="30.0" fill="#7ADA45" transform="matrix(1.00, 0.00, -0.00, -1.00, 349.4, 332.5)">t</text><text xml:space="preserve" font-family="Monaco,Monaco" font-size="30.0" fill="#7ADA45" transform="matrix(1.00, 0.00, -0.00, -1.00, 367.4, 332.5)">r</text><text xml:space="preserve" font-family="Monaco,Monaco" font-size="30.0" fill="#7ADA45" transform="matrix(1.00, 0.00, -0.00, -1.00, 385.5, 332.5)">o</text><text xml:space="preserve" font-family="Monaco,Monaco" font-size="30.0" fill="#7ADA45" transform="matrix(1.00, 0.00, -0.00, -1.00, 403.5, 332.5)">y</text><text xml:space="preserve" font-family="Monaco,Monaco" font-size="30.0" fill="#7ADA45" transform="matrix(1.00, 0.00, -0.00, -1.00, 421.5, 332.5)">e</text><text xml:space="preserve" font-family="Monaco,Monaco" font-size="30.0" fill="#7ADA45" transform="matrix(1.00, 0.00, -0.00, -1.00, 439.5, 332.5)">d</text><text xml:space="preserve" font-family="Monaco,Monaco" font-size="30.0" fill="#7ADA45" transform="matrix(1.00, 0.00, -0.00, -1.00, 457.5, 332.5)">?</text><text xml:space="preserve" font-family="Monaco,Monaco" font-size="30.0" fill="#7ADA45" transform="matrix(1.00, 0.00, -0.00, -1.00, 475.5, 332.5)">	</text><text xml:space="preserve" font-family="Monaco,Monaco" font-size="30.0" fill="#7ADA45" transform="matrix(1.00, 0.00, -0.00, -1.00, 43.3, 291.5)">e</text><text xml:space="preserve" font-family="Monaco,Monaco" font-size="30.0" fill="#7ADA45" transform="matrix(1.00, 0.00, -0.00, -1.00, 61.3, 291.5)">n</text><text xml:space="preserve" font-family="Monaco,Monaco" font-size="30.0" fill="#7ADA45" transform="matrix(1.00, 0.00, -0.00, -1.00, 79.3, 291.5)">d</text><text xml:space="preserve" font-family="Monaco,Monaco" font-size="30.0" fill="#7ADA45" transform="matrix(1.00, 0.00, -0.00, -1.00, 579.1, 495.0)">c</text><text xml:space="preserve" font-family="Monaco,Monaco" font-size="30.0" fill="#7ADA45" transform="matrix(1.00, 0.00, -0.00, -1.00, 597.1, 495.0)">l</text><text xml:space="preserve" font-family="Monaco,Monaco" font-size="30.0" fill="#7ADA45" transform="matrix(1.00, 0.00, -0.00, -1.00, 615.2, 495.0)">a</text><text xml:space="preserve" font-family="Monaco,Monaco" font-size="30.0" fill="#7ADA45" transform="matrix(1.00, 0.00, -0.00, -1.00, 633.2, 495.0)">s</text><text xml:space="preserve" font-family="Monaco,Monaco" font-size="30.0" fill="#7ADA45" transform="matrix(1.00, 0.00, -0.00, -1.00, 651.2, 495.0)">s</text><text xml:space="preserve" font-family="Monaco,Monaco" font-size="30.0" fill="#7ADA45" transform="matrix(1.00, 0.00, -0.00, -1.00, 669.2, 495.0)"> </text><text xml:space="preserve" font-family="Monaco,Monaco" font-size="30.0" fill="#7ADA45" transform="matrix(1.00, 0.00, -0.00, -1.00, 687.2, 495.0)">H</text><text xml:space="preserve" font-family="Monaco,Monaco" font-size="30.0" fill="#7ADA45" transform="matrix(1.00, 0.00, -0.00, -1.00, 705.2, 495.0)">o</text><text xml:space="preserve" font-family="Monaco,Monaco" font-size="30.0" fill="#7ADA45" transform="matrix(1.00, 0.00, -0.00, -1.00, 723.2, 495.0)">b</text><text xml:space="preserve" font-family="Monaco,Monaco" font-size="30.0" fill="#7ADA45" transform="matrix(1.00, 0.00, -0.00, -1.00, 741.2, 495.0)">b</text><text xml:space="preserve" font-family="Monaco,Monaco" font-size="30.0" fill="#7ADA45" transform="matrix(1.00, 0.00, -0.00, -1.00, 759.2, 495.0)">i</text><text xml:space="preserve" font-family="Monaco,Monaco" font-size="30.0" fill="#7ADA45" transform="matrix(1.00, 0.00, -0.00, -1.00, 777.2, 495.0)">t</text><text xml:space="preserve" font-family="Monaco,Monaco" font-size="30.0" fill="#7ADA45" transform="matrix(1.00, 0.00, -0.00, -1.00, 581.3, 173.4)">e</text><text xml:space="preserve" font-family="Monaco,Monaco" font-size="30.0" fill="#7ADA45" transform="matrix(1.00, 0.00, -0.00, -1.00, 599.3, 173.4)">n</text><text xml:space="preserve" font-family="Monaco,Monaco" font-size="30.0" fill="#7ADA45" transform="matrix(1.00, 0.00, -0.00, -1.00, 617.3, 173.4)">d</text><text xml:space="preserve" font-family="Monaco,Monaco" font-size="30.0" fill="#7ADA45" transform="matrix(1.00, 0.00, -0.00, -1.00, 578.4, 455.6)"> </text><text xml:space="preserve" font-family="Monaco,Monaco" font-size="30.0" fill="#7ADA45" transform="matrix(1.00, 0.00, -0.00, -1.00, 596.4, 455.6)"> </text><text xml:space="preserve" font-family="Monaco,Monaco" font-size="30.0" fill="#7ADA45" transform="matrix(1.00, 0.00, -0.00, -1.00, 614.4, 455.6)">d</text><text xml:space="preserve" font-family="Monaco,Monaco" font-size="30.0" fill="#7ADA45" transform="matrix(1.00, 0.00, -0.00, -1.00, 632.4, 455.6)">e</text><text xml:space="preserve" font-family="Monaco,Monaco" font-size="30.0" fill="#7ADA45" transform="matrix(1.00, 0.00, -0.00, -1.00, 650.5, 455.6)">f</text><text xml:space="preserve" font-family="Monaco,Monaco" font-size="30.0" fill="#7ADA45" transform="matrix(1.00, 0.00, -0.00, -1.00, 668.5, 455.6)"> </text><text xml:space="preserve" font-family="Monaco,Monaco" font-size="30.0" fill="#7ADA45" transform="matrix(1.00, 0.00, -0.00, -1.00, 686.5, 455.6)">d</text><text xml:space="preserve" font-family="Monaco,Monaco" font-size="30.0" fill="#7ADA45" transform="matrix(1.00, 0.00, -0.00, -1.00, 704.5, 455.6)">e</text><text xml:space="preserve" font-family="Monaco,Monaco" font-size="30.0" fill="#7ADA45" transform="matrix(1.00, 0.00, -0.00, -1.00, 722.5, 455.6)">s</text><text xml:space="preserve" font-family="Monaco,Monaco" font-size="30.0" fill="#7ADA45" transform="matrix(1.00, 0.00, -0.00, -1.00, 740.5, 455.6)">t</text><text xml:space="preserve" font-family="Monaco,Monaco" font-size="30.0" fill="#7ADA45" transform="matrix(1.00, 0.00, -0.00, -1.00, 758.5, 455.6)">r</text><text xml:space="preserve" font-family="Monaco,Monaco" font-size="30.0" fill="#7ADA45" transform="matrix(1.00, 0.00, -0.00, -1.00, 776.5, 455.6)">o</text><text xml:space="preserve" font-family="Monaco,Monaco" font-size="30.0" fill="#7ADA45" transform="matrix(1.00, 0.00, -0.00, -1.00, 794.5, 455.6)">y</text><text xml:space="preserve" font-family="Monaco,Monaco" font-size="30.0" fill="#7ADA45" transform="matrix(1.00, 0.00, -0.00, -1.00, 812.5, 455.6)">(</text><text xml:space="preserve" font-family="Monaco,Monaco" font-size="30.0" fill="#7ADA45" transform="matrix(1.00, 0.00, -0.00, -1.00, 830.5, 455.6)">r</text><text xml:space="preserve" font-family="Monaco,Monaco" font-size="30.0" fill="#7ADA45" transform="matrix(1.00, 0.00, -0.00, -1.00, 848.5, 455.6)">i</text><text xml:space="preserve" font-family="Monaco,Monaco" font-size="30.0" fill="#7ADA45" transform="matrix(1.00, 0.00, -0.00, -1.00, 866.5, 455.6)">n</text><text xml:space="preserve" font-family="Monaco,Monaco" font-size="30.0" fill="#7ADA45" transform="matrix(1.00, 0.00, -0.00, -1.00, 884.5, 455.6)">g</text><text xml:space="preserve" font-family="Monaco,Monaco" font-size="30.0" fill="#7ADA45" transform="matrix(1.00, 0.00, -0.00, -1.00, 902.5, 455.6)">)</text><text xml:space="preserve" font-family="Monaco,Monaco" font-size="30.0" fill="#7ADA45" transform="matrix(1.00, 0.00, -0.00, -1.00, 579.1, 412.0)"> </text><text xml:space="preserve" font-family="Monaco,Monaco" font-size="30.0" fill="#7ADA45" transform="matrix(1.00, 0.00, -0.00, -1.00, 597.1, 412.0)"> </text><text xml:space="preserve" font-family="Monaco,Monaco" font-size="30.0" fill="#7ADA45" transform="matrix(1.00, 0.00, -0.00, -1.00, 615.2, 412.0)"> </text><text xml:space="preserve" font-family="Monaco,Monaco" font-size="30.0" fill="#7ADA45" transform="matrix(1.00, 0.00, -0.00, -1.00, 633.2, 412.0)"> </text><text xml:space="preserve" font-family="Monaco,Monaco" font-size="30.0" fill="#7ADA45" transform="matrix(1.00, 0.00, -0.00, -1.00, 651.2, 412.0)">i</text><text xml:space="preserve" font-family="Monaco,Monaco" font-size="30.0" fill="#7ADA45" transform="matrix(1.00, 0.00, -0.00, -1.00, 669.2, 412.0)">f</text><text xml:space="preserve" font-family="Monaco,Monaco" font-size="30.0" fill="#7ADA45" transform="matrix(1.00, 0.00, -0.00, -1.00, 687.2, 412.0)"> </text><text xml:space="preserve" font-family="Monaco,Monaco" font-size="30.0" fill="#7ADA45" transform="matrix(1.00, 0.00, -0.00, -1.00, 705.2, 412.0)">r</text><text xml:space="preserve" font-family="Monaco,Monaco" font-size="30.0" fill="#7ADA45" transform="matrix(1.00, 0.00, -0.00, -1.00, 723.2, 412.0)">e</text><text xml:space="preserve" font-family="Monaco,Monaco" font-size="30.0" fill="#7ADA45" transform="matrix(1.00, 0.00, -0.00, -1.00, 741.2, 412.0)">a</text><text xml:space="preserve" font-family="Monaco,Monaco" font-size="30.0" fill="#7ADA45" transform="matrix(1.00, 0.00, -0.00, -1.00, 759.2, 412.0)">c</text><text xml:space="preserve" font-family="Monaco,Monaco" font-size="30.0" fill="#7ADA45" transform="matrix(1.00, 0.00, -0.00, -1.00, 777.2, 412.0)">h</text><text xml:space="preserve" font-family="Monaco,Monaco" font-size="30.0" fill="#7ADA45" transform="matrix(1.00, 0.00, -0.00, -1.00, 795.2, 412.0)">e</text><text xml:space="preserve" font-family="Monaco,Monaco" font-size="30.0" fill="#7ADA45" transform="matrix(1.00, 0.00, -0.00, -1.00, 813.2, 412.0)">d</text><text xml:space="preserve" font-family="Monaco,Monaco" font-size="30.0" fill="#7ADA45" transform="matrix(1.00, 0.00, -0.00, -1.00, 831.2, 412.0)">_</text><text xml:space="preserve" font-family="Monaco,Monaco" font-size="30.0" fill="#7ADA45" transform="matrix(1.00, 0.00, -0.00, -1.00, 849.2, 412.0)">m</text><text xml:space="preserve" font-family="Monaco,Monaco" font-size="30.0" fill="#7ADA45" transform="matrix(1.00, 0.00, -0.00, -1.00, 867.2, 412.0)">o</text><text xml:space="preserve" font-family="Monaco,Monaco" font-size="30.0" fill="#7ADA45" transform="matrix(1.00, 0.00, -0.00, -1.00, 885.2, 412.0)">r</text><text xml:space="preserve" font-family="Monaco,Monaco" font-size="30.0" fill="#7ADA45" transform="matrix(1.00, 0.00, -0.00, -1.00, 903.2, 412.0)">d</text><text xml:space="preserve" font-family="Monaco,Monaco" font-size="30.0" fill="#7ADA45" transform="matrix(1.00, 0.00, -0.00, -1.00, 921.3, 412.0)">o</text><text xml:space="preserve" font-family="Monaco,Monaco" font-size="30.0" fill="#7ADA45" transform="matrix(1.00, 0.00, -0.00, -1.00, 939.3, 412.0)">r</text><text xml:space="preserve" font-family="Monaco,Monaco" font-size="30.0" fill="#7ADA45" transform="matrix(1.00, 0.00, -0.00, -1.00, 957.3, 412.0)">?</text><text xml:space="preserve" font-family="Monaco,Monaco" font-size="30.0" fill="#7ADA45" transform="matrix(1.00, 0.00, -0.00, -1.00, 975.3, 412.0)">	</text><text xml:space="preserve" font-family="Monaco,Monaco" font-size="30.0" fill="#7ADA45" transform="matrix(1.00, 0.00, -0.00, -1.00, 579.1, 371.0)"> </text><text xml:space="preserve" font-family="Monaco,Monaco" font-size="30.0" fill="#7ADA45" transform="matrix(1.00, 0.00, -0.00, -1.00, 597.1, 371.0)"> </text><text xml:space="preserve" font-family="Monaco,Monaco" font-size="30.0" fill="#7ADA45" transform="matrix(1.00, 0.00, -0.00, -1.00, 615.2, 371.0)"> </text><text xml:space="preserve" font-family="Monaco,Monaco" font-size="30.0" fill="#7ADA45" transform="matrix(1.00, 0.00, -0.00, -1.00, 633.2, 371.0)"> </text><text xml:space="preserve" font-family="Monaco,Monaco" font-size="30.0" fill="#7ADA45" transform="matrix(1.00, 0.00, -0.00, -1.00, 651.2, 371.0)"> </text><text xml:space="preserve" font-family="Monaco,Monaco" font-size="30.0" fill="#7ADA45" transform="matrix(1.00, 0.00, -0.00, -1.00, 669.2, 371.0)"> </text><text xml:space="preserve" font-family="Monaco,Monaco" font-size="30.0" fill="#7ADA45" transform="matrix(1.00, 0.00, -0.00, -1.00, 687.2, 371.0)">r</text><text xml:space="preserve" font-family="Monaco,Monaco" font-size="30.0" fill="#7ADA45" transform="matrix(1.00, 0.00, -0.00, -1.00, 705.2, 371.0)">i</text><text xml:space="preserve" font-family="Monaco,Monaco" font-size="30.0" fill="#7ADA45" transform="matrix(1.00, 0.00, -0.00, -1.00, 723.2, 371.0)">n</text><text xml:space="preserve" font-family="Monaco,Monaco" font-size="30.0" fill="#7ADA45" transform="matrix(1.00, 0.00, -0.00, -1.00, 741.2, 371.0)">g</text><text xml:space="preserve" font-family="Monaco,Monaco" font-size="30.0" fill="#7ADA45" transform="matrix(1.00, 0.00, -0.00, -1.00, 759.2, 371.0)">.</text><text xml:space="preserve" font-family="Monaco,Monaco" font-size="30.0" fill="#7ADA45" transform="matrix(1.00, 0.00, -0.00, -1.00, 777.2, 371.0)">d</text><text xml:space="preserve" font-family="Monaco,Monaco" font-size="30.0" fill="#7ADA45" transform="matrix(1.00, 0.00, -0.00, -1.00, 795.2, 371.0)">e</text><text xml:space="preserve" font-family="Monaco,Monaco" font-size="30.0" fill="#7ADA45" transform="matrix(1.00, 0.00, -0.00, -1.00, 813.2, 371.0)">s</text><text xml:space="preserve" font-family="Monaco,Monaco" font-size="30.0" fill="#7ADA45" transform="matrix(1.00, 0.00, -0.00, -1.00, 831.2, 371.0)">t</text><text xml:space="preserve" font-family="Monaco,Monaco" font-size="30.0" fill="#7ADA45" transform="matrix(1.00, 0.00, -0.00, -1.00, 849.2, 371.0)">r</text><text xml:space="preserve" font-family="Monaco,Monaco" font-size="30.0" fill="#7ADA45" transform="matrix(1.00, 0.00, -0.00, -1.00, 867.2, 371.0)">o</text><text xml:space="preserve" font-family="Monaco,Monaco" font-size="30.0" fill="#7ADA45" transform="matrix(1.00, 0.00, -0.00, -1.00, 885.2, 371.0)">y</text><text xml:space="preserve" font-family="Monaco,Monaco" font-size="30.0" fill="#7ADA45" transform="matrix(1.00, 0.00, -0.00, -1.00, 903.2, 371.0)">!</text><text xml:space="preserve" font-family="Monaco,Monaco" font-size="30.0" fill="#7ADA45" transform="matrix(1.00, 0.00, -0.00, -1.00, 921.3, 371.0)">	</text><text xml:space="preserve" font-family="Monaco,Monaco" font-size="30.0" fill="#7ADA45" transform="matrix(1.00, 0.00, -0.00, -1.00, 579.1, 330.0)"> </text><text xml:space="preserve" font-family="Monaco,Monaco" font-size="30.0" fill="#7ADA45" transform="matrix(1.00, 0.00, -0.00, -1.00, 597.1, 330.0)"> </text><text xml:space="preserve" font-family="Monaco,Monaco" font-size="30.0" fill="#7ADA45" transform="matrix(1.00, 0.00, -0.00, -1.00, 615.2, 330.0)"> </text><text xml:space="preserve" font-family="Monaco,Monaco" font-size="30.0" fill="#7ADA45" transform="matrix(1.00, 0.00, -0.00, -1.00, 633.2, 330.0)"> </text><text xml:space="preserve" font-family="Monaco,Monaco" font-size="30.0" fill="#7ADA45" transform="matrix(1.00, 0.00, -0.00, -1.00, 651.2, 330.0)">e</text><text xml:space="preserve" font-family="Monaco,Monaco" font-size="30.0" fill="#7ADA45" transform="matrix(1.00, 0.00, -0.00, -1.00, 669.2, 330.0)">l</text><text xml:space="preserve" font-family="Monaco,Monaco" font-size="30.0" fill="#7ADA45" transform="matrix(1.00, 0.00, -0.00, -1.00, 687.2, 330.0)">s</text><text xml:space="preserve" font-family="Monaco,Monaco" font-size="30.0" fill="#7ADA45" transform="matrix(1.00, 0.00, -0.00, -1.00, 705.2, 330.0)">e</text><text xml:space="preserve" font-family="Monaco,Monaco" font-size="30.0" fill="#7ADA45" transform="matrix(1.00, 0.00, -0.00, -1.00, 723.2, 330.0)">	</text><text xml:space="preserve" font-family="Monaco,Monaco" font-size="30.0" fill="#7ADA45" transform="matrix(1.00, 0.00, -0.00, -1.00, 579.1, 289.0)"> </text><text xml:space="preserve" font-family="Monaco,Monaco" font-size="30.0" fill="#7ADA45" transform="matrix(1.00, 0.00, -0.00, -1.00, 597.1, 289.0)"> </text><text xml:space="preserve" font-family="Monaco,Monaco" font-size="30.0" fill="#7ADA45" transform="matrix(1.00, 0.00, -0.00, -1.00, 615.2, 289.0)"> </text><text xml:space="preserve" font-family="Monaco,Monaco" font-size="30.0" fill="#7ADA45" transform="matrix(1.00, 0.00, -0.00, -1.00, 633.2, 289.0)"> </text><text xml:space="preserve" font-family="Monaco,Monaco" font-size="30.0" fill="#7ADA45" transform="matrix(1.00, 0.00, -0.00, -1.00, 651.2, 289.0)"> </text><text xml:space="preserve" font-family="Monaco,Monaco" font-size="30.0" fill="#7ADA45" transform="matrix(1.00, 0.00, -0.00, -1.00, 669.2, 289.0)"> </text><text xml:space="preserve" font-family="Monaco,Monaco" font-size="30.0" fill="#7ADA45" transform="matrix(1.00, 0.00, -0.00, -1.00, 687.2, 289.0)">k</text><text xml:space="preserve" font-family="Monaco,Monaco" font-size="30.0" fill="#7ADA45" transform="matrix(1.00, 0.00, -0.00, -1.00, 705.2, 289.0)">e</text><text xml:space="preserve" font-family="Monaco,Monaco" font-size="30.0" fill="#7ADA45" transform="matrix(1.00, 0.00, -0.00, -1.00, 723.2, 289.0)">e</text><text xml:space="preserve" font-family="Monaco,Monaco" font-size="30.0" fill="#7ADA45" transform="matrix(1.00, 0.00, -0.00, -1.00, 741.2, 289.0)">p</text><text xml:space="preserve" font-family="Monaco,Monaco" font-size="30.0" fill="#7ADA45" transform="matrix(1.00, 0.00, -0.00, -1.00, 759.2, 289.0)">_</text><text xml:space="preserve" font-family="Monaco,Monaco" font-size="30.0" fill="#7ADA45" transform="matrix(1.00, 0.00, -0.00, -1.00, 777.2, 289.0)">o</text><text xml:space="preserve" font-family="Monaco,Monaco" font-size="30.0" fill="#7ADA45" transform="matrix(1.00, 0.00, -0.00, -1.00, 795.2, 289.0)">n</text><text xml:space="preserve" font-family="Monaco,Monaco" font-size="30.0" fill="#7ADA45" transform="matrix(1.00, 0.00, -0.00, -1.00, 813.2, 289.0)">_</text><text xml:space="preserve" font-family="Monaco,Monaco" font-size="30.0" fill="#7ADA45" transform="matrix(1.00, 0.00, -0.00, -1.00, 831.2, 289.0)">w</text><text xml:space="preserve" font-family="Monaco,Monaco" font-size="30.0" fill="#7ADA45" transform="matrix(1.00, 0.00, -0.00, -1.00, 849.2, 289.0)">a</text><text xml:space="preserve" font-family="Monaco,Monaco" font-size="30.0" fill="#7ADA45" transform="matrix(1.00, 0.00, -0.00, -1.00, 867.2, 289.0)">l</text><text xml:space="preserve" font-family="Monaco,Monaco" font-size="30.0" fill="#7ADA45" transform="matrix(1.00, 0.00, -0.00, -1.00, 885.2, 289.0)">k</text><text xml:space="preserve" font-family="Monaco,Monaco" font-size="30.0" fill="#7ADA45" transform="matrix(1.00, 0.00, -0.00, -1.00, 903.2, 289.0)">i</text><text xml:space="preserve" font-family="Monaco,Monaco" font-size="30.0" fill="#7ADA45" transform="matrix(1.00, 0.00, -0.00, -1.00, 921.3, 289.0)">n</text><text xml:space="preserve" font-family="Monaco,Monaco" font-size="30.0" fill="#7ADA45" transform="matrix(1.00, 0.00, -0.00, -1.00, 939.3, 289.0)">g</text><text xml:space="preserve" font-family="Monaco,Monaco" font-size="30.0" fill="#7ADA45" transform="matrix(1.00, 0.00, -0.00, -1.00, 957.3, 289.0)">!</text><text xml:space="preserve" font-family="Monaco,Monaco" font-size="30.0" fill="#7ADA45" transform="matrix(1.00, 0.00, -0.00, -1.00, 975.3, 289.0)">	</text><text xml:space="preserve" font-family="Monaco,Monaco" font-size="30.0" fill="#7ADA45" transform="matrix(1.00, 0.00, -0.00, -1.00, 579.1, 248.0)"> </text><text xml:space="preserve" font-family="Monaco,Monaco" font-size="30.0" fill="#7ADA45" transform="matrix(1.00, 0.00, -0.00, -1.00, 597.1, 248.0)"> </text><text xml:space="preserve" font-family="Monaco,Monaco" font-size="30.0" fill="#7ADA45" transform="matrix(1.00, 0.00, -0.00, -1.00, 615.2, 248.0)"> </text><text xml:space="preserve" font-family="Monaco,Monaco" font-size="30.0" fill="#7ADA45" transform="matrix(1.00, 0.00, -0.00, -1.00, 633.2, 248.0)"> </text><text xml:space="preserve" font-family="Monaco,Monaco" font-size="30.0" fill="#7ADA45" transform="matrix(1.00, 0.00, -0.00, -1.00, 651.2, 248.0)">e</text><text xml:space="preserve" font-family="Monaco,Monaco" font-size="30.0" fill="#7ADA45" transform="matrix(1.00, 0.00, -0.00, -1.00, 669.2, 248.0)">n</text><text xml:space="preserve" font-family="Monaco,Monaco" font-size="30.0" fill="#7ADA45" transform="matrix(1.00, 0.00, -0.00, -1.00, 687.2, 248.0)">d</text><text xml:space="preserve" font-family="Monaco,Monaco" font-size="30.0" fill="#7ADA45" transform="matrix(1.00, 0.00, -0.00, -1.00, 576.8, 211.2)"> </text><text xml:space="preserve" font-family="Monaco,Monaco" font-size="30.0" fill="#7ADA45" transform="matrix(1.00, 0.00, -0.00, -1.00, 594.8, 211.2)"> </text><text xml:space="preserve" font-family="Monaco,Monaco" font-size="30.0" fill="#7ADA45" transform="matrix(1.00, 0.00, -0.00, -1.00, 612.8, 211.2)">e</text><text xml:space="preserve" font-family="Monaco,Monaco" font-size="30.0" fill="#7ADA45" transform="matrix(1.00, 0.00, -0.00, -1.00, 630.8, 211.2)">n</text><text xml:space="preserve" font-family="Monaco,Monaco" font-size="30.0" fill="#7ADA45" transform="matrix(1.00, 0.00, -0.00, -1.00, 648.8, 211.2)">d</text><path d="M 0.0 0.0 L 478.7 0.0 " fill="none" stroke="#52575F" stroke-width="2.00" transform="matrix(-0.00, 1.00, 1.00, 0.00, 550.4, 76.7)"></path></g></svg>