<?xml version="1.0" encoding="UTF-8" standalone="no"?><svg xmlns="http://www.w3.org/2000/svg" xmlns:xlink="http://www.w3.org/1999/xlink" clip-rule="evenodd" stroke-miterlimit="10" viewBox="0 0 215 35"><desc>SVG generated by Keynote</desc><defs></defs><g transform="matrix(1.00, 0.00, -0.00, -1.00, 0.0, 35.0)"><text xml:space="preserve" font-family="Monaco,Monaco" font-size="30.0" fill="#7ADA45" transform="matrix(1.00, 0.00, -0.00, -1.00, -0.8, 8.3)">i</text><text xml:space="preserve" font-family="Monaco,Monaco" font-size="30.0" fill="#7ADA45" transform="matrix(1.00, 0.00, -0.00, -1.00, 17.2, 8.3)">n</text><text xml:space="preserve" font-family="Monaco,Monaco" font-size="30.0" fill="#7ADA45" transform="matrix(1.00, 0.00, -0.00, -1.00, 35.2, 8.3)">c</text><text xml:space="preserve" font-family="Monaco,Monaco" font-size="30.0" fill="#7ADA45" transform="matrix(1.00, 0.00, -0.00, -1.00, 53.2, 8.3)">l</text><text xml:space="preserve" font-family="Monaco,Monaco" font-size="30.0" fill="#7ADA45" transform="matrix(1.00, 0.00, -0.00, -1.00, 71.2, 8.3)">u</text><text xml:space="preserve" font-family="Monaco,Monaco" font-size="30.0" fill="#7ADA45" transform="matrix(1.00, 0.00, -0.00, -1.00, 89.2, 8.3)">d</text><text xml:space="preserve" font-family="Monaco,Monaco" font-size="30.0" fill="#7ADA45" transform="matrix(1.00, 0.00, -0.00, -1.00, 107.2, 8.3)">e</text><text xml:space="preserve" font-family="Monaco,Monaco" font-size="30.0" fill="#7ADA45" transform="matrix(1.00, 0.00, -0.00, -1.00, 125.2, 8.3)"> </text><text xml:space="preserve" font-family="Monaco,Monaco" font-size="30.0" fill="#7ADA45" transform="matrix(1.00, 0.00, -0.00, -1.00, 143.2, 8.3)">T</text><text xml:space="preserve" font-family="Monaco,Monaco" font-size="30.0" fill="#7ADA45" transform="matrix(1.00, 0.00, -0.00, -1.00, 161.3, 8.3)">o</text><text xml:space="preserve" font-family="Monaco,Monaco" font-size="30.0" fill="#7ADA45" transform="matrix(1.00, 0.00, -0.00, -1.00, 179.3, 8.3)">y</text><text xml:space="preserve" font-family="Monaco,Monaco" font-size="30.0" fill="#7ADA45" transform="matrix(1.00, 0.00, -0.00, -1.00, 197.3, 8.3)">s</text></g></svg>